<svg width="135" height="44" viewBox="0 0 135 44" fill="none" xmlns="http://www.w3.org/2000/svg">
<g clip-path="url(#clip0_1_113)">
<path d="M50.9002 30.4314C47.7209 30.4314 45.3058 29.5378 43.655 27.7507C42.0042 25.9636 41.1482 23.437 41.1482 20.1709C41.1482 18.5378 41.3928 17.0896 41.9125 15.8263C42.4016 14.563 43.1047 13.4538 43.9913 12.591C44.8778 11.7283 45.9172 11.0504 47.14 10.5882C48.3629 10.1569 49.6774 9.91037 51.1142 9.91037C51.9396 9.91037 52.7039 9.97199 53.3765 10.0952C54.049 10.2185 54.6298 10.3726 55.1495 10.5266C55.6387 10.6807 56.0667 10.8656 56.4029 11.0196C56.7392 11.2045 56.9838 11.3277 57.1366 11.4202L55.8527 14.9944C55.2413 14.6555 54.5381 14.409 53.7433 14.1625C52.9485 13.9468 52.0313 13.8235 51.0225 13.8235C50.35 13.8235 49.6774 13.9468 49.0354 14.1625C48.3934 14.3782 47.8126 14.7479 47.3235 15.2409C46.8343 15.7339 46.4369 16.381 46.1312 17.1821C45.8255 17.9832 45.6726 18.9384 45.6726 20.0784C45.6726 21.0028 45.7644 21.8347 45.9784 22.6359C46.1923 23.437 46.4981 24.1149 46.926 24.6695C47.354 25.2549 47.9349 25.6863 48.6686 26.0252C49.3717 26.3642 50.2582 26.5182 51.2671 26.5182C51.9091 26.5182 52.4593 26.4874 52.979 26.395C53.4987 26.3333 53.9267 26.2409 54.3241 26.1177C54.7216 26.0252 55.0578 25.902 55.3635 25.7479C55.6693 25.6247 55.9444 25.5014 56.189 25.3782L57.4118 28.9216C56.8004 29.2913 55.9138 29.6303 54.7827 29.9384C53.6822 30.2773 52.3676 30.4314 50.9002 30.4314Z" fill="#2139B7"/>
<path d="M65.5742 14.6863C66.8276 14.6863 67.8364 14.8403 68.6618 15.1177C69.4872 15.395 70.1598 15.7955 70.6489 16.3501C71.138 16.874 71.5049 17.521 71.7189 18.2913C71.9329 19.0616 72.0246 19.8936 72.0246 20.8179V29.6303C71.4132 29.7535 70.5878 29.9076 69.5178 30.0924C68.4478 30.2773 67.1333 30.3698 65.6353 30.3698C64.6876 30.3698 63.8011 30.2773 63.0368 30.1233C62.242 29.9692 61.6 29.6611 61.0191 29.2913C60.4689 28.8908 60.0103 28.3978 59.7352 27.7815C59.4295 27.1653 59.2766 26.395 59.2766 25.4706C59.2766 24.6078 59.4295 23.8684 59.7963 23.2521C60.1326 22.6359 60.6217 22.1737 61.2026 21.8039C61.7834 21.4342 62.456 21.1877 63.2202 21.0336C63.9845 20.8796 64.7488 20.7871 65.5436 20.7871C66.0939 20.7871 66.583 20.8179 66.9804 20.8487C67.4084 20.8796 67.7447 20.972 68.0198 21.0336V20.6331C68.0198 19.9244 67.8058 19.3389 67.3778 18.9076C66.9498 18.4762 66.1856 18.2605 65.1156 18.2605C64.4125 18.2605 63.7094 18.3221 63.0062 18.4146C62.3031 18.507 61.7223 18.6611 61.2026 18.8459L60.6523 15.4566C60.8969 15.395 61.2026 15.3025 61.5694 15.2101C61.9363 15.1177 62.3337 15.056 62.7617 14.9636C63.1897 14.902 63.6482 14.8403 64.1373 14.8095C64.5959 14.7171 65.085 14.6863 65.5742 14.6863ZM65.9104 27.0728C66.3079 27.0728 66.7053 27.0728 67.0721 27.042C67.439 27.0112 67.7447 27.0112 67.9892 26.9496V23.7759C67.8058 23.7451 67.5613 23.6835 67.225 23.6527C66.8887 23.6219 66.583 23.591 66.3079 23.591C65.9104 23.591 65.5436 23.6219 65.1767 23.6527C64.8405 23.6835 64.5348 23.7759 64.2596 23.93C63.9845 24.0532 63.8011 24.2381 63.6482 24.4538C63.4954 24.7003 63.4036 24.9776 63.4036 25.3165C63.4036 25.9944 63.6176 26.4566 64.0762 26.7031C64.5348 26.9496 65.1462 27.0728 65.9104 27.0728Z" fill="#2139B7"/>
<path d="M89.6026 22.5742C89.6026 23.7451 89.4497 24.7927 89.1746 25.7171C88.8994 26.6723 88.4714 27.4734 87.9212 28.1513C87.3709 28.8291 86.6983 29.3529 85.9035 29.7535C85.1087 30.1232 84.161 30.3081 83.1216 30.3081C82.5407 30.3081 81.9905 30.2465 81.5013 30.1541C80.9816 30.0308 80.4925 29.8767 80.0339 29.6611V35.2997H75.8152V15.6106C76.182 15.4874 76.61 15.395 77.0992 15.2717C77.5883 15.1793 78.108 15.0868 78.6277 14.9944C79.1474 14.902 79.6977 14.8403 80.2479 14.8095C80.7982 14.7479 81.3179 14.7479 81.8376 14.7479C83.0604 14.7479 84.161 14.9328 85.1087 15.3025C86.0564 15.6723 86.8818 16.1961 87.5237 16.8739C88.1963 17.5518 88.6854 18.3529 89.0217 19.3389C89.4191 20.2941 89.6026 21.3725 89.6026 22.5742ZM85.3227 22.6975C85.3227 21.4034 85.017 20.3557 84.4361 19.5546C83.8553 18.7843 82.9993 18.3837 81.8376 18.3837C81.4708 18.3837 81.1039 18.3837 80.7982 18.4146C80.4925 18.4454 80.2174 18.4762 80.0034 18.507V26.1485C80.2785 26.3333 80.6148 26.4566 81.0428 26.5798C81.4708 26.7031 81.8987 26.7339 82.3267 26.7339C84.3138 26.7339 85.3227 25.3781 85.3227 22.6975Z" fill="#2139B7"/>
<path d="M97.4287 10.7731C97.4287 11.5434 97.1841 12.1597 96.6644 12.591C96.1753 13.0224 95.5944 13.2689 94.8913 13.2689C94.2188 13.2689 93.6379 13.0532 93.1182 12.591C92.6291 12.1597 92.3845 11.5434 92.3845 10.7731C92.3845 10.0028 92.6291 9.38655 93.1182 8.92436C93.6073 8.49299 94.1882 8.24649 94.8913 8.24649C95.5639 8.24649 96.1447 8.46218 96.6644 8.92436C97.1841 9.38655 97.4287 10.0028 97.4287 10.7731ZM97.0313 30.0308H92.8431V15.0868H97.0313V30.0308Z" fill="#2139B7"/>
<path d="M100.822 11.3894L105.01 10.7115V15.0868H110.054V18.5994H105.01V23.8683C105.01 24.7619 105.163 25.4706 105.469 25.9944C105.775 26.5182 106.386 26.7955 107.334 26.7955C107.792 26.7955 108.251 26.7339 108.74 26.6723C109.229 26.5798 109.657 26.4566 110.054 26.3333L110.635 29.6303C110.116 29.8459 109.565 30.0308 108.954 30.1849C108.342 30.3389 107.578 30.4006 106.661 30.4006C105.53 30.4006 104.582 30.2465 103.818 29.9384C103.054 29.6303 102.473 29.1989 102.014 28.6443C101.556 28.0896 101.25 27.4118 101.067 26.6106C100.883 25.8095 100.792 24.9468 100.792 23.9608V11.3894H100.822Z" fill="#2139B7"/>
<path d="M118.247 14.6863C119.501 14.6863 120.51 14.8403 121.335 15.1177C122.16 15.395 122.833 15.7955 123.322 16.3501C123.811 16.874 124.178 17.521 124.361 18.2913C124.575 19.0616 124.667 19.8936 124.667 20.8179V29.6303C124.056 29.7535 123.23 29.9076 122.16 30.0924C121.09 30.2773 119.806 30.3698 118.278 30.3698C117.33 30.3698 116.444 30.2773 115.679 30.1233C114.915 29.9692 114.243 29.6611 113.662 29.2913C113.111 28.8908 112.653 28.3978 112.378 27.7815C112.072 27.1653 111.919 26.395 111.919 25.4706C111.919 24.6078 112.103 23.8684 112.439 23.2521C112.806 22.6359 113.264 22.1737 113.845 21.8039C114.426 21.4342 115.099 21.1877 115.832 21.0336C116.566 20.8796 117.361 20.7871 118.156 20.7871C118.706 20.7871 119.195 20.8179 119.623 20.8487C120.051 20.8796 120.387 20.972 120.662 21.0336V20.6331C120.662 19.9244 120.448 19.3389 120.02 18.9076C119.592 18.4762 118.828 18.2605 117.758 18.2605C117.055 18.2605 116.352 18.3221 115.649 18.4146C114.946 18.507 114.365 18.6611 113.845 18.8459L113.325 15.4566C113.57 15.395 113.876 15.3025 114.243 15.2101C114.609 15.1177 115.007 15.056 115.435 14.9636C115.863 14.902 116.321 14.8403 116.81 14.8095C117.269 14.7171 117.758 14.6863 118.247 14.6863ZM118.584 27.0728C119.012 27.0728 119.378 27.0728 119.776 27.042C120.143 27.0112 120.448 27.0112 120.693 26.9496V23.7759C120.51 23.7451 120.265 23.6835 119.929 23.6527C119.592 23.6219 119.287 23.591 119.012 23.591C118.614 23.591 118.247 23.6219 117.911 23.6527C117.575 23.6835 117.269 23.7759 116.994 23.93C116.719 24.0532 116.535 24.2381 116.383 24.4538C116.23 24.7003 116.169 24.9776 116.169 25.3165C116.169 25.9944 116.383 26.4566 116.841 26.7031C117.208 26.9496 117.819 27.0728 118.584 27.0728Z" fill="#2139B7"/>
<path d="M134.419 30.3081C133.196 30.3081 132.218 30.1541 131.454 29.9076C130.69 29.6611 130.109 29.3221 129.65 28.8599C129.222 28.4286 128.916 27.8739 128.764 27.2577C128.611 26.6106 128.519 25.902 128.519 25.1317V8.67787L132.707 8V24.2689C132.707 24.6387 132.738 24.9776 132.799 25.2857C132.86 25.5938 132.982 25.8403 133.135 26.056C133.288 26.2717 133.533 26.4258 133.838 26.5798C134.144 26.7031 134.541 26.7955 135.061 26.8263L134.419 30.3081Z" fill="#2139B7"/>
<path d="M10.6997 30.2465L9.41576 26.6107H2.50679L1.19226 30.2465H0L5.44158 15.3333H6.45041L11.892 30.2465H10.6997ZM5.96128 16.8123L2.84307 25.5938H9.04891L5.96128 16.8123Z" fill="#2139B7"/>
<path d="M15.6216 16.3193V22.451H22.3166V23.4678H15.6216V30.2465H14.4905V15.3025H23.4783V16.3193H15.6216Z" fill="#2139B7"/>
<path d="M31.9158 23.8992H27.6054V30.2465H26.4742V15.3025H31.9158C34.4838 15.3025 36.3791 16.8739 36.3791 19.5854C36.3791 22.3277 34.4532 23.8992 31.9158 23.8992ZM31.7935 16.3193H27.6054V22.9132H31.7935C33.8418 22.9132 35.2786 21.8655 35.2786 19.6162C35.248 17.3669 33.8112 16.3193 31.7935 16.3193Z" fill="#2139B7"/>
</g>
<defs>
<clipPath id="clip0_1_113">
<rect width="135" height="44" fill="white"/>
</clipPath>
</defs>
</svg>
