<svg width="32" height="27" viewBox="0 0 32 27" fill="none" xmlns="http://www.w3.org/2000/svg">
<path d="M25.3382 11.2132C27.2688 11.4062 28.8132 12.2267 29.9715 13.6746C31.1299 15.1225 31.709 16.9083 31.709 19.0318C31.709 21.0589 31.0333 22.7481 29.6819 24.0995C28.3306 25.4509 26.4966 26.1266 24.1799 26.1266C21.9598 26.1266 20.1741 25.4509 18.8227 24.0995C17.4713 22.6516 16.7956 20.4797 16.7956 17.5839C16.7956 14.5916 18.0505 11.2614 20.5602 7.59343C23.0699 3.82889 25.6761 1.3192 28.3788 0.0643498C28.7649 -0.128701 29.3441 0.112616 30.1163 0.788299C30.8885 1.46399 31.2746 2.04315 31.2746 2.52578C28.4754 4.45631 26.4966 7.35211 25.3382 11.2132ZM8.54261 11.2132C10.3766 11.4062 11.8728 12.2267 13.0311 13.6746C14.1894 15.1225 14.7686 16.9083 14.7686 19.0318C14.7686 21.0589 14.0929 22.7481 12.7415 24.0995C11.4867 25.4509 9.70093 26.1266 7.38429 26.1266C5.16418 26.1266 3.37843 25.4509 2.02706 24.0995C0.675687 22.6516 0 20.4797 0 17.5839C0 14.5916 1.20658 11.2614 3.61975 7.59343C6.12944 3.82889 8.78393 1.3192 11.5832 0.0643498C11.9693 -0.128701 12.5485 0.112616 13.3207 0.788299C14.0929 1.46399 14.479 2.04315 14.479 2.52578C11.6797 4.45631 9.70093 7.35211 8.54261 11.2132Z" fill="#785CE8"/>
</svg>
