<svg width="521" height="528" viewBox="0 0 521 528" fill="none" xmlns="http://www.w3.org/2000/svg">
<rect width="521" height="528" fill="white"/>
<g clip-path="url(#clip0_1572_126)">
<path d="M363.453 127.377H102.596C101.734 127.377 101.042 128.068 101.042 128.93C101.042 129.791 101.734 130.483 102.596 130.483H363.464C364.326 130.483 365.018 129.791 365.018 128.93C365.018 128.068 364.326 127.377 363.464 127.377H363.453Z" fill="#0C375B"/>
<path d="M127.287 104.843C127.287 110.454 122.728 115.011 117.114 115.011C111.5 115.011 106.94 110.454 106.94 104.843C106.94 99.2325 111.5 94.6758 117.114 94.6758C122.728 94.6758 127.287 99.2325 127.287 104.843Z" fill="#0C375B"/>
<path d="M154.314 104.843C154.314 110.454 149.755 115.011 144.141 115.011C138.527 115.011 133.967 110.454 133.967 104.843C133.967 99.2325 138.527 94.6758 144.141 94.6758C149.755 94.6758 154.314 99.2325 154.314 104.843Z" fill="#0C375B"/>
<path d="M181.341 104.843C181.341 110.454 176.782 115.011 171.168 115.011C165.554 115.011 160.995 110.454 160.995 104.843C160.995 99.2325 165.554 94.6758 171.168 94.6758C176.782 94.6758 181.341 99.2325 181.341 104.843Z" fill="#0C375B"/>
<path d="M79.5503 266.992V97.0562C79.5503 82.7286 91.2094 71.0762 105.545 71.0762H357.566C371.902 71.0762 383.561 82.7286 383.561 97.0562V266.992C383.561 281.319 371.902 292.972 357.566 292.972H105.557C91.2208 292.972 79.5616 281.319 79.5616 266.992H79.5503ZM105.557 78.9314C95.5646 78.9314 87.4213 87.0586 87.4213 97.0562V266.992C87.4213 276.989 95.5533 285.116 105.557 285.116H357.578C367.57 285.116 375.713 276.989 375.713 266.992V97.0562C375.713 87.07 367.581 78.9314 357.578 78.9314H105.557Z" fill="#0C375B"/>
<path d="M317.928 148.732C323.939 148.732 329.575 151.011 333.817 155.148C338.093 159.319 340.452 164.919 340.463 170.904C340.475 176.923 338.15 182.624 333.908 186.977C329.632 191.352 323.973 193.778 317.973 193.789H142.553C130.157 193.789 120.04 183.712 120.017 171.312C120.006 165.304 122.342 159.648 126.584 155.375C130.837 151.101 136.485 148.744 142.496 148.732H317.928ZM317.973 189.131C322.702 189.131 327.182 187.204 330.574 183.724C333.953 180.255 335.813 175.71 335.802 170.915C335.802 166.188 333.931 161.768 330.562 158.481C327.205 155.193 322.714 153.391 317.928 153.391H142.507C137.744 153.402 133.264 155.273 129.884 158.662C126.505 162.051 124.656 166.54 124.667 171.301C124.69 181.128 132.708 189.131 142.553 189.131H317.973Z" fill="#0C375B"/>
<path d="M154.11 162.459C154.904 162.459 155.698 162.753 156.31 163.365C157.524 164.578 157.524 166.539 156.31 167.752L144.98 179.132C143.766 180.345 141.804 180.357 140.591 179.132C139.377 177.92 139.366 175.959 140.579 174.746L151.91 163.365C152.511 162.753 153.305 162.459 154.098 162.447L154.11 162.459Z" fill="#0C375B"/>
<path d="M142.746 162.482C143.539 162.482 144.333 162.777 144.946 163.389L156.333 174.713C157.546 175.925 157.558 177.886 156.333 179.099C155.119 180.312 153.157 180.323 151.944 179.099L140.557 167.776C139.343 166.563 139.343 164.602 140.557 163.389C141.158 162.777 141.952 162.482 142.757 162.471L142.746 162.482Z" fill="#0C375B"/>
<path d="M142.598 254.172H317.973C329.122 254.149 338.161 244.764 338.138 233.621C338.115 222.479 329.031 213.74 317.882 213.774H142.507C131.358 213.796 122.319 222.887 122.342 234.018C122.365 245.16 131.46 254.194 142.598 254.172V254.172Z" fill="#AC90ED"/>
<path d="M317.928 210.418C324.211 210.418 330.108 212.798 334.543 217.128C339.012 221.492 341.484 227.341 341.495 233.61C341.507 239.901 339.08 245.863 334.645 250.397C330.176 254.976 324.256 257.504 317.984 257.515H142.553C129.589 257.515 119.019 246.974 118.985 234.018C118.974 227.738 121.412 221.821 125.858 217.355C130.304 212.889 136.213 210.429 142.496 210.418H317.928ZM317.973 250.816C322.43 250.816 326.649 248.991 329.836 245.715C333.034 242.44 334.792 238.144 334.781 233.621C334.758 224.36 327.352 217.117 317.928 217.117H142.507C138.016 217.117 133.797 218.897 130.61 222.082C127.423 225.278 125.676 229.506 125.688 233.995C125.71 243.267 133.275 250.805 142.541 250.805H317.973V250.816Z" fill="#0C375B"/>
<path d="M154.11 225.166C154.904 225.166 155.698 225.46 156.31 226.072C157.524 227.285 157.535 229.246 156.31 230.459L144.98 241.84C143.766 243.052 141.804 243.064 140.591 241.84C139.377 240.627 139.366 238.666 140.579 237.453L151.921 226.072C152.522 225.46 153.316 225.166 154.11 225.154V225.166Z" fill="#0C375B"/>
<path d="M142.746 225.189C143.539 225.189 144.333 225.484 144.934 226.096L156.321 237.42C157.535 238.632 157.546 240.593 156.321 241.806C155.108 243.019 153.146 243.03 151.932 241.806L140.545 230.483C139.332 229.27 139.32 227.309 140.545 226.096C141.158 225.484 141.94 225.189 142.746 225.178V225.189Z" fill="#0C375B"/>
<path d="M213.721 477.892L228.964 488.569C229.769 489.136 230.836 489.136 231.641 488.569L245.546 478.821L259.45 488.569C260.256 489.136 261.322 489.136 262.127 488.569L276.032 478.821L289.937 488.569C290.742 489.136 291.808 489.136 292.613 488.569L306.518 478.821L320.423 488.569C321.228 489.136 322.294 489.136 323.099 488.569L337.004 478.821L350.909 488.569C351.714 489.136 352.78 489.136 353.585 488.569L368.829 477.892C369.883 477.155 370.133 475.704 369.396 474.65C368.942 474.004 368.216 473.664 367.49 473.664C367.025 473.664 366.56 473.8 366.152 474.083L352.247 483.831L338.342 474.083C337.537 473.517 336.471 473.517 335.666 474.083L321.761 483.831L307.856 474.083C307.051 473.517 305.985 473.517 305.18 474.083L291.275 483.831L277.37 474.083C276.565 473.517 275.499 473.517 274.693 474.083L260.789 483.831L246.884 474.083C246.079 473.517 245.013 473.517 244.207 474.083L230.302 483.831L216.398 474.083C215.343 473.346 213.891 473.596 213.154 474.65C212.417 475.704 212.666 477.155 213.721 477.892Z" fill="#AC90ED"/>
<path d="M314.321 161.937H436.3C445.033 161.937 452.121 169.022 452.121 177.75V442.129C452.121 450.857 445.033 457.953 436.289 457.953H314.31C305.577 457.953 298.477 450.868 298.477 442.129V177.75C298.477 169.022 305.566 161.926 314.31 161.926L314.321 161.937Z" fill="white"/>
<path d="M436.288 461.829H314.31C303.445 461.829 294.598 452.988 294.598 442.128V177.749C294.598 166.89 303.445 158.049 314.31 158.049H436.288C447.154 158.049 456 166.89 456 177.749V442.128C456 452.988 447.154 461.829 436.288 461.829ZM314.321 165.813C307.732 165.813 302.378 171.175 302.378 177.749V442.128C302.378 448.714 307.743 454.076 314.321 454.076H436.3C442.889 454.076 448.254 448.714 448.254 442.128V177.749C448.254 171.164 442.889 165.813 436.3 165.813H314.321Z" fill="#0C375B"/>
<path d="M433.703 180.48H316.919C316.057 180.48 315.365 181.172 315.365 182.033C315.365 182.895 316.057 183.586 316.919 183.586H433.703C434.553 183.586 435.257 182.895 435.257 182.033C435.257 181.172 434.565 180.48 433.703 180.48V180.48Z" fill="#0C375B"/>
<path d="M433.703 434.115H316.919C316.057 434.115 315.365 434.807 315.365 435.668C315.365 436.53 316.057 437.221 316.919 437.221H433.703C434.553 437.221 435.257 436.53 435.257 435.668C435.257 434.807 434.565 434.115 433.703 434.115Z" fill="#0C375B"/>
<path d="M55.8577 161.541C55.8577 161.541 60.9387 157.971 61.1996 152.518C61.3584 149.243 59.7706 146.205 56.4815 143.507C52.3872 140.141 51.6046 138.021 51.6613 136.831C51.7407 135.085 53.8729 133.498 55.8691 132.161C55.9258 132.127 60.9501 128.579 61.2109 123.138C61.3697 119.862 59.7819 116.824 56.4928 114.127C54.0317 112.109 52.8068 110.08 52.8522 108.119C52.9089 105.081 55.9031 102.769 55.9711 102.723C57.0032 101.953 57.2074 100.502 56.4475 99.4703C55.6763 98.4388 54.2245 98.2235 53.1924 98.9829C52.9996 99.1303 48.3383 102.644 48.2022 107.972C48.1114 111.451 49.9147 114.727 53.544 117.72C55.5969 119.409 56.6176 121.132 56.5722 122.832C56.5042 125.371 54.0998 127.683 53.2492 128.318C50.9695 129.848 47.2041 132.41 46.9999 136.615C46.8412 139.937 48.9734 143.36 53.5214 147.1C55.5742 148.789 56.5949 150.512 56.5496 152.224C56.4815 154.763 54.0771 157.075 53.2265 157.71C50.9695 159.229 47.2041 161.779 46.9999 165.996C46.8412 169.317 48.9734 172.74 53.5214 176.481C55.5742 178.17 56.5949 179.893 56.5496 181.593C56.4815 184.132 54.0771 186.444 53.2265 187.079C50.9582 188.609 47.2041 191.16 46.9999 195.376C46.8412 198.698 48.9734 202.121 53.5214 205.861C53.9523 206.213 54.474 206.394 54.9958 206.394C55.6649 206.394 56.3341 206.111 56.7991 205.544C57.6157 204.546 57.4682 203.084 56.4815 202.268C52.3872 198.902 51.6046 196.782 51.6613 195.603C51.7407 193.857 53.8729 192.271 55.8691 190.933C55.9144 190.899 60.9501 187.362 61.2109 181.91C61.3697 178.634 59.7819 175.597 56.4928 172.899C52.3985 169.532 51.616 167.413 51.6727 166.223C51.7521 164.477 53.8843 162.89 55.8804 161.553L55.8577 161.541Z" fill="#0C375B"/>
<path d="M423.586 399.499H330.018C325.357 399.499 321.557 395.713 321.557 391.043V297.528C321.557 292.87 325.345 289.072 330.018 289.072H423.586C428.247 289.072 432.047 292.858 432.047 297.528V391.043C432.047 395.701 428.247 399.499 423.586 399.499ZM330.018 295.057C328.657 295.057 327.545 296.168 327.545 297.528V391.043C327.545 392.403 328.657 393.514 330.018 393.514H423.586C424.947 393.514 426.058 392.403 426.058 391.043V297.528C426.058 296.168 424.947 295.057 423.586 295.057H330.018Z" fill="#0C375B"/>
<path d="M373.275 374.821C370.666 374.821 368.194 373.631 366.572 371.579L340.384 338.424C337.469 334.729 338.093 329.356 341.802 326.443C345.499 323.53 350.864 324.153 353.79 327.849L373.059 352.253L427.533 278.904C430.345 275.118 435.699 274.324 439.487 277.136C443.275 279.947 444.069 285.297 441.245 289.071L380.114 371.375C378.537 373.506 376.042 374.787 373.388 374.821H373.263H373.275Z" fill="#AC90ED"/>
<path d="M449.841 155.545C449.694 155.545 449.535 155.533 449.376 155.499C448.083 155.25 447.244 153.992 447.494 152.7C452.722 126.051 449.626 103.879 438.795 90.266C434.485 84.8478 429.154 81.1639 423.132 79.3843C422.69 82.6374 421.646 85.6979 419.945 88.407C416.44 93.9952 411.62 96.7723 406.721 96.0015C402.275 95.3214 398.487 91.7849 397.307 87.2055C396.434 83.8503 396.978 80.8238 398.884 78.4548C401.787 74.8276 407.424 73.1273 415.658 73.4107C416.599 73.4447 417.54 73.5127 418.47 73.6147C417.835 66.621 414.285 59.0945 408.365 53.3476C391.988 37.4445 364.779 39.6095 335.598 59.1285C334.509 59.8539 333.023 59.5706 332.286 58.4711C331.549 57.3829 331.843 55.898 332.944 55.1612C364.133 34.2934 393.564 32.3324 411.677 49.9244C418.879 56.9182 422.962 66.0202 423.347 74.4989C430.776 76.4032 437.32 80.7445 442.537 87.3075C454.253 102.032 457.678 125.575 452.178 153.618C451.951 154.751 450.953 155.545 449.841 155.545V155.545ZM414.013 78.1601C408.342 78.1601 404.316 79.3163 402.604 81.4473C401.651 82.6375 401.435 84.1337 401.923 86.0266C402.626 88.7471 404.906 90.9121 407.458 91.3088C410.429 91.7622 413.435 89.8352 415.919 85.8793C417.302 83.6803 418.13 81.1412 418.436 78.4095C417.472 78.2848 416.497 78.2054 415.51 78.1714C415 78.1601 414.501 78.1488 414.025 78.1488L414.013 78.1601Z" fill="#0C375B"/>
<path d="M436.935 230.945H316.215C315.353 230.945 314.661 231.637 314.661 232.498C314.661 233.36 315.353 234.051 316.215 234.051H436.935C437.797 234.051 438.488 233.36 438.488 232.498C438.488 231.637 437.797 230.945 436.935 230.945Z" fill="#0C375B"/>
<path d="M339.171 208.4C339.171 214.022 334.611 218.568 328.997 218.568C323.383 218.568 318.824 214.011 318.824 208.4C318.824 202.789 323.383 198.232 328.997 198.232C334.611 198.232 339.171 202.778 339.171 208.4Z" fill="#0C375B"/>
<path d="M366.197 208.4C366.197 214.022 361.638 218.568 356.024 218.568C350.41 218.568 345.851 214.011 345.851 208.4C345.851 202.789 350.41 198.232 356.024 198.232C361.638 198.232 366.197 202.778 366.197 208.4Z" fill="#0C375B"/>
<path d="M393.224 208.4C393.224 214.022 388.665 218.568 383.051 218.568C377.437 218.568 372.877 214.011 372.877 208.4C372.877 202.789 377.437 198.232 383.051 198.232C388.665 198.232 393.224 202.778 393.224 208.4Z" fill="#0C375B"/>
<path d="M193.771 278.632C195.382 273.837 193.374 268.068 188.645 266.05C183.416 263.817 177.848 267.637 176.124 272.715C169.999 291.736 167.64 310.846 168.967 330.785C175.148 330.218 181.33 329.674 187.511 329.164C186.411 311.776 188.463 295.238 193.771 278.632V278.632Z" fill="white"/>
<path d="M166.96 333.154C166.324 332.61 165.927 331.827 165.882 331C164.521 310.619 166.914 291.248 173.175 271.774C173.175 271.752 173.175 271.74 173.197 271.729C174.241 268.668 176.396 265.937 179.106 264.225C182.157 262.298 185.605 261.799 188.826 262.808C189.178 262.921 189.541 263.046 189.881 263.194C195.847 265.733 198.909 273.089 196.743 279.595C191.559 295.839 189.552 311.991 190.629 328.96C190.731 330.649 189.473 332.111 187.794 332.247C181.828 332.746 175.602 333.29 169.285 333.868C168.865 333.902 168.457 333.868 168.071 333.732C167.674 333.607 167.311 333.403 166.982 333.131L166.96 333.154ZM190.811 277.691C190.811 277.691 190.822 277.657 190.834 277.646C191.99 274.189 190.437 270.187 187.431 268.906C187.272 268.838 187.114 268.782 186.955 268.725C183.62 267.671 180.195 270.448 179.084 273.69C173.402 291.384 171.042 308.987 171.904 327.395C176.101 327.021 180.229 326.659 184.267 326.307C183.552 309.645 185.707 293.708 190.822 277.668L190.811 277.691Z" fill="#0C375B"/>
<path d="M254.063 316.038C250.661 312.716 245.115 312.694 241.474 315.822C246.09 310.903 247.394 305.417 243.663 300.996C240.17 296.847 234.011 297.448 230.325 300.701C233.331 297.074 233.705 291.452 230.132 288.199C226.129 284.549 219.63 285.784 216.001 289.559C226.56 276.841 232.764 271.241 242.54 263.636C246.737 260.53 248.585 255.678 246.011 251.212C242.506 245.125 236.257 245.885 232.015 248.934C195.268 278.53 169.829 311.719 145.989 358.748C167.754 368.938 189.235 379.673 210.455 390.962C222.704 366.853 235.701 348.286 254.222 328.574C257.545 325.026 257.477 319.404 254.063 316.049V316.038Z" fill="white"/>
<path d="M209.003 393.683C187.942 382.484 166.302 371.659 144.685 361.536C143.925 361.185 143.335 360.528 143.063 359.734C142.791 358.941 142.848 358.068 143.233 357.32C167.788 308.896 193.76 275.752 230.087 246.497C230.132 246.463 230.178 246.429 230.223 246.395C232.673 244.638 235.52 243.606 238.219 243.504C242.619 243.346 246.351 245.522 248.721 249.648C251.919 255.213 250.196 261.81 244.445 266.095C237.357 271.615 232.208 276.036 225.822 282.996C228.261 283.302 230.484 284.299 232.242 285.897C234.828 288.255 236.03 291.622 235.814 295.045C236.132 295.011 236.438 294.988 236.756 294.977C240.453 294.841 243.754 296.269 246.056 298.989C248.891 302.345 249.64 306.335 248.392 310.415C251.375 310.562 254.142 311.741 256.263 313.816C260.891 318.35 261.004 325.91 256.513 330.682C238.298 350.077 225.357 368.519 213.256 392.356C212.882 393.105 212.213 393.66 211.419 393.909C211.146 394 210.874 394.045 210.602 394.057C210.058 394.079 209.513 393.955 209.026 393.694L209.003 393.683ZM243.504 318.168C242.256 319.245 240.374 319.154 239.24 317.964C238.094 316.774 238.083 314.904 239.217 313.702C244.048 308.545 243.016 305.031 241.304 302.991C239.965 301.404 238.219 301.132 236.983 301.177C235.327 301.234 233.66 301.914 232.401 303.013C231.187 304.09 229.35 304.045 228.182 302.911C227.025 301.789 226.923 299.953 227.955 298.706C229.837 296.428 230.416 292.619 228.057 290.465C226.73 289.253 225.119 289.049 223.996 289.094C221.921 289.173 219.721 290.159 218.258 291.69C217.101 292.891 215.195 292.97 213.948 291.86C212.7 290.749 212.564 288.844 213.63 287.564C224.393 274.608 230.665 268.951 240.657 261.176C240.68 261.164 240.703 261.142 240.714 261.13C243.243 259.26 245.262 256.075 243.334 252.742C242.12 250.623 240.521 249.636 238.446 249.716C236.971 249.772 235.361 250.362 233.909 251.393C199.068 279.47 173.923 311.277 150.231 357.286C170.033 366.614 189.824 376.51 209.15 386.734C221.127 363.69 234.056 345.52 251.976 326.432C254.165 324.108 254.131 320.435 251.897 318.248C250.751 317.126 249.197 316.547 247.508 316.604C246.033 316.661 244.615 317.216 243.504 318.168V318.168Z" fill="#0C375B"/>
<path d="M201.404 455.346C201.404 455.346 139.967 455.097 119.484 455.018C119.393 390.975 151.422 340.023 151.422 340.023L222.409 380.898C222.409 380.898 200.781 419.505 201.416 455.346C201.416 455.562 201.416 455.346 201.416 455.346H201.404Z" fill="#AC90ED"/>
<path d="M133.661 427.587C132.969 427.644 132.266 427.293 131.914 426.635C131.427 425.74 131.756 424.629 132.64 424.141C141.543 419.267 153.543 416.32 168.298 415.379C179.22 414.677 187.454 415.379 187.794 415.413C188.804 415.504 189.552 416.388 189.462 417.408C189.371 418.417 188.475 419.165 187.465 419.075C187.137 419.041 154.564 416.332 134.398 427.361C134.16 427.485 133.911 427.565 133.65 427.587H133.661Z" fill="#0C375B"/>
<path d="M188.792 411.831C188.452 411.854 188.1 411.786 187.783 411.616C187.522 411.479 161.436 397.594 138.061 400.949C137.063 401.097 136.122 400.394 135.975 399.396C135.838 398.387 136.53 397.458 137.54 397.311C162.151 393.785 188.429 407.784 189.541 408.385C190.437 408.872 190.766 409.983 190.289 410.879C189.983 411.445 189.405 411.797 188.804 411.842L188.792 411.831Z" fill="#0C375B"/>
<path d="M201.393 459.324H201.495C203.605 459.279 205.283 457.567 205.294 455.47C205.294 455.436 205.294 455.402 205.294 455.368V455.266C204.682 420.932 225.585 383.175 225.789 382.79C226.821 380.942 226.186 378.596 224.337 377.542L153.35 336.667C151.535 335.625 149.233 336.203 148.122 337.96C147.781 338.492 139.82 351.256 131.79 372.112C124.384 391.348 115.549 421.34 115.605 455.028C115.605 457.159 117.341 458.894 119.473 458.905H119.495C121.639 458.905 123.374 457.159 123.374 455.017C123.329 422.61 131.835 393.672 138.969 375.093C144.458 360.811 150.004 350.303 152.817 345.316L217.214 382.393C211.918 392.731 196.981 424.73 197.525 455.414C197.525 455.414 197.525 455.414 197.525 455.425V455.516C197.571 457.624 199.295 459.302 201.393 459.313V459.324Z" fill="#AC90ED"/>
<path d="M158.624 445.031C159.679 445.031 160.541 444.203 160.575 443.149C161.607 405.777 178.347 374.651 178.517 374.345C179.027 373.404 178.687 372.225 177.735 371.715C176.793 371.205 175.614 371.545 175.103 372.486C174.933 372.803 157.751 404.746 156.685 443.036C156.651 444.112 157.501 444.997 158.567 445.031C158.579 445.031 158.601 445.031 158.613 445.031H158.624Z" fill="#0C375B"/>
<path d="M96.6195 314.881C97.5949 314.031 99.058 314.133 99.9086 315.108L126.176 345.169C127.026 346.143 126.924 347.606 125.949 348.456C125.847 348.546 125.733 348.626 125.62 348.694C124.667 349.261 123.42 349.09 122.671 348.229L96.404 318.157C95.5534 317.194 95.6555 315.72 96.6309 314.87L96.6195 314.881Z" fill="#0C375B"/>
<path d="M55.0297 436.45C54.7802 435.191 55.6082 433.967 56.8671 433.718L96.0522 426.021C97.3111 425.772 98.536 426.588 98.7856 427.858C98.9784 428.844 98.5134 429.807 97.7081 430.295C97.4813 430.431 97.2318 430.533 96.9596 430.589L57.7744 438.286C56.5155 438.535 55.2906 437.719 55.0411 436.45H55.0297Z" fill="#0C375B"/>
<path d="M59.5324 370.095C59.952 368.882 61.2676 368.236 62.4925 368.644L100.283 381.554C101.508 381.974 102.154 383.289 101.734 384.513C101.542 385.057 101.19 385.476 100.736 385.748C100.169 386.088 99.4547 386.19 98.7856 385.964L60.9954 373.042C59.7819 372.634 59.1354 371.307 59.5437 370.083L59.5324 370.095Z" fill="#0C375B"/>
<path d="M274.693 399.679H258.067V383.062C258.067 381.77 257.023 380.738 255.742 380.738C254.46 380.738 253.417 381.781 253.417 383.062V399.679H236.79C235.508 399.679 234.465 400.722 234.465 402.003C234.465 403.284 235.508 404.327 236.79 404.327H253.417V420.944C253.417 422.225 254.46 423.268 255.742 423.268C257.023 423.268 258.067 422.225 258.067 420.944V404.327H274.693C275.975 404.327 277.018 403.284 277.018 402.003C277.018 400.722 275.975 399.679 274.693 399.679Z" fill="#AC90ED"/>
</g>
<defs>
<clipPath id="clip0_1572_126">
<rect width="409" height="451" fill="white" transform="translate(47 38)"/>
</clipPath>
</defs>
</svg>
