<svg width="316" height="316" viewBox="0 0 316 316" fill="none" xmlns="http://www.w3.org/2000/svg">
<mask id="mask0_3_30" style="mask-type:alpha" maskUnits="userSpaceOnUse" x="0" y="0" width="316" height="316">
<circle cx="158" cy="158" r="158" fill="#D9D9D9"/>
</mask>
<g mask="url(#mask0_3_30)">
<path d="M331.249 -15.2448H-15.2709V331.275H331.249V-15.2448Z" fill="#EDF9FC"/>
</g>
<path d="M241.099 81.8259V116.45C241.099 118.287 240.369 120.048 239.071 121.347C237.772 122.646 236.011 123.375 234.174 123.375C232.337 123.375 230.576 122.646 229.277 121.347C227.979 120.048 227.249 118.287 227.249 116.45V88.7508H199.549C197.713 88.7508 195.951 88.0212 194.653 86.7225C193.354 85.4238 192.625 83.6625 192.625 81.8259C192.625 79.9893 193.354 78.2279 194.653 76.9292C195.951 75.6305 197.713 74.9009 199.549 74.9009H234.174C236.011 74.9009 237.772 75.6305 239.071 76.9292C240.369 78.2279 241.099 79.9893 241.099 81.8259ZM116.45 227.249H88.7507V199.55C88.7507 197.713 88.0211 195.952 86.7225 194.653C85.4238 193.354 83.6624 192.625 81.8258 192.625C79.9892 192.625 78.2278 193.354 76.9291 194.653C75.6305 195.952 74.9009 197.713 74.9009 199.55V234.174C74.9009 236.011 75.6305 237.772 76.9291 239.071C78.2278 240.369 79.9892 241.099 81.8258 241.099H116.45C118.287 241.099 120.048 240.369 121.347 239.071C122.646 237.772 123.375 236.011 123.375 234.174C123.375 232.338 122.646 230.576 121.347 229.277C120.048 227.979 118.287 227.249 116.45 227.249ZM234.174 192.625C232.337 192.625 230.576 193.354 229.277 194.653C227.979 195.952 227.249 197.713 227.249 199.55V227.249H199.549C197.713 227.249 195.951 227.979 194.653 229.277C193.354 230.576 192.625 232.338 192.625 234.174C192.625 236.011 193.354 237.772 194.653 239.071C195.951 240.369 197.713 241.099 199.549 241.099H234.174C236.011 241.099 237.772 240.369 239.071 239.071C240.369 237.772 241.099 236.011 241.099 234.174V199.55C241.099 197.713 240.369 195.952 239.071 194.653C237.772 193.354 236.011 192.625 234.174 192.625ZM81.8258 123.375C83.6624 123.375 85.4238 122.646 86.7225 121.347C88.0211 120.048 88.7507 118.287 88.7507 116.45V88.7508H116.45C118.287 88.7508 120.048 88.0212 121.347 86.7225C122.646 85.4238 123.375 83.6625 123.375 81.8259C123.375 79.9893 122.646 78.2279 121.347 76.9292C120.048 75.6305 118.287 74.9009 116.45 74.9009H81.8258C79.9892 74.9009 78.2278 75.6305 76.9291 76.9292C75.6305 78.2279 74.9009 79.9893 74.9009 81.8259V116.45C74.9009 118.287 75.6305 120.048 76.9291 121.347C78.2278 122.646 79.9892 123.375 81.8258 123.375ZM206.474 192.625V123.375C206.474 119.702 205.015 116.179 202.418 113.582C199.821 110.985 196.298 109.526 192.625 109.526H123.375C119.702 109.526 116.179 110.985 113.582 113.582C110.985 116.179 109.525 119.702 109.525 123.375V192.625C109.525 196.298 110.985 199.821 113.582 202.418C116.179 205.015 119.702 206.474 123.375 206.474H192.625C196.298 206.474 199.821 205.015 202.418 202.418C205.015 199.821 206.474 196.298 206.474 192.625Z" fill="#006FD7"/>
</svg>
