<svg width="537" height="538" viewBox="0 0 537 538" fill="none" xmlns="http://www.w3.org/2000/svg">
<mask id="mask0_32_39163" style="mask-type:alpha" maskUnits="userSpaceOnUse" x="0" y="0" width="537" height="538">
<path d="M537 22.4063V134.438C537 140.38 534.643 146.079 530.447 150.281C526.25 154.483 520.559 156.844 514.625 156.844C508.691 156.844 503 154.483 498.804 150.281C494.607 146.079 492.25 140.38 492.25 134.438V44.8125H402.75C396.816 44.8125 391.125 42.4518 386.929 38.2499C382.732 34.0479 380.375 28.3488 380.375 22.4063C380.375 16.4637 382.732 10.7646 386.929 6.56264C391.125 2.36066 396.816 0 402.75 0H514.625C520.559 0 526.25 2.36066 530.447 6.56264C534.643 10.7646 537 16.4637 537 22.4063ZM134.25 492.938H44.75V403.313C44.75 397.37 42.3926 391.671 38.1965 387.469C34.0004 383.267 28.3092 380.906 22.375 380.906C16.4408 380.906 10.7496 383.267 6.55349 387.469C2.35736 391.671 0 397.37 0 403.313V515.344C0 521.286 2.35736 526.985 6.55349 531.187C10.7496 535.389 16.4408 537.75 22.375 537.75H134.25C140.184 537.75 145.875 535.389 150.072 531.187C154.268 526.985 156.625 521.286 156.625 515.344C156.625 509.401 154.268 503.702 150.072 499.5C145.875 495.298 140.184 492.938 134.25 492.938ZM514.625 380.906C508.691 380.906 503 383.267 498.804 387.469C494.607 391.671 492.25 397.37 492.25 403.313V492.938H402.75C396.816 492.938 391.125 495.298 386.929 499.5C382.732 503.702 380.375 509.401 380.375 515.344C380.375 521.286 382.732 526.985 386.929 531.187C391.125 535.389 396.816 537.75 402.75 537.75H514.625C520.559 537.75 526.25 535.389 530.447 531.187C534.643 526.985 537 521.286 537 515.344V403.313C537 397.37 534.643 391.671 530.447 387.469C526.25 383.267 520.559 380.906 514.625 380.906ZM22.375 156.844C28.3092 156.844 34.0004 154.483 38.1965 150.281C42.3926 146.079 44.75 140.38 44.75 134.438V44.8125H134.25C140.184 44.8125 145.875 42.4518 150.072 38.2499C154.268 34.0479 156.625 28.3488 156.625 22.4063C156.625 16.4637 154.268 10.7646 150.072 6.56264C145.875 2.36066 140.184 0 134.25 0H22.375C16.4408 0 10.7496 2.36066 6.55349 6.56264C2.35736 10.7646 0 16.4637 0 22.4063V134.438C0 140.38 2.35736 146.079 6.55349 150.281C10.7496 154.483 16.4408 156.844 22.375 156.844ZM425.125 380.906V156.844C425.125 144.959 420.41 133.561 412.018 125.157C403.626 116.753 392.243 112.031 380.375 112.031H156.625C144.757 112.031 133.374 116.753 124.982 125.157C116.59 133.561 111.875 144.959 111.875 156.844V380.906C111.875 392.791 116.59 404.19 124.982 412.593C133.374 420.997 144.757 425.719 156.625 425.719H380.375C392.243 425.719 403.626 420.997 412.018 412.593C420.41 404.19 425.125 392.791 425.125 380.906Z" fill="black"/>
</mask>
<g mask="url(#mask0_32_39163)">
<path d="M813.972 -293.962H-67.981V587.991H813.972V-293.962Z" fill="#006FD7"/>
<path d="M709.092 -22.3099C693.808 -14.0866 678.06 -6.74237 661.33 -1.8651C644.317 3.09723 628.22 10.1485 612.652 18.5608C604.835 22.7859 596.867 26.7557 588.606 30.0733C562.018 40.7825 535.278 51.123 509.493 63.7226C470.985 82.5417 432.373 101.143 393.809 119.868C381.88 125.662 369.479 129.055 356.057 128.545C347.815 128.233 339.828 130.001 332.087 132.902C319.317 137.685 307.02 143.536 294.761 149.462C248.417 171.873 203.416 196.902 157.554 220.239C116.665 241.053 75.1987 260.732 34.9802 282.869C21.0384 290.544 8.04174 299.24 -2.15703 311.707C-5.72046 316.064 -10.2859 319.42 -15.2104 322.142C-46.1281 339.25 -51.3927 341.878 -67.9716 351.368V363.722C-48.1695 352.209 -28.9064 341.547 -14.0289 333.881C-4.96435 329.212 2.83368 323.031 9.20437 315.062C14.2896 308.701 20.5374 303.72 27.4563 299.514C38.1183 293.03 49.1771 287.236 60.1982 281.385C106.173 256.97 153.462 235.155 199.399 210.664C239.126 189.492 278.872 168.348 319.771 149.462C333.316 143.215 347.087 138.46 362.333 138.8C373.855 139.056 384.725 135.728 395.085 130.861C409.877 123.913 424.651 116.938 439.377 109.839C476.694 91.852 513.273 72.2485 551.63 56.4919C579.75 44.9415 608.058 33.9298 634.865 19.4492C641.557 15.8291 648.75 13.2392 656.028 11.0558C675.877 5.11044 694.791 -3.05611 713.222 -12.4326C733.535 -22.7637 753.431 -33.9266 774.292 -43.1896C778.687 -45.1462 783.149 -46.942 787.629 -48.7096C787.629 -48.7285 787.629 -48.7473 787.638 -48.7662C794.699 -51.7153 803.971 -55.5906 813.981 -59.7684V-71.8009C804.491 -67.7081 794.709 -63.4075 784.897 -58.9934C759.093 -47.9345 733.865 -35.6279 709.101 -22.3005L709.092 -22.3099ZM742.798 -67.85C722.022 -56.5453 701.001 -45.6849 680.055 -34.711C670.111 -29.5029 659.847 -24.9849 648.542 -23.7845C637.653 -22.6313 627.662 -18.9734 618.068 -13.8977C605.27 -7.12055 592.633 0.0253004 579.296 5.68708C531.005 26.2075 483.121 47.6069 436.23 71.1898C416.38 81.1712 396.399 90.9163 376.502 100.813C372.381 102.864 368.071 104.376 363.713 105.822C359.29 107.297 357.267 110.898 358.543 114.357C359.772 117.694 363.817 118.724 368.127 116.796C368.392 116.683 368.657 116.56 368.893 116.418C375.519 112.363 382.778 109.603 389.716 106.181C434.576 84.0446 479.066 61.1234 524.843 40.9055C559.314 25.6782 594.391 11.7742 627.454 -6.49664C634.175 -10.2113 641.576 -11.9978 649.128 -13.1888C658.088 -14.5971 666.756 -16.979 675.055 -20.722C686.955 -26.0908 698.42 -32.3197 710.018 -38.2839C729.385 -48.2464 747.949 -59.8251 768.309 -67.7838C782.572 -73.3605 798.811 -80.0242 813.972 -86.3571V-97.038C808.196 -94.1362 803.433 -92.0094 795.436 -88.8524C777.865 -81.9146 759.547 -76.9429 742.798 -67.8311V-67.85ZM738.365 18.5985C737.968 18.797 737.571 18.9862 737.174 19.1752C729.328 23.0222 721.455 26.8029 713.496 30.4136C682.314 44.5728 650.621 57.6167 620.63 74.2996C614.458 77.7307 607.643 79.64 600.648 80.6986C588.928 82.4662 577.755 85.9445 567.15 91.2093C552.386 98.5347 537.631 105.869 522.924 113.289C483.131 133.365 443.716 154.236 402.174 170.635C392.003 174.652 383.015 180.257 375.557 188.339C370.453 193.859 364.309 198.112 357.853 201.902C351.18 205.825 344.478 209.71 337.72 213.491C295.186 237.291 253.039 261.819 209.484 283.719C182.725 297.179 154.511 307.491 127.478 320.431C103.442 331.944 79.7452 344.232 54.9619 354.118C41.6629 359.421 27.6358 362.984 14.5825 368.797C-8.43324 379.043 -38.4528 396.464 -67.9716 414.867V427.447C-47.2149 414.659 -55.1641 419.517 -2.10026 388.855C14.5637 379.233 32.759 373.59 50.6896 367.115C75.2744 358.239 98.4886 346.198 121.949 334.798C151.883 320.252 183.198 308.73 212.953 293.909C260.714 270.118 306.784 243.151 353.24 216.922C365.159 210.192 376.502 202.744 386.172 192.932C391.276 187.743 397.486 184.142 404.197 181.448C423.488 173.688 442.581 165.436 461.183 156.154C497.498 138.035 533.728 119.726 569.995 101.522C580.052 96.4741 590.487 92.5609 601.764 91.2849C611.461 90.1884 620.356 86.6912 628.948 82.2393C640.526 76.2278 651.822 69.5357 663.797 64.441C676.747 58.9305 689.545 53.108 702.305 47.1815C702.305 47.2099 702.305 47.2478 702.305 47.2762C707.456 44.8753 712.542 42.465 717.655 40.0264C717.882 39.913 718.118 39.809 718.345 39.6956C722.306 37.7957 726.294 35.877 730.349 33.9204C743.043 27.8144 755.709 21.6611 768.365 15.5078C781.693 9.09929 796.589 2.01966 813.953 -6.03349V-17.7162C812.734 -17.1869 811.438 -16.6293 809.964 -15.9865C785.615 -5.44749 762.127 6.90633 738.346 18.608L738.365 18.5985ZM768.337 -124.865C767.26 -122.955 767.118 -121.065 768.375 -119.194C769.698 -117.237 771.579 -116.226 773.886 -116.66C775.388 -116.944 776.976 -117.53 778.215 -118.409C788.196 -125.451 801.656 -132.483 813.962 -139.619V-152.172C798.073 -142.124 776.929 -130.413 771.315 -127.861C770.001 -127.266 769.046 -126.15 768.318 -124.865H768.337ZM772.137 -105.885C758.961 -104.127 747.212 -98.7677 735.709 -92.4348C707.475 -76.9051 679.771 -60.3923 650.574 -46.6679C646.538 -44.768 644.988 -41.1101 646.557 -37.972C648.116 -34.8434 651.916 -34.0306 655.905 -36.2234C658.911 -37.8775 661.642 -40.0326 664.686 -41.6205C691.605 -55.6946 718.118 -70.4965 744.707 -85.185C751.626 -89.0131 758.743 -92.6332 766.57 -93.8998C782.903 -96.5464 797.034 -102.785 813.972 -111.953V-124.269C804.86 -119.373 793.621 -113.381 792.393 -112.738C786.003 -109.401 779.302 -106.84 772.128 -105.885H772.137ZM122.45 64.1386C177.347 38.032 232.651 12.7383 286.972 -14.5498C333.987 -38.1705 380.576 -62.623 428.725 -83.9469C486.288 -109.439 543.7 -135.234 597.472 -168.382C626.641 -186.36 656.907 -202.58 684.639 -222.864C686.823 -224.461 688.968 -226.096 691.133 -227.713C691.142 -227.713 691.152 -227.713 691.171 -227.713C692.182 -228.469 693.174 -229.235 694.176 -229.991C699.403 -233.923 704.621 -237.855 709.838 -241.796C724.347 -252.742 738.998 -263.479 754.849 -272.525C758.725 -274.737 759.613 -278.735 757.496 -281.656C755.501 -284.397 751.409 -284.756 747.892 -281.911C737.278 -273.319 725.321 -266.646 714.489 -258.385C707.787 -253.271 701.067 -248.195 694.29 -243.195C694.167 -243.101 694.044 -243.016 693.921 -242.921C687.617 -238.261 681.265 -233.668 674.866 -229.14C659.241 -218.091 643.296 -207.514 626.689 -197.863C582.547 -172.22 538.945 -145.688 492.375 -124.439C449.595 -104.921 406.153 -86.7824 364.177 -65.5815C296.982 -31.6486 229.598 1.859 161.43 33.807C132.1 47.5503 102.402 60.613 74.7829 77.759C22.5319 110.189 -31.6757 138.129 -67.9716 157.364V169.69C-27.7058 148.139 7.24782 129.991 47.2773 106.786C72.2024 92.3435 96.343 76.5491 122.45 64.1291V64.1386ZM20.9816 350.007C33.5623 348.126 45.453 344.109 56.89 338.57C98.9516 318.191 141.042 297.869 183.614 278.559C221.384 261.422 256.877 239.843 293.57 220.608C316.661 208.509 338.741 194.426 363.146 184.86C364.176 184.454 365.207 183.726 365.906 182.885C367.428 181.051 368.279 178.991 367.078 176.543C365.906 174.142 363.912 173.357 361.445 173.395C359.687 173.423 358.014 173.971 356.568 174.907C349.79 179.274 342.276 182.214 335.206 186.023C291.15 209.776 247.519 234.342 202.915 257.017C153.982 281.905 103.385 303.408 54.3096 328.068C44.555 332.974 34.5737 337.539 23.5809 338.749C10.452 340.186 -1.33455 345.035 -12.6392 351.51C-40.1353 367.257 -55.7312 375.962 -67.9811 383.023V395.651C-46.5627 382.824 -24.549 370.291 -2.44064 358.239C4.91307 354.232 12.626 351.254 20.9721 350.007H20.9816ZM101.532 43.4102C155.758 17.8896 209.938 -7.71596 263.834 -33.9171C310.375 -56.5453 356.275 -80.4873 403.734 -101.235C470.096 -130.243 536.062 -160.008 598.361 -197.315C616.046 -207.901 633.872 -218.242 651.217 -229.319C651.236 -229.319 651.255 -229.319 651.283 -229.319C651.841 -229.679 652.389 -230.047 652.946 -230.407C653.684 -230.879 654.412 -231.361 655.149 -231.843C667.588 -239.896 679.771 -248.356 691.378 -257.714C723.931 -283.962 738.998 -290.711 749.953 -293.991H724.744C714.177 -288.092 703.884 -280.89 694.101 -273.319C683.666 -265.237 673.675 -256.541 662.625 -249.311C654.572 -244.027 646.425 -238.895 638.277 -233.771C588.767 -202.599 537.66 -174.261 484.634 -149.355C438.441 -127.663 391.049 -108.56 345.253 -86.0357C274.751 -51.3656 204.323 -16.5442 133.055 16.5191C104.254 29.8749 76.4275 44.6674 49.7065 61.9363C13.1176 85.5854 -22.8002 103.043 -67.9716 126.437V138.649C-26.9591 117.373 12.522 96.9372 48.2036 75.6984C66.0585 65.0649 82.6374 52.2951 101.532 43.4007V43.4102ZM65.3497 33.3344C74.4615 26.2737 84.3862 20.5835 94.8969 15.848C134.643 -2.0447 173.821 -21.1285 213.104 -40.0043C274.476 -69.4852 335.036 -100.686 397.854 -127.114C470.427 -157.645 540.93 -192.258 609.051 -231.673C609.079 -231.673 609.108 -231.673 609.136 -231.673C616.896 -236.163 624.637 -240.681 632.331 -245.294C660.735 -262.336 679.753 -280.209 698.865 -293.991H680.896C669.015 -284.34 660.461 -275.181 642.284 -264.027C624.779 -253.29 607.075 -242.931 589.258 -232.788C589.306 -232.788 589.353 -232.788 589.4 -232.788C542.565 -206.077 494.624 -181.454 445.209 -159.582C398.289 -138.816 350.887 -119.127 304.733 -96.6409C235.402 -62.8593 166.364 -28.4633 96.1066 3.3618C80.9927 10.2051 66.7392 18.2772 53.752 28.6273C46.1148 34.7144 37.9104 40.0169 29.4414 44.8753C1.123 61.1328 -22.0535 72.8533 -67.9716 96.2188V108.299C-34.7193 91.3132 -13.2916 80.5002 16.0193 64.6585C33.2031 55.3766 49.8862 45.3101 65.3497 33.3154V33.3344ZM34.2712 -0.891628C35.5189 -2.87656 35.774 -4.89921 34.4129 -6.94085C33.0991 -8.90688 31.1805 -9.83329 28.8931 -9.53083C27.5131 -9.35124 26.0669 -8.85017 24.8665 -8.12236C12.2102 -0.475645 -1.4197 5.25228 -14.6148 11.8215C-16.7226 12.8706 -35.3998 21.8595 -67.9716 37.9091V49.7337C-23.7265 28.0223 18.5525 7.45462 30.7267 2.14256C32.1918 1.49982 33.4111 0.497834 34.2807 -0.882167L34.2712 -0.891628ZM774.575 -155.953C767.184 -151.236 760.208 -146.047 754.065 -139.894C752.013 -137.842 750.057 -135.678 748.204 -133.4C742.439 -126.273 735.331 -120.772 727.4 -116.254C724.347 -114.515 721.294 -112.785 718.251 -111.046C698.383 -99.7128 678.543 -88.3327 658.608 -77.1131C646.264 -70.1658 634.836 -62.1693 625.507 -51.3562C620.384 -45.4203 613.909 -41.129 607.028 -37.4711C589.807 -28.3215 572.519 -19.2853 554.617 -11.5347C493.301 15.0351 432.846 43.3913 373.723 74.5642C361.492 81.0105 349.753 88.0712 339.847 97.9108C334.818 102.911 328.788 106.522 322.2 109.206C304.411 116.456 286.821 124.169 269.533 132.543C216.1 158.432 163.869 186.656 111.135 213.878C64.6691 237.868 17.2953 260.269 -23.651 293.767C-23.651 293.767 -41.5248 303.559 -67.9811 319.004V331.566C-64.1057 329.392 -59.0583 326.585 -52.13 322.775C-36.8176 314.354 -20.9382 306.82 -7.46897 295.402C8.69406 281.687 26.5962 270.647 45.1506 260.543C94.254 233.803 144.378 209.02 193.879 183.036C237.406 160.181 280.932 137.269 326.671 118.961C334.469 115.841 341.548 111.512 347.409 105.416C354.45 98.0999 362.674 92.4475 371.615 87.7214C418.497 62.8909 466.06 39.4309 514.531 17.8613C547.66 3.11613 581.073 -11.0147 612.907 -28.4916C620.63 -32.7356 627.898 -37.5561 633.57 -44.4088C640.612 -52.9251 649.081 -59.6173 658.693 -65.0333C678.184 -76.0071 697.617 -87.0944 717.069 -98.1344C721.805 -100.819 726.531 -103.513 731.276 -106.187C741.503 -111.963 750.652 -118.929 757.789 -128.4C758.942 -129.931 760.18 -131.387 761.485 -132.767C765.388 -136.907 769.897 -140.413 774.708 -143.542C794.538 -156.472 805.474 -163.155 813.981 -169.46V-183.383C805.947 -176.936 794.245 -168.533 774.604 -155.99L774.575 -155.972V-155.953ZM790.446 -226.994C790.001 -226.588 789.519 -226.229 789.066 -225.832C774.112 -212.391 757.118 -201.615 741.257 -189.366C733.497 -183.373 725.765 -177.333 717.967 -171.416C702.948 -160.017 687.617 -149.053 671.075 -139.752C645.073 -125.129 619.751 -109.363 595.449 -92.0094C587.51 -86.3382 579.031 -81.4893 570.42 -76.905C540.779 -61.139 510.022 -47.7455 479.501 -33.8415C433.838 -13.0375 388.242 7.94604 344.894 33.3626C322.512 46.4821 300.829 60.7547 276.707 70.7361C264.136 75.9347 251.867 81.8896 239.551 87.6932C106.825 150.247 9.51639 208.878 -67.9527 254.068V266.961C-46.2319 254.891 -44.3414 253.747 -36.5151 248.926C54.7823 192.668 149.445 142.647 246.149 96.4079C268.002 85.954 290.696 77.2675 311.973 65.6225C330.593 55.4332 348.023 43.2307 366.71 33.1075C416.806 5.9612 468.811 -17.1775 520.599 -40.8077C547.858 -53.2466 575.232 -65.5342 600.204 -82.3494C614.004 -91.6408 627.35 -101.603 641.689 -110.091C672.144 -128.135 702.834 -145.763 730.85 -167.531C734.839 -170.632 738.781 -173.817 742.656 -177.106C745.709 -179.696 748.875 -182.154 752.061 -184.592C753.252 -185.5 754.433 -186.417 755.634 -187.305C755.851 -187.466 756.069 -187.627 756.286 -187.787C769.528 -197.542 783.375 -206.531 795.71 -217.504C803.612 -224.537 808.773 -229.556 814 -234.291V-248.214C812.1 -246.617 810.191 -244.972 808.263 -243.252C802.27 -237.902 796.391 -232.42 790.474 -226.994H790.446ZM785.757 -192.135C785.757 -192.135 785.757 -192.192 785.757 -192.211C777.506 -186.152 768.942 -180.509 760.577 -174.611C757.581 -172.503 754.613 -170.348 751.692 -168.127C751.04 -167.626 750.397 -167.106 749.754 -166.596C746.361 -163.94 743.025 -161.208 739.849 -158.278C739.849 -158.278 739.849 -158.278 739.839 -158.278C736.436 -155.13 732.901 -152.191 729.329 -149.308C726.02 -146.671 722.646 -144.119 719.224 -141.652C709.092 -134.326 698.505 -127.644 687.607 -121.377C660.395 -105.724 632.927 -90.516 608.512 -70.402C591.773 -56.6114 571.772 -48.1329 552.32 -38.9739C507.971 -18.0943 462.743 0.913706 418.932 22.9654C391.918 36.5669 364.347 49.2705 339.544 66.7663C323.381 78.1749 306.368 87.6931 288.069 95.1036C280.63 98.1093 273.342 101.503 266.074 104.915C205.164 133.46 145.73 164.888 86.4087 196.562C50.7461 215.608 14.7243 234.049 -18.4997 257.31C-31.4395 266.365 -44.8803 274.608 -58.8315 282.018C-61.5254 283.455 -64.6634 285.156 -67.9905 286.98V299.514C-43.5381 285.638 -22.0347 273.275 -4.07583 260.552C2.9376 255.581 10.2819 251.053 17.6923 246.686C56.4836 223.774 96.5982 203.273 136.41 182.252C186.629 155.738 236.999 129.528 288.9 106.399C305.139 99.1584 321.765 92.7594 336.17 81.9746C349.639 71.8987 364.073 63.3635 378.903 55.4521C430.436 27.956 483.632 3.97628 536.828 -20.0509C568.691 -34.4463 600.705 -48.5961 627.775 -71.7253C644.969 -86.4138 665.414 -96.3763 684.913 -107.615C699.063 -115.772 713.175 -123.957 726.351 -133.504C726.597 -133.684 726.833 -133.863 727.079 -134.043C729.243 -135.621 731.389 -137.219 733.487 -138.873C734.3 -139.516 735.085 -140.196 735.888 -140.848C737.429 -142.105 738.979 -143.344 740.491 -144.648C742.817 -146.661 745.104 -148.75 747.335 -150.905C754.14 -157.503 762.004 -162.862 769.812 -168.24C781.041 -175.963 792.44 -183.439 803.036 -192.05C807.28 -195.5 810.588 -198.487 813.953 -201.578V-215.68C806.59 -209.168 798.433 -202.003 792.345 -197.173C790.171 -195.453 787.969 -193.78 785.729 -192.135H785.757ZM649.383 514.369C636.122 520.115 621.821 523.15 608.512 528.906C581.262 540.693 555.278 555.031 528.756 568.302C513.963 575.703 501.477 581.97 489.293 587.981H513.481C546.989 571.185 576.215 555.513 605.459 541.694C620.167 534.747 636.056 531.08 651.103 525.144C676.274 515.219 699.498 501.438 722.457 487.317C732.76 480.974 742.807 474.235 752.807 467.42C752.807 467.42 752.855 467.392 752.874 467.373C762.061 461.116 771.229 454.83 780.474 448.658C781.135 448.223 781.797 447.788 782.449 447.354C788.716 443.185 795.02 439.092 801.438 435.151C805.399 432.712 808.688 430.689 811.514 428.95C812.318 428.534 813.13 428.119 813.972 427.778V414.857C786.674 430.983 760.681 449.093 734.414 466.796C707.4 485.001 679.308 501.4 649.374 514.369H649.383ZM729.139 236.809C729.139 236.809 729.149 236.724 729.158 236.686C725.916 238.529 722.721 240.438 719.498 242.3C717.06 243.709 714.583 245.061 712.154 246.488C712.154 246.516 712.154 246.544 712.154 246.573C678.561 266.139 645.602 286.725 614.269 309.921C587.689 329.59 559.163 346.056 529.512 360.659C496.089 377.125 462.657 393.59 429.537 410.661C383.166 434.565 335.801 456.626 290.658 482.808C237.472 513.65 185.362 546.364 130.143 573.633C122.383 577.461 130.626 572.99 103.385 587.981H125.966C128.754 586.469 130.607 585.467 130.607 585.467C157.498 570.693 185.353 557.725 211.809 542.177C242.33 524.227 271.887 504.576 303.145 487.941C369.829 452.448 437.298 418.459 504.937 384.809C535.344 369.676 566.318 355.546 594.589 336.509C617.898 320.809 640.517 304.07 664.015 288.672C683.486 275.912 703.439 263.974 723.572 252.339C752.335 235.637 783.612 218.311 814 201.619V189.454C797.062 198.783 776.438 210.211 750.548 224.644C743.384 228.642 736.285 232.754 729.158 236.818L729.139 236.809ZM741.645 164.784C741.645 164.784 741.663 164.69 741.673 164.652C731.342 170.228 721.058 175.909 710.812 181.647C710.424 181.864 710.027 182.072 709.64 182.289C709.64 182.289 709.64 182.308 709.64 182.318C685.811 195.702 662.266 209.606 639.336 224.597C606.442 246.091 574.447 269.078 539.909 287.907C472.932 324.42 405.482 360.073 338.618 396.804C313.873 410.396 288.04 422.069 264.826 438.374C236.479 458.28 206.592 475.653 175.806 491.41C118.347 520.815 61.2475 550.844 6.0286 584.333C-0.398799 588.236 -0.143713 587.906 -0.474535 587.981H20.4806C54.4702 567.829 101.22 541.676 138.972 522.45C184.351 499.349 229.56 475.965 271.452 446.758C279.221 441.342 287.227 436.266 295.611 431.852C347.238 404.659 398.374 376.529 449.614 348.627C485.749 328.948 522.829 310.998 558.18 289.892C591.811 269.806 623.749 247.093 656.841 226.175C683.637 209.237 711.133 193.547 738.932 178.405C738.932 178.367 738.951 178.329 738.951 178.291C764.178 164.529 789.349 151.447 813.972 138.668V126.456C808.631 129.216 803.244 132.023 797.629 134.972C778.914 144.812 760.246 154.746 741.645 164.794V164.784ZM-4.43489 -249.207C-4.43489 -249.207 -4.38757 -249.197 -4.36866 -249.197C5.05504 -254.972 14.5542 -260.644 24.0441 -266.315C41.5209 -276.75 55.9448 -284.983 72.0984 -293.991H50.3398C41.814 -289.142 33.5908 -284.397 26.3032 -280.039C18.2973 -275.247 10.2629 -270.493 2.27593 -265.682C2.26648 -265.682 2.24777 -265.682 2.23832 -265.682C-4.92635 -261.381 -12.0343 -256.995 -19.0856 -252.505C-19.2368 -252.411 -19.3975 -252.316 -19.5487 -252.222C-30.4659 -245.256 -41.1845 -237.987 -51.4589 -230.019C-54.4457 -227.694 -60.8448 -222.004 -67.9905 -215.69V-201.587C-62.376 -206.748 -56.6199 -212.202 -46.1659 -220.605C-32.9614 -231.21 -18.8304 -240.407 -4.45382 -249.216L-4.43489 -249.207ZM802.667 485.067C799 487.487 796.533 489.141 795.635 489.774C790.011 493.735 784.292 497.534 778.574 501.325C774.717 503.858 770.851 506.382 766.967 508.849C746.077 522.119 724.574 534.35 702.229 545.286C653.844 568.964 663.287 574.2 645.101 587.972H661.019C668.533 580.363 672.059 574.124 683.751 567.414C691.086 563.207 698.401 558.944 705.944 555.135C727.249 544.388 748.686 533.934 768.744 520.966C772.657 518.433 776.542 515.834 780.332 513.083C780.332 513.083 780.341 513.083 780.351 513.074C791.249 505.172 802.743 498.092 813.972 490.644V477.714C811.921 479.037 809.955 480.303 808.197 481.447C806.344 482.638 804.51 483.857 802.667 485.058V485.067ZM701.284 8.69277C700.471 9.07086 699.668 9.47727 698.846 9.8459C677.815 19.3547 655.65 26.1696 635.082 36.7843C622.218 43.4196 609.713 50.9908 595.79 55.2064C564.749 64.5923 535.76 78.6665 506.855 93.0147C471.665 110.482 436.683 128.394 400.624 144.046C388.629 149.254 376.37 152.572 363.137 152.317C354.923 152.156 346.898 153.924 339.176 156.892C328.315 161.06 318.041 166.495 307.691 171.741C244.532 203.783 183.009 239.002 118.65 268.747C86.5317 283.597 55.1888 300.128 23.5055 315.923C19.545 317.898 17.9853 321.528 19.6016 324.675C21.2557 327.898 24.7815 328.664 28.9309 326.424C32.3337 324.59 35.4716 322.255 38.9027 320.497C56.6442 311.404 74.4048 302.359 92.2219 293.408C136.174 271.337 181.204 251.478 224.371 227.82C259.448 208.585 294.827 189.898 330.678 172.119C341.822 166.589 353.316 162.138 366.039 162.638C377.617 163.102 388.497 160.493 399.102 156.107C432.524 142.288 464.633 125.709 497.073 109.82C523.973 96.6442 550.127 81.6722 578.691 72.3336C600.327 65.254 621.15 56.6904 641.112 45.83C646.264 43.0227 651.623 40.499 657.105 38.4196C672.153 32.72 686.945 26.4533 701.596 19.8746C711.341 15.4983 721.03 10.9896 730.633 6.30138C730.699 6.27302 730.765 6.24469 730.831 6.20688C740.463 1.49975 750.057 -3.32077 759.575 -8.29255C761.192 -9.13378 762.827 -9.92772 764.443 -10.7406C775.436 -16.1283 794.652 -24.8148 813.972 -33.3784V-44.6169C802.459 -39.6829 795.436 -37.0646 774.878 -27.5748C750.047 -16.1094 726.153 -2.73478 701.284 8.67385V8.69277ZM777.922 564.644C776.022 565.949 774.075 567.168 772.099 568.312C770.152 569.427 768.167 570.467 766.144 571.421C761.863 573.444 757.392 575.089 752.704 576.289C743.27 578.709 733.903 582.858 724.735 587.972H749.943C755.151 586.412 759.443 585.628 764.226 583.926C766.948 582.953 769.585 581.809 772.165 580.514C772.515 580.344 772.874 580.174 773.224 579.994C775.833 578.633 778.394 577.159 780.861 575.495C790.569 568.945 800.219 562.319 809.926 555.769C810.909 555.107 811.902 554.455 812.885 553.793C813.225 553.661 813.575 553.566 813.972 553.538V540.154C812.828 540.929 811.599 541.761 810.266 542.659C799.472 549.975 788.678 557.29 777.922 564.663V564.644ZM52.0317 11.2544C59.1208 3.42806 67.7221 -2.0353 77.3254 -6.1753C108.007 -19.3987 138.046 -33.9928 168.122 -48.5206C220.789 -73.9466 272.775 -100.79 326.179 -124.657C376.162 -146.992 427.023 -167.323 476.618 -190.566C505.749 -204.215 534.314 -218.903 562.547 -234.216H562.764C568.351 -237.231 573.87 -240.378 579.438 -243.46C580.421 -243.999 581.404 -244.528 582.387 -245.067C582.377 -245.067 582.359 -245.067 582.349 -245.067C601.82 -255.87 621.178 -266.882 640.337 -278.262C650.47 -284.283 656.463 -289.378 661.009 -293.981H645.092C642.275 -291.845 638.816 -289.52 634.354 -286.873C606.962 -270.644 579.211 -255.086 551.167 -240.123C508.443 -217.315 464.945 -196.01 420.341 -176.851C360.301 -151.056 300.101 -125.678 241.546 -96.5181C184.852 -68.2753 128.13 -40.042 70.0758 -14.6159C61.7485 -10.9674 53.7898 -6.55337 47.7877 0.450606C39.3092 10.3469 28.7512 17.2563 17.3992 23.3245C-2.41229 33.9203 -34.5397 50.1212 -67.9811 66.8703V78.8271C-32.205 60.8304 8.28753 40.291 25.5281 30.8957C35.2826 25.5836 44.5268 19.5626 52.0317 11.2732V11.2544ZM33.7608 -20.7787C43.7611 -21.497 53.166 -24.2949 62.2873 -28.3593C110.493 -49.8438 157.649 -73.5117 205.013 -96.7638C242.85 -115.347 280.063 -135.319 319.251 -150.953C384.914 -177.144 449.538 -205.5 512.753 -236.853C512.782 -236.853 512.81 -236.853 512.839 -236.853C518.585 -239.698 524.304 -242.609 530.032 -245.511C531.119 -246.059 532.206 -246.588 533.293 -247.146C533.293 -247.146 533.283 -247.146 533.274 -247.146C560.628 -261.05 587.718 -275.521 614.467 -290.73C616.603 -291.939 618.503 -293.026 620.214 -293.991H598.833C576.186 -281.618 537.499 -260.993 504.209 -244.358C464.387 -224.575 423.98 -205.973 382.863 -188.855C333.382 -168.269 283.702 -148.221 235.742 -124.109C178.377 -95.2704 120.966 -66.5172 62.429 -40.0798C52.561 -35.6279 42.4661 -32.2252 31.6246 -31.1004C21.1423 -30.0134 11.1044 -27.0454 1.53887 -22.6502C-14.6052 -15.2303 -30.6645 -7.61197 -46.8275 -0.229915C-47.8483 0.233236 -60.9109 6.37708 -67.9432 9.69475V21.5949C-47.8954 12.0388 -25.9857 1.66052 -2.90378 -9.19045C8.80732 -14.6915 20.6414 -19.8524 33.7892 -20.7976L33.7608 -20.7787ZM-19.2935 -133.249C-9.00966 -134.884 0.659841 -138.551 9.81889 -143.419C38.1845 -158.486 66.4839 -173.685 94.8307 -188.789C135.9 -210.671 176.808 -232.855 218.539 -253.441C223.861 -256.078 229.154 -258.791 234.513 -261.362C252.085 -269.784 255.913 -280.71 277.151 -293.981H258.89C249.466 -285.843 243.653 -277.724 227.774 -270.096C217.641 -265.218 207.584 -260.19 197.565 -255.086C197.414 -255.01 197.253 -254.925 197.102 -254.85C190.136 -251.305 183.188 -247.742 176.26 -244.121C176.307 -244.121 176.364 -244.121 176.411 -244.121C161.402 -236.295 146.42 -228.393 131.476 -220.435C88.961 -197.806 46.5401 -174.989 4.05304 -152.314C-2.92258 -148.589 -10.163 -145.253 -18.046 -144.194C-31.7798 -142.351 -44.4266 -137.757 -56.2512 -130.64C-57.0262 -130.177 -62.0546 -127.455 -67.9716 -124.279V-111.963C-62.7352 -114.798 -57.2626 -117.889 -51.3361 -121.273C-41.298 -127.01 -30.8156 -131.415 -19.2935 -133.249ZM40.2072 -75.9316C69.7921 -88.1436 98.0915 -103.031 126.646 -117.369C170.976 -139.629 215.042 -162.408 259.58 -184.252C280.384 -194.451 302.729 -200.547 324.204 -208.941C350.566 -219.244 376.597 -230.312 402.438 -241.806C402.495 -241.806 402.542 -241.806 402.599 -241.806C408.015 -244.207 413.384 -246.721 418.781 -249.159C420.586 -249.972 422.392 -250.776 424.188 -251.589C424.169 -251.589 424.159 -251.589 424.14 -251.589C444.254 -260.748 464.302 -270.058 484.246 -279.614C494.417 -284.491 504.095 -289.274 513.491 -293.981H489.303C473.669 -286.278 458.536 -279.009 439.784 -270.436C425.067 -263.716 410.331 -257.033 395.557 -250.435C369.262 -238.687 342.796 -227.306 315.81 -217.183C295.971 -209.735 275.507 -203.96 256.385 -194.621C207.32 -170.651 158.897 -145.414 110.067 -120.98C83.0438 -107.464 56.408 -93.0113 27.9195 -82.6802C5.70715 -74.6271 -17.0534 -68.1051 -38.5002 -57.982C-52.527 -51.3655 -61.0527 -47.5659 -67.9527 -44.5979V-33.3594C-40.3716 -45.5715 -12.5638 -57.5189 -8.10241 -59.2108C7.85266 -65.2412 24.4506 -69.4191 40.2356 -75.9316H40.2072ZM766.484 32.9184C766.484 32.9184 766.484 32.8995 766.484 32.89C755.501 38.2777 744.518 43.6654 733.487 48.9585C723.355 53.8169 713.184 58.5808 703.005 63.3541C680.338 73.9782 657.682 84.6402 635.64 96.5592C627.473 100.973 620.025 106.266 614.221 113.573C607.794 121.683 599.93 128.025 591.035 133.186C548.841 157.657 506.156 181.174 462.081 202.12C442.544 211.402 422.127 219.105 404.253 231.535C362.371 260.656 317.899 285.43 273.437 310.242C253.55 321.339 233.956 333.078 211.79 339.487C203.539 341.868 195.297 344.543 187.461 348.003C138.017 369.809 89.2254 393.061 40.0936 415.576C6.23635 431.086 -41.8367 460.908 -67.9811 477.732V490.474C-34.6248 468.999 11.1704 441.493 44.4606 425.16C74.8206 410.254 106.305 397.73 136.769 382.994C159.086 372.2 180.939 360.12 204.777 353.003C229.022 345.763 251.517 335.082 273.408 322.652C317.171 297.794 361.549 273.974 402.987 245.221C414.566 237.187 426.759 230.23 439.613 224.446C490.815 201.439 540.155 174.87 588.767 146.882C601.017 139.831 612.69 132.099 621.821 121.078C627.218 114.575 633.853 109.641 641.311 105.737C661.85 94.9996 682.465 84.4227 703.572 74.8477C703.751 74.7627 703.931 74.6776 704.11 74.602C724.253 65.4807 744.111 55.783 763.914 45.9718C763.932 45.8394 763.951 45.7071 763.98 45.5747C778.64 38.514 795.521 30.4231 813.962 21.6327V9.73248C811.618 10.8384 809.945 11.6324 809.605 11.7931C795.219 18.816 780.852 25.8955 766.475 32.9373L766.484 32.9184ZM-39.2374 -161.265C-30.6172 -172.947 -19.6434 -181.596 -7.40297 -189.025C24.1858 -208.194 56.323 -226.361 88.6963 -244.14C88.7719 -244.14 88.8475 -244.14 88.9231 -244.14C109.841 -255.653 130.815 -267.071 151.864 -278.357C167.848 -286.92 175.561 -291.079 178.869 -292.866C175.891 -291.231 171.931 -289 181.742 -293.972H158.604C137.441 -282.865 114.916 -270.701 89.5658 -256.693C89.4996 -256.693 89.424 -256.693 89.3484 -256.693C62.514 -241.947 35.8308 -226.938 9.39336 -211.474C-12.3936 -198.723 -34.2845 -186.199 -49.9938 -165.452C-52.0449 -162.739 -59.2285 -157.701 -67.9811 -152.162V-139.61C-55.7879 -146.68 -44.7102 -153.854 -39.2469 -161.255L-39.2374 -161.265ZM758.677 94.527C758.318 94.7066 757.959 94.8956 757.6 95.0752C740.539 103.629 724.905 111.503 712.504 117.874C710.462 118.923 708.411 119.972 706.36 121.021C648.532 150.568 652.275 151.542 619.543 173.811C588.313 195.059 555.704 214.105 522.669 232.461C494.596 248.057 465.039 260.883 437.373 277.179C377.835 312.255 318.542 347.738 257.208 379.658C250.289 383.259 244.145 388.023 239.164 394.082C232.216 402.532 223.719 408.94 214.22 414.233C193.803 425.604 173.198 436.635 152.129 446.739C95.2181 474.046 39.3471 503.262 -14.3028 536.571C-27.271 544.625 -50.438 559.332 -67.9716 571.005V583.917C-65.4385 582.197 -63.6143 580.958 -63.6049 580.949C-10.4559 545.22 44.5646 512.658 101.664 483.649C139.369 464.49 177.744 446.654 214.711 426.039C225.534 420.009 236.035 413.553 244.277 404.091C251.366 395.944 260.005 389.97 269.542 385.046C303.967 367.295 337.654 348.211 371.171 328.815C406.909 308.134 441.627 285.704 478.735 267.386C612.482 201.345 618.853 178.868 707.078 132.723C721.342 125.265 735.699 118.006 750.095 110.813C751.938 109.887 753.79 108.97 755.634 108.053C766.541 102.608 789.122 91.3322 813.972 78.8271V66.8703C795.323 76.2089 776.258 85.7271 758.677 94.5365V94.527ZM725.765 271.885C725.765 271.885 725.765 271.857 725.765 271.848C724.527 272.575 723.298 273.322 722.06 274.05C719.319 275.657 716.559 277.235 713.827 278.861C713.827 278.889 713.827 278.908 713.827 278.937C688.307 294.098 663.24 309.977 639.383 327.804C616.149 345.158 592.292 361.652 566.139 374.374C499.615 406.738 433.186 439.3 367.012 472.401C321.34 495.247 275.753 518.187 233.086 546.43C217.632 556.657 201.592 565.816 185.107 574.238C176.44 578.662 167.64 583.227 158.585 587.981H181.742C183.085 587.301 184.673 586.488 186.572 585.514C202.792 577.215 218.898 568.718 234.012 558.491C256.253 543.443 279.259 529.643 303.05 517.233C377.041 478.63 451.759 441.465 527.102 405.594C568.256 386.01 608.408 365.017 644.855 337.36C670.452 317.936 697.532 300.743 725.321 284.655C728.459 282.831 731.578 280.959 734.745 279.173C734.745 279.173 778.687 254.201 813.972 234.143V221.846C784.755 238.331 762.241 250.949 759.594 252.452C748.28 258.87 736.994 265.345 725.765 271.895V271.885ZM-2.70509 -279.935C3.93971 -284.075 11.8131 -288.839 20.4806 -293.981H-0.474535C-0.947138 -293.858 -2.658 -292.847 -28.1597 -276.514C-42.0542 -267.619 -54.7955 -259.273 -67.9811 -248.224V-234.282C-57.8296 -243.479 -47.4323 -251.626 -16.4484 -271.296C-12.2612 -273.952 -7.72415 -276.807 -2.71455 -279.935H-2.70509ZM749.792 129.122C749.792 129.122 749.792 129.084 749.802 129.065C746.38 130.842 742.958 132.638 739.546 134.424C738.913 134.755 738.289 135.076 737.656 135.407C728.071 140.426 718.534 145.521 709.045 150.701C708.742 150.861 708.439 151.022 708.146 151.183C677.522 167.932 647.474 185.673 618.739 205.74C600.289 218.623 580.903 230.126 561.744 241.951C527.659 262.982 491.524 280.241 456.542 299.618C413.403 323.513 370.576 347.974 327.578 372.134C298.135 388.685 267.397 402.863 240.884 424.565C220.76 441.039 196.922 452.07 173.822 463.866C123.641 489.472 73.1666 514.501 24.687 543.292C7.89065 553.264 -22.4979 571.327 -47.7916 587.953H-28.0177C-26.4298 586.923 -24.8513 585.921 -23.339 584.957C-3.35736 572.291 17.0118 560.249 37.3999 548.245C83.8946 520.872 132.355 497.223 180.249 472.496C204.834 459.811 229.608 447.25 251.48 430.085C266.565 418.241 282.501 407.957 299.591 399.337C308.551 394.819 317.304 389.894 326.141 385.149C380.462 355.999 432.855 323.342 487.762 295.27C536.478 270.354 583.474 242.556 628.777 211.969C654.742 194.435 681.416 178.168 708.789 163.083C715.302 159.491 721.824 155.909 728.421 152.468C728.431 152.468 728.449 152.459 728.459 152.449C734.347 149.377 740.264 146.343 746.163 143.29C746.163 143.262 746.172 143.233 746.181 143.215C774.415 128.536 795.899 117.524 813.972 108.289V96.2095C800.843 102.892 785.946 110.482 768.422 119.462C762.193 122.656 755.993 125.889 749.792 129.103V129.122ZM141.599 -255.426C124.661 -246.418 107.761 -237.354 90.9363 -228.129C53.6007 -207.665 16.4257 -186.908 -20.8154 -166.284C-24.738 -164.11 -26.3826 -160.074 -24.5394 -157.04C-22.7341 -154.062 -19.0288 -153.618 -14.9928 -156.075C-11.8169 -158.013 -8.86793 -160.348 -5.63532 -162.191C43.5627 -190.216 93.1481 -217.514 143.14 -244.084H143.216C147.526 -246.38 151.798 -248.725 156.108 -251.003C158.793 -252.42 161.496 -253.829 164.18 -255.247C185.211 -266.315 206.289 -277.289 227.301 -288.404C227.556 -288.537 230.609 -290.72 235.288 -294H214.21C211.025 -291.883 209.172 -290.635 208.813 -290.455C186.345 -279.047 164.048 -267.298 141.817 -255.436C141.741 -255.436 141.666 -255.436 141.59 -255.436L141.599 -255.426ZM809.378 353.986C801.949 358.268 794.586 362.625 787.251 367.049C783.404 369.365 779.585 371.737 775.766 374.091C772.628 376.028 769.481 377.956 766.352 379.922C761.343 383.07 756.352 386.265 751.39 389.478C749.811 390.499 748.242 391.53 746.673 392.55C734.943 400.216 723.308 408.023 711.842 416.114C683.836 435.907 655.253 454.802 623.655 468.554C601.187 478.328 578.303 487.128 556.214 497.761C503.661 523.055 451.627 549.426 398.516 573.557C385.945 579.266 375.519 584.011 366.842 587.953H392.674C420.785 575.136 446.343 563.217 482.904 545.475C524.427 525.333 565.231 503.622 608.257 486.702C640.196 474.141 670.036 457.817 698.316 438.506C709.801 430.661 721.247 422.75 732.722 414.895C738.525 410.925 744.31 406.937 750.161 403.042C753.602 400.755 757.07 398.515 760.539 396.265C772.099 388.826 784.935 380.915 798.017 373.108C803.31 370.026 808.631 366.992 813.991 364.024V351.339C813.565 351.585 813.168 351.812 812.734 352.058C811.476 352.379 810.484 353.353 809.388 353.977L809.378 353.986ZM772.128 409.006C750.199 423.27 728.61 438.034 706.88 452.599C683.637 468.176 659.497 482.317 633.447 492.827C616.442 499.69 599.107 505.739 582.462 513.499C544.909 531.004 508.301 550.428 470.909 568.264C455.729 575.504 449.718 578.595 429.235 587.962H454.311C477.762 576.818 509.115 561.308 527.546 552.224C558.142 537.158 588.181 520.843 620.403 509.34C645.64 500.323 669.336 488.29 692.286 474.566C709.46 464.301 725.85 452.873 742.325 441.569C748.677 437.211 755.029 432.873 761.447 428.629C774.954 419.687 788.962 410.831 803.3 402.088C806.845 399.989 810.389 397.91 813.991 395.896V382.975C813.556 383.231 813.14 383.505 812.715 383.751C799.312 391.501 789.661 397.465 772.146 409.006H772.128ZM789.916 525.191C786.873 527.337 783.81 529.426 780.729 531.496C780.067 531.94 779.396 532.384 778.735 532.828C775.615 534.898 772.477 536.931 769.301 538.897C757.108 546.449 744.452 553.169 730.945 558.444C719.054 563.084 707.948 569.436 697.154 576.261C690.707 580.334 685.566 584.191 680.915 587.962H698.884C708.6 580.958 718.345 574.985 729.366 570.76C743.044 565.514 756.012 559.049 768.517 551.77C780.398 544.852 791.863 537.214 803.111 529.142C803.111 529.142 803.121 529.142 803.13 529.133C805.796 527.214 808.565 525.428 811.316 523.632C812.119 523.102 812.837 522.261 813.991 522.516V509.066C811.722 510.531 809.435 512.006 807.195 513.471C801.259 517.11 795.606 521.202 789.926 525.201L789.916 525.191ZM789.491 587.962H807.998C810.106 586.535 812.214 585.098 813.981 583.898V570.986C807.714 575.155 802.157 578.945 798.055 581.894C794.784 584.219 792.015 586.147 789.491 587.962ZM-48.1601 -293.991C-55.9014 -288.603 -62.2342 -284.321 -67.9716 -280.2V-266.901C-56.0431 -275.739 -37.3186 -287.998 -28.0272 -293.991H-48.1601ZM646.954 567.281C645.29 564.124 642.388 564.219 639.477 564.937C638.4 565.202 637.341 565.807 636.443 566.478C630.224 571.119 623.116 574.238 616.461 578.142C613.645 579.796 607.378 583.293 598.824 587.962H620.204C632.152 581.176 634.581 579.881 639.723 577.593C641.415 576.847 643.22 576.194 644.685 575.107C647.322 573.151 648.674 570.533 646.963 567.281H646.954ZM685.575 365.801C662.503 382.352 639.581 399.139 614.533 412.702C590.289 425.831 564.655 435.983 539.824 447.854C477.998 477.411 416.267 507.166 354.507 536.855C326.86 550.145 299.146 563.33 272.406 578.406C266.792 581.573 262.567 584.768 258.881 587.953H277.142C279.864 586.252 282.842 584.512 286.207 582.735C328.552 560.334 372.135 540.456 415.312 519.756C467.157 494.907 518.311 468.611 571.007 445.548C605.147 430.604 638.154 413.685 668.145 391.435C696.388 370.48 725.746 351.33 755.757 333.182C776.636 320.63 796.051 309.684 813.972 299.514V286.961C798.612 295.383 777.251 307.605 755.057 320.96C731.351 335.025 708.024 349.685 685.575 365.792V365.801ZM798.631 456.087C785.445 465.104 772.194 473.989 758.81 482.666C730.378 501.098 701.322 518.499 670.811 533.509C662.124 537.781 653.343 541.458 643.75 542.895C633.589 544.417 623.929 547.507 614.826 552.177C587.623 566.128 566.035 577.47 545.817 587.972H568.577C600.194 571.242 606.225 568.311 618.323 562.13C627.057 557.668 636.15 554.389 645.971 553.198C653.835 552.252 661.491 550.258 668.514 546.524C691.662 534.227 715.235 522.715 737.684 509.16C746.096 504.075 754.292 498.669 762.449 493.187C762.468 493.177 762.486 493.158 762.505 493.149C771.872 486.854 781.183 480.455 790.55 474.16C791.173 473.744 791.807 473.328 792.431 472.902C798.177 469.065 803.953 465.284 809.822 461.636C810.843 461.002 811.826 460.397 812.837 459.764C813.187 459.66 813.556 459.603 813.962 459.632V446.191C811.817 447.542 809.643 448.828 807.516 450.208C804.482 452.061 801.552 454.083 798.621 456.087H798.631ZM269.665 -270.228C270.771 -267.837 272.841 -267.128 275.327 -267.222C277.416 -267.298 279.221 -268.177 280.885 -269.283C284.826 -271.92 289.118 -273.867 293.371 -275.909C306.557 -282.213 310.857 -284.293 311.926 -284.831C313.74 -285.663 318.892 -288.064 331.529 -293.991H306.859C294.354 -287.951 283.995 -282.951 277.359 -280.228C275.119 -279.311 272.671 -278.782 270.942 -276.93C269.136 -274.992 268.503 -272.733 269.656 -270.228H269.665ZM23.7983 -43.8512C38.7609 -47.4713 53.0713 -52.859 67.0415 -59.2958C116.523 -82.0942 164.88 -107.18 213.719 -131.283C243.275 -145.867 272.284 -161.681 303.173 -173.363C356.133 -193.392 408.129 -215.557 459.311 -239.499C459.397 -239.499 459.491 -239.499 459.576 -239.49C465.729 -242.363 471.864 -245.303 477.989 -248.233C478.773 -248.611 479.567 -248.961 480.352 -249.339C480.342 -249.339 480.333 -249.339 480.314 -249.339C507.763 -262.496 534.975 -276.164 561.904 -290.455C564.248 -291.703 566.47 -292.875 568.577 -293.991H545.798C517.3 -279.198 491.477 -266.079 456.523 -249.783H456.514C419.755 -232.618 382.542 -216.408 344.951 -201.039C319.761 -190.736 293.806 -182.324 269.212 -170.547C213.359 -143.807 158.471 -115.12 102.742 -88.1246C81.5977 -77.888 60.9829 -66.1013 38.4208 -59.4471C8.77917 -50.7134 -20.182 -40.5903 -47.9333 -26.9793C-55.7312 -23.1512 -52.8861 -24.2854 -67.9716 -17.7446V-6.05242C-61.0244 -9.27557 -53.8124 -12.5933 -46.005 -16.1473C-23.1878 -26.5351 -0.767605 -37.9153 23.8078 -43.8607L23.7983 -43.8512ZM52.4192 -109.146C108.886 -136.954 164.341 -166.766 220.619 -194.942C240.08 -204.687 259.022 -215.642 280.337 -221.219C292.823 -224.48 305.186 -228.176 317.153 -233.044C331.312 -238.8 345.367 -244.811 359.375 -250.908C359.356 -250.908 359.328 -250.908 359.309 -250.908C387.117 -262.997 414.698 -275.578 442.222 -288.3C445.88 -289.992 449.973 -291.921 454.302 -293.972H429.226C413.29 -286.694 388.601 -275.616 344.025 -255.851C340.527 -254.301 337.011 -252.77 333.505 -251.239C331.066 -250.18 328.618 -249.15 326.17 -248.11C323.854 -247.137 321.538 -246.173 319.213 -245.227C308.561 -240.898 297.766 -236.947 286.622 -233.951C273.172 -230.331 259.835 -226.503 247.292 -220.302C196.771 -195.33 146.93 -169.025 96.7305 -143.429C67.3724 -128.466 38.6381 -112.001 7.13442 -101.764C-6.53326 -97.3215 -35.4754 -85.8183 -67.9716 -71.8104V-59.7684C-37.243 -72.6043 0.357181 -88.2664 1.82225 -88.7201C19.2424 -94.1267 36.0576 -101.065 52.4192 -109.118V-109.146ZM47.6742 -134.931C112.667 -168.713 177.281 -203.241 242.689 -236.229C249.514 -239.67 256.518 -242.439 263.852 -244.121C295.413 -251.333 268.021 -237.609 357.655 -278.12C370.264 -283.82 381.644 -288.971 392.646 -293.991H366.814C306.065 -266.381 331.019 -277.714 307.114 -267.024C268.805 -249.897 275.62 -260.87 248.947 -250.728C248.843 -250.691 248.739 -250.662 248.635 -250.615C245.459 -249.396 242.311 -248.054 239.22 -246.484C180.476 -216.824 122.355 -185.982 64.0358 -155.499C40.4245 -143.155 17.2575 -129.695 -8.52771 -122.161C-26.0896 -117.029 -42.8859 -110.205 -59.0489 -101.698C-62.5273 -99.8735 -65.3534 -98.3991 -67.9905 -97.0758V-86.3949C-39.3319 -98.3707 -14.5769 -109.155 -14.5769 -109.155C7.18171 -115.337 27.6547 -124.534 47.6647 -134.931H47.6742ZM79.3386 382.049C110.237 367.928 140.976 353.457 171.874 339.335C190.259 330.932 209.796 325.28 227.953 316.348C257.69 301.716 286.235 284.882 315.073 268.596C339.667 254.702 364.621 241.317 387.221 224.238C402.221 212.895 418.167 203.538 435.625 196.628C440.549 194.681 445.313 192.327 450.152 190.153C500.929 167.317 548.945 139.084 598.739 114.329C602.576 112.42 603.834 108.894 602.217 105.803C600.658 102.816 597.028 101.947 593.191 103.96C590.412 105.425 587.964 107.505 585.175 108.96C541.894 131.664 499.36 155.909 454.775 176.004C424.377 189.7 395.567 205.466 367.816 224.238C322.578 254.843 273.985 280.128 225.6 305.516C207.802 314.854 188.387 320.497 170.012 328.569C124.746 348.447 80.8133 371.264 34.6022 389.1C8.71297 399.091 -14.4729 414.564 -38.4245 428.402C-48.0939 433.988 -58.1037 439.905 -67.9905 446.115V459.074C-37.1296 439.915 -10.0494 423.393 22.0309 406.587C40.4813 396.917 60.4345 390.688 79.3291 382.059L79.3386 382.049ZM184.342 65.1027C223.237 47.1344 262.614 30.0167 300.271 9.55294C356.114 -20.7882 412.978 -48.9459 471.051 -74.7406C515.882 -94.6466 560.118 -115.715 601.565 -142.228C628.976 -159.762 658.022 -174.715 684.573 -193.61C700.084 -204.65 715.406 -215.945 730.709 -227.268C739.735 -233.942 748.752 -240.634 757.798 -247.278C759.84 -248.781 761.796 -250.36 763.696 -252.005C763.696 -252.005 763.706 -252.014 763.715 -252.023C765.606 -253.668 767.411 -255.388 769.15 -257.175C772.335 -260.445 775.284 -263.952 777.94 -267.742C783.46 -275.597 790.36 -281.958 798.234 -287.384C798.234 -287.384 803.055 -290.663 807.97 -294H789.462C780.521 -287.582 775.322 -283.064 767.496 -271.325C763.639 -265.54 758.564 -260.833 752.978 -256.749C739.471 -246.881 725.964 -237.014 712.4 -227.231C712.428 -227.231 712.457 -227.231 712.485 -227.231C681.312 -204.697 649.742 -182.749 616.414 -163.202C571.224 -136.699 525.93 -110.696 477.96 -89.4858C440.861 -73.077 403.62 -56.8856 367.712 -37.991C310.744 -8.00903 253.569 21.5004 195.023 48.3348C142.866 72.239 91.9572 98.5252 42.5513 127.808C6.47275 149.188 -4.80352 154.604 -68 189.426V201.572C-33.982 182.885 -1.08887 164.983 25.8022 149.67C77.8736 120.019 129.832 90.2546 184.332 65.0838L184.342 65.1027ZM785.436 -255.445C785.436 -255.445 785.417 -255.426 785.398 -255.407C781.542 -251.362 777.666 -247.26 773.356 -243.724C764.396 -236.361 755.284 -229.178 746.106 -222.098C744.528 -220.879 742.94 -219.678 741.352 -218.469C732.429 -211.663 723.449 -204.943 714.375 -198.364C705.075 -191.625 695.736 -184.952 686.293 -178.42C652.455 -155.007 616.074 -135.498 581.47 -113.191C551.374 -93.7959 518.434 -79.7312 485.948 -64.9481C438.961 -43.5676 391.918 -22.3194 346.596 2.48282C324.591 14.5247 303.4 28.0695 280.564 38.5896C200.722 75.396 121.429 113.242 45.2547 157.374C13.3634 175.853 -32.309 201.723 -67.9716 221.837V234.134C-44.3037 220.684 -24.53 209.445 -24.53 209.445C57.7029 162.289 140.059 115.378 226.262 75.6323C255.279 62.2482 285.016 50.2157 312.653 34.0338C358.373 7.26557 405.539 -16.6009 453.706 -38.5675C489.18 -54.7495 524.918 -70.3642 559.598 -88.2475C583.625 -100.639 605.592 -116.367 628.626 -130.356C659.26 -148.968 690.566 -166.482 718.856 -188.77C722.362 -191.53 725.916 -194.252 729.48 -196.946C729.905 -197.268 730.34 -197.589 730.765 -197.91C746.503 -209.763 762.562 -221.229 777.666 -233.847C777.666 -233.847 777.666 -233.847 777.666 -233.838C777.733 -233.885 777.789 -233.951 777.846 -233.998C779.67 -235.53 781.419 -237.155 783.224 -238.724C786.476 -241.551 789.708 -244.405 792.837 -247.373C793.234 -247.751 793.659 -248.091 794.056 -248.469C794.028 -248.488 794.009 -248.507 793.981 -248.526C797.459 -251.872 800.928 -255.247 804.208 -258.838C805.862 -260.653 809.435 -263.527 813.953 -266.873V-280.172C803.99 -273.016 795.852 -266.372 785.426 -255.436L785.436 -255.445ZM734.716 200.806C734.716 200.806 734.726 200.73 734.735 200.683C728.128 204.369 721.549 208.103 714.98 211.846C713.6 212.63 712.201 213.377 710.831 214.171V214.19C682.55 230.353 654.657 247.178 627.691 265.59C601.282 283.625 575.317 302.368 547.244 317.841C503.906 341.727 459.321 363.221 415.662 386.482C374.649 408.326 333.287 429.499 292.53 451.796C266.244 466.182 241.489 483.224 215.609 498.366C179.814 519.321 142.29 537.016 105.994 557.026C89.5754 566.071 69.121 577.291 50.3303 587.962H72.089C83.1573 581.79 95.0292 575.259 109.292 567.385C143.679 548.396 179.219 531.552 213.303 511.977C242.16 495.408 269.58 476.371 298.825 460.539C360.727 427.022 423.148 394.45 485.768 362.294C524.682 342.322 564.088 323.182 599.807 297.652C638.031 270.326 677.9 245.769 718.497 222.423C748.715 205.031 779.302 188.263 810.049 171.769C811.372 171.06 812.649 170.38 813.962 169.68V157.355C806.798 161.155 800.266 164.642 794.652 167.724C774.651 178.716 754.641 189.69 734.716 200.796V200.806ZM-9.77545 -216.446C5.99059 -226.266 21.993 -235.671 38.071 -244.944C38.0899 -244.944 38.1089 -244.944 38.1372 -244.944C58.7522 -256.863 79.4995 -268.565 100.322 -280.124C100.767 -280.37 117.563 -289.454 125.928 -293.981H103.347C101.457 -292.941 99.4149 -291.817 97.1748 -290.588C71.6636 -276.561 46.3133 -262.251 21.1708 -247.581C20.3863 -247.127 19.6678 -246.702 18.9022 -246.248C-52.4987 -204.451 -44.1146 -202.523 -68 -183.364V-169.441C-62.8959 -173.222 -58.6614 -176.861 -53.8976 -181.634C-40.5702 -194.999 -25.7965 -206.474 -9.79414 -216.446H-9.77545ZM715.973 311.225C697.664 322.492 679.667 334.25 662.313 347.067C636.453 366.17 610.308 384.951 581.026 398.59C505.636 433.695 431.267 470.927 356.331 506.968C285.034 541.26 230.969 576.828 214.191 587.981H235.269C247.992 579.049 273.068 561.714 289.071 553.377C373.269 509.52 458.896 468.554 544.645 427.863C578.351 411.87 612.586 396.832 642.625 374.336C666.728 356.292 691.634 339.543 717.041 323.598C738.96 309.835 761.267 296.678 783.791 283.871C784.113 283.691 784.425 283.502 784.746 283.322C792.289 279.041 799.86 274.797 807.45 270.581C809.17 269.626 810.777 268.728 812.308 267.887C812.828 267.717 813.376 267.594 813.962 267.575V254.068C803.886 259.947 794.113 265.619 784.68 271.025C761.645 284.211 738.573 297.321 715.982 311.215L715.973 311.225ZM676.151 406.993C651.406 424.801 624.836 439.508 596.801 451.569C578.899 459.273 560.959 466.938 543.378 475.332C477.025 507.005 411.096 539.568 344.252 570.23C330.688 576.459 317.928 582.612 306.85 587.962H331.52C332.966 587.282 334.45 586.592 336.104 585.817C381.001 564.767 426.059 544.067 470.644 522.346C511.487 502.44 552.027 481.891 594.003 464.443C627.936 450.34 659.667 432.391 689.45 410.954C701.246 402.466 713.203 394.242 725.255 386.151C734.206 380.14 743.251 374.27 752.344 368.485C755.766 366.312 759.188 364.128 762.638 362.001C765.804 360.035 768.989 358.098 772.175 356.16C779.689 351.623 787.222 347.114 794.85 342.766C797.251 341.396 798.641 340.555 799.935 339.761C804.491 337.02 809.038 334.25 813.962 332.171V319.023C807.733 322.662 801.041 326.603 793.981 330.81C753.507 354.317 714.177 379.611 676.151 406.993ZM761.286 63.8928C761.286 63.8928 761.286 63.8739 761.286 63.8644C751.059 68.8929 740.86 73.9782 730.642 79.0161C721.946 83.3168 713.232 87.5797 704.545 91.8898C704.545 91.8898 704.545 91.9088 704.545 91.9182C697.4 95.4627 690.235 98.9505 683.098 102.523C620.866 133.649 635.347 133.564 606.461 152.232C567.273 177.554 526.535 200.163 484.879 221.156C461.58 232.896 437.354 242.905 415.369 257.102C362.305 291.357 307.417 322.444 251.905 352.483C243.379 357.096 234.541 360.81 224.9 362.067C212.225 363.722 200.41 367.918 188.983 373.429C165.608 384.696 142.45 396.454 118.791 407.097C69.6975 429.187 21.6149 453.138 -24.1615 481.551C-39.9275 491.334 -54.2661 500.2 -67.9905 509.094V521.77C-41.6665 504.331 18.3446 466.777 65.775 443.847C108.366 423.26 151.401 403.619 193.879 382.796C203.444 378.108 213.255 373.977 223.955 372.881C234.995 371.746 245.185 368.268 254.873 363.032C296.131 340.744 337.172 318.068 377.22 293.653C405.614 276.347 433.092 257.537 463.423 243.52C496.108 228.406 527.933 211.591 559.04 193.443C664.535 131.91 612.34 149.406 697.106 107.41C718.033 97.0412 738.979 86.7101 759.925 76.379C759.925 76.3695 759.925 76.3507 759.925 76.3412C776.929 67.9478 795.606 58.7509 813.943 49.7526V37.928C812.875 38.4574 811.836 38.9677 810.749 39.5065C794.255 47.6352 777.77 55.7924 761.276 63.9118L761.286 63.8928ZM221.8 396.057C226.29 393.845 228.227 390.31 226.526 386.926C224.881 383.637 220.723 383.079 216.346 385.632C213.501 387.295 210.826 389.271 207.896 390.745C185.636 401.984 163.594 413.704 140.985 424.215C81.2573 451.985 22.9288 482.288 -32.8005 517.488C-52.5742 529.974 -50.8067 528.528 -68 540.144V553.056C-26.1274 524.955 17.56 497.856 62.6653 474.727C115.313 447.732 168.708 422.192 221.8 396.057Z" fill="#7BBFFF"/>
</g>
</svg>
