<svg width="316" height="316" viewBox="0 0 316 316" fill="none" xmlns="http://www.w3.org/2000/svg">
<mask id="mask0_3_20" style="mask-type:alpha" maskUnits="userSpaceOnUse" x="0" y="0" width="316" height="316">
<circle cx="158" cy="158" r="158" fill="#D9D9D9"/>
</mask>
<g mask="url(#mask0_3_20)">
<path d="M331.249 -15.2448H-15.2709V331.275H331.249V-15.2448Z" fill="#EDF9FC"/>
</g>
<rect x="90.5519" y="101.731" width="127.071" height="93.533" fill="#EDF9FC"/>
<path d="M223.219 93.4749C205.869 76.3075 182.442 66.6858 158.034 66.7028H157.049C135.15 66.917 114.026 74.843 97.3915 89.0879C80.7566 103.333 69.6747 122.985 66.0933 144.591C62.5119 166.197 66.6603 188.373 77.8094 207.224C88.9585 226.074 106.395 240.392 127.054 247.66C131.374 249.177 135.996 249.636 140.53 249C145.064 248.363 149.38 246.648 153.116 244C156.851 241.352 159.898 237.847 162 233.779C164.102 229.711 165.198 225.199 165.197 220.62V217.128C165.197 213.328 166.707 209.684 169.394 206.998C172.08 204.311 175.724 202.802 179.524 202.802H220.891C227.397 202.85 233.723 200.662 238.809 196.603C243.894 192.545 247.431 186.862 248.827 180.506C250.455 173.461 251.236 166.247 251.155 159.017C251.082 146.785 248.575 134.689 243.778 123.436C238.982 112.183 231.993 101.998 223.219 93.4749V93.4749ZM123.114 192.415C121.273 193.476 119.159 193.967 117.04 193.826C114.92 193.686 112.889 192.92 111.204 191.626C109.519 190.331 108.256 188.566 107.574 186.554C106.892 184.542 106.822 182.373 107.373 180.321C107.923 178.269 109.07 176.426 110.667 175.026C112.265 173.625 114.242 172.73 116.348 172.452C118.455 172.175 120.596 172.529 122.501 173.468C124.407 174.408 125.991 175.891 127.054 177.731C127.76 178.953 128.219 180.303 128.403 181.703C128.587 183.103 128.494 184.526 128.128 185.889C127.762 187.253 127.131 188.532 126.271 189.651C125.41 190.771 124.338 191.71 123.114 192.415ZM127.054 141.915C125.991 143.755 124.407 145.238 122.501 146.178C120.596 147.117 118.455 147.471 116.348 147.194C114.242 146.916 112.265 146.021 110.667 144.62C109.07 143.22 107.923 141.377 107.373 139.325C106.822 137.273 106.892 135.104 107.574 133.092C108.256 131.08 109.519 129.315 111.204 128.02C112.889 126.726 114.92 125.96 117.04 125.82C119.159 125.679 121.273 126.17 123.114 127.231C125.567 128.671 127.355 131.019 128.092 133.766C128.83 136.513 128.457 139.441 127.054 141.915V141.915ZM158.034 124.008C155.909 124.008 153.832 123.377 152.065 122.197C150.298 121.016 148.921 119.338 148.108 117.375C147.294 115.411 147.082 113.251 147.496 111.167C147.911 109.083 148.934 107.168 150.437 105.665C151.939 104.163 153.854 103.139 155.938 102.725C158.022 102.31 160.183 102.523 162.146 103.336C164.11 104.149 165.788 105.527 166.968 107.294C168.149 109.06 168.779 111.138 168.779 113.263C168.779 116.113 167.647 118.846 165.632 120.861C163.617 122.876 160.884 124.008 158.034 124.008ZM203.699 145.855C201.858 146.916 199.744 147.407 197.624 147.266C195.504 147.126 193.474 146.36 191.789 145.066C190.104 143.771 188.841 142.006 188.159 139.994C187.477 137.982 187.407 135.813 187.957 133.761C188.508 131.709 189.654 129.866 191.252 128.466C192.85 127.065 194.827 126.17 196.933 125.892C199.039 125.615 201.181 125.969 203.086 126.908C204.992 127.848 206.576 129.331 207.639 131.171C209.041 133.645 209.414 136.573 208.677 139.32C207.94 142.067 206.152 144.415 203.699 145.855V145.855Z" fill="#006FD7"/>
</svg>
