<svg width="521" height="528" viewBox="0 0 521 528" fill="none" xmlns="http://www.w3.org/2000/svg">
<rect width="521" height="528" fill="white"/>
<path d="M170.741 480.27V311.24C170.741 300.78 179.251 292.26 189.711 292.26H358.741C369.201 292.26 377.711 300.77 377.711 311.24V480.27C377.711 490.73 369.201 499.24 358.741 499.24H189.721C179.261 499.24 170.751 490.73 170.751 480.27H170.741ZM369.961 311.24C369.961 305.06 364.931 300.02 358.751 300.02H189.721C183.541 300.02 178.511 305.05 178.511 311.24V480.27C178.511 486.45 183.541 491.48 189.721 491.48H358.751C364.931 491.48 369.961 486.45 369.961 480.27V311.24Z" fill="#0C375B"/>
<path d="M474.831 368.791C474.321 368.261 474.321 367.421 474.831 366.891C479.251 362.351 482.171 355.001 482.641 347.231C483.081 339.841 481.291 332.711 477.551 326.761C475.131 330.881 471.541 333.621 467.531 334.231C464.241 334.731 461.581 332.971 460.591 329.651C459.361 325.541 460.901 319.831 465.141 317.881C469.351 315.941 473.321 317.101 476.971 321.331C476.971 321.321 476.971 321.311 476.971 321.301C480.961 308.391 473.321 295.361 464.851 287.471C464.311 286.961 464.271 286.091 464.781 285.541C465.291 284.991 466.161 284.961 466.721 285.471C472.961 291.281 477.211 297.761 479.321 304.721C481.151 310.751 481.241 316.761 479.591 322.111C479.401 322.731 479.181 323.331 478.951 323.921C489.251 338.701 486.361 359.001 476.801 368.821C476.271 369.361 475.411 369.371 474.861 368.841C474.851 368.841 474.841 368.821 474.831 368.811V368.791ZM474.271 322.421C470.851 318.881 468.101 319.511 466.281 320.351C463.451 321.651 462.331 325.911 463.201 328.851C463.631 330.271 464.651 331.881 467.111 331.511C470.641 330.981 473.801 328.271 475.791 324.231C475.591 323.971 475.391 323.721 475.181 323.461C474.861 323.081 474.551 322.731 474.251 322.411L474.271 322.421Z" fill="#0C375B"/>
<path d="M221.181 210.201C221.221 210.931 220.661 211.571 219.921 211.631C213.601 212.141 206.571 215.761 201.111 221.311C195.921 226.591 192.581 233.141 191.491 240.081C196.021 238.561 200.531 238.861 203.961 241.041C206.761 242.831 207.621 245.901 206.181 249.061C204.411 252.971 199.501 256.261 195.011 254.941C190.571 253.631 188.341 250.151 188.361 244.571C188.361 244.571 188.341 244.581 188.331 244.591C176.841 251.701 174.031 266.541 175.231 278.051C175.311 278.791 174.761 279.471 174.011 279.551C173.261 279.631 172.591 279.081 172.511 278.331C171.621 269.851 172.691 262.171 175.671 255.541C178.251 249.791 182.141 245.211 186.891 242.261C187.441 241.921 188.001 241.601 188.561 241.321C190.511 223.411 206.031 210.011 219.691 208.901C220.441 208.841 221.101 209.401 221.161 210.151C221.161 210.171 221.161 210.181 221.161 210.191L221.181 210.201ZM191.131 245.511C191.381 250.421 193.871 251.751 195.791 252.321C198.781 253.201 202.431 250.731 203.701 247.931C204.311 246.581 204.601 244.691 202.501 243.351C199.491 241.431 195.331 241.391 191.171 243.131C191.151 243.461 191.141 243.781 191.131 244.111C191.121 244.611 191.121 245.071 191.141 245.511H191.131Z" fill="#0C375B"/>
<path d="M460.541 209.58C460.541 209.58 456.061 212.73 455.831 217.54C455.691 220.43 457.091 223.11 459.991 225.49C463.601 228.46 464.291 230.33 464.241 231.38C464.171 232.92 462.291 234.32 460.531 235.5C460.481 235.53 456.051 238.66 455.821 243.46C455.681 246.35 457.081 249.03 459.981 251.41C462.151 253.19 463.231 254.98 463.191 256.71C463.141 259.39 460.501 261.43 460.441 261.47C459.541 262.15 459.351 263.43 460.021 264.34C460.701 265.25 461.981 265.44 462.891 264.77C463.071 264.64 467.171 261.54 467.291 256.84C467.371 253.77 465.781 250.88 462.581 248.24C460.771 246.75 459.871 245.23 459.911 243.73C459.971 241.49 462.091 239.45 462.841 238.89C464.841 237.54 468.151 235.29 468.331 231.57C468.471 228.64 466.591 225.62 462.581 222.32C460.771 220.83 459.871 219.31 459.911 217.81C459.971 215.57 462.091 213.53 462.841 212.97C464.841 211.62 468.151 209.37 468.331 205.65C468.471 202.72 466.591 199.7 462.581 196.4C460.771 194.91 459.871 193.39 459.911 191.89C459.971 189.65 462.091 187.6 462.841 187.05C464.841 185.7 468.151 183.45 468.331 179.73C468.471 176.8 466.591 173.78 462.581 170.48C462.201 170.17 461.741 170.01 461.281 170.01C460.691 170.01 460.101 170.26 459.691 170.76C458.971 171.64 459.101 172.93 459.971 173.65C463.581 176.61 464.271 178.49 464.221 179.53C464.151 181.07 462.271 182.47 460.511 183.65C460.471 183.68 456.031 186.8 455.801 191.61C455.661 194.5 457.061 197.18 459.961 199.56C463.571 202.52 464.261 204.39 464.211 205.44C464.141 206.98 462.261 208.38 460.501 209.56L460.541 209.58Z" fill="#0C375B"/>
<path d="M151.691 246.801L142.261 260.241C141.761 260.951 141.761 261.891 142.261 262.601L150.861 274.861L142.261 287.121C141.761 287.831 141.761 288.771 142.261 289.481L150.861 301.741L142.261 314.001C141.761 314.711 141.761 315.651 142.261 316.361L150.861 328.621L142.261 340.881C141.761 341.591 141.761 342.531 142.261 343.241L150.861 355.501L142.261 367.761C141.761 368.471 141.761 369.411 142.261 370.121L151.691 383.561C152.341 384.491 153.621 384.711 154.551 384.061C155.121 383.661 155.421 383.031 155.421 382.381C155.421 381.971 155.301 381.561 155.051 381.201L146.451 368.941L155.051 356.681C155.551 355.971 155.551 355.031 155.051 354.321L146.451 342.061L155.051 329.801C155.551 329.091 155.551 328.151 155.051 327.441L146.451 315.181L155.051 302.921C155.551 302.211 155.551 301.271 155.051 300.561L146.451 288.301L155.051 276.041C155.551 275.331 155.551 274.391 155.051 273.681L146.451 261.421L155.051 249.161C155.701 248.231 155.481 246.951 154.551 246.301C153.621 245.651 152.341 245.871 151.691 246.801V246.801Z" fill="#AC90ED"/>
<path d="M335.041 439.861V454.521H349.701C350.831 454.521 351.751 455.441 351.751 456.571C351.751 457.701 350.831 458.621 349.701 458.621H335.041V473.281C335.041 474.411 334.121 475.331 332.991 475.331C331.861 475.331 330.941 474.411 330.941 473.281V458.621H316.281C315.151 458.621 314.231 457.701 314.231 456.571C314.231 455.441 315.151 454.521 316.281 454.521H330.941V439.861C330.941 438.731 331.861 437.811 332.991 437.811C334.121 437.811 335.041 438.731 335.041 439.861Z" fill="#0C375B"/>
<path d="M250.581 132.281H419.611C427.941 132.281 434.701 139.041 434.701 147.371V316.401C434.701 324.731 427.941 331.491 419.611 331.491H250.581C242.251 331.491 235.491 324.731 235.491 316.401V147.371C235.491 139.041 242.251 132.281 250.581 132.281Z" fill="white"/>
<path d="M231.611 316.401V147.371C231.611 136.911 240.121 128.391 250.581 128.391H419.611C430.071 128.391 438.581 136.901 438.581 147.371V316.401C438.581 326.861 430.071 335.371 419.611 335.371H250.581C240.121 335.371 231.611 326.861 231.611 316.401ZM430.831 147.371C430.831 141.191 425.801 136.151 419.621 136.151H250.581C244.401 136.151 239.371 141.181 239.371 147.371V316.401C239.371 322.581 244.401 327.611 250.581 327.611H419.611C425.791 327.611 430.821 322.581 430.821 316.401V147.371H430.831Z" fill="#0C375B"/>
<path d="M395.651 307.81C391.951 307.81 388.411 305.7 386.761 302.12L337.031 194L287.301 302.12C285.041 307.03 279.241 309.18 274.331 306.92C269.421 304.66 267.281 298.86 269.531 293.95L328.141 166.52C329.731 163.05 333.201 160.83 337.021 160.83C340.841 160.83 344.311 163.05 345.901 166.52L404.511 293.95C406.771 298.86 404.621 304.66 399.711 306.92C398.391 307.53 397.001 307.82 395.631 307.82L395.651 307.81Z" fill="#AC90ED"/>
<path d="M375.231 264.8H298.231C292.831 264.8 288.451 260.42 288.451 255.02C288.451 249.62 292.831 245.24 298.231 245.24H375.231C380.631 245.24 385.011 249.62 385.011 255.02C385.011 260.42 380.631 264.8 375.231 264.8Z" fill="#AC90ED"/>
<path d="M176.031 92.251C171.431 91.081 166.761 93.871 165.591 98.471L154.181 143.431L170.841 147.661L182.261 102.691C183.431 98.091 180.651 93.411 176.041 92.251H176.031Z" fill="white"/>
<path d="M170.831 150.291C170.611 150.291 170.401 150.261 170.181 150.211L153.521 145.981C152.121 145.621 151.271 144.191 151.621 142.791L163.031 97.8311C164.301 92.8511 168.761 89.3711 173.901 89.3711C174.831 89.3711 175.761 89.4911 176.661 89.7211C179.561 90.4611 182.011 92.2811 183.541 94.8511C185.071 97.4211 185.511 100.441 184.771 103.351L173.361 148.321C173.191 148.991 172.761 149.571 172.161 149.931C171.751 150.171 171.291 150.301 170.821 150.301L170.831 150.291ZM157.361 141.531L168.931 144.471L179.701 102.041C180.091 100.501 179.861 98.8911 179.051 97.5211C178.231 96.1511 176.931 95.1811 175.391 94.7911C174.911 94.6711 174.411 94.6011 173.921 94.6011C171.191 94.6011 168.811 96.4511 168.141 99.1111L157.371 141.531H157.361Z" fill="#0C375B"/>
<path d="M292.821 163.501C289.711 166.811 284.811 165.811 281.111 164.001C282.631 168.271 283.151 173.591 278.641 178.411C274.021 183.351 268.171 183.181 264.081 181.731C266.181 185.601 267.691 190.331 264.511 193.741C261.321 197.141 255.771 197.201 252.611 194.231C220.531 164.201 124.281 74.1209 124.281 74.1209L164.051 31.6309C164.051 31.6309 260.511 121.921 292.661 152.011C295.701 154.851 295.871 160.241 292.821 163.501Z" fill="#AC90ED"/>
<path d="M258.271 199.001C255.431 199.001 252.781 197.991 250.811 196.141C218.731 166.111 122.481 76.0311 122.481 76.0311C121.421 75.0411 121.371 73.3811 122.361 72.3211L162.141 29.8311C162.611 29.3211 163.271 29.0211 163.971 29.0011C164.671 28.9811 165.341 29.2311 165.851 29.7111C165.851 29.7111 262.311 120.001 294.461 150.091C296.431 151.931 297.591 154.651 297.651 157.541C297.711 160.431 296.651 163.251 294.741 165.281C292.901 167.251 290.391 168.291 287.491 168.291C286.551 168.291 285.631 168.181 284.751 168.011C285.241 172.621 283.841 176.711 280.571 180.201C277.311 183.681 273.081 185.431 268.401 185.221C269.601 189.381 268.941 192.841 266.431 195.521C264.371 197.721 261.391 198.991 258.271 198.991V199.001ZM127.991 74.0011C141.691 86.8211 225.001 164.791 254.401 192.321C255.371 193.231 256.781 193.761 258.271 193.761C259.941 193.761 261.521 193.101 262.591 191.951C263.221 191.271 265.151 189.211 261.781 182.991C261.151 181.831 261.481 180.381 262.551 179.611C263.251 179.111 264.161 178.971 264.971 179.261C266.331 179.741 267.781 180.001 269.141 180.001C272.081 180.001 274.631 178.861 276.731 176.621C279.741 173.401 280.351 169.671 278.641 164.881C278.281 163.871 278.571 162.751 279.361 162.041C280.161 161.331 281.301 161.171 282.261 161.641C284.111 162.551 285.971 163.051 287.481 163.051C288.991 163.051 290.051 162.611 290.901 161.701C291.881 160.661 292.421 159.181 292.391 157.651C292.361 156.171 291.801 154.811 290.861 153.931C261.401 126.341 177.881 48.1711 164.171 35.3411L127.981 74.0011H127.991Z" fill="#0C375B"/>
<path d="M255.181 174.822C254.781 174.822 254.371 174.671 254.051 174.371L143.221 70.9115C142.551 70.2915 142.521 69.2315 143.141 68.5715C143.761 67.9015 144.811 67.8615 145.481 68.4915L256.311 171.962C256.981 172.582 257.021 173.642 256.391 174.302C256.061 174.652 255.621 174.832 255.181 174.832V174.822Z" fill="#0C375B"/>
<path d="M272.881 157.072C272.471 157.072 272.071 156.922 271.751 156.622L160.921 53.1615C160.251 52.5415 160.211 51.4815 160.841 50.8215C161.461 50.1515 162.511 50.1115 163.181 50.7415L274.011 154.202C274.681 154.822 274.721 155.872 274.091 156.542C273.761 156.892 273.321 157.072 272.881 157.072Z" fill="#0C375B"/>
<path d="M310.251 214.582C309.791 214.582 309.331 214.512 308.871 214.352C307.411 213.862 269.061 202.622 254.401 198.322C253.011 197.912 252.211 196.452 252.621 195.062C253.031 193.672 254.491 192.872 255.881 193.282C257.981 193.902 305.961 207.952 310.291 209.292C310.691 209.132 311.281 208.552 311.401 208.192C310.111 204.632 292.161 155.992 291.971 155.492C291.471 154.132 292.171 152.622 293.521 152.122C294.881 151.622 296.391 152.312 296.891 153.672C297.661 155.742 315.611 204.382 316.381 206.552C317.071 208.482 316.451 210.692 314.711 212.462C313.621 213.572 311.981 214.572 310.251 214.572V214.582Z" fill="#0C375B"/>
<path d="M314.101 207.622C314.881 209.802 311.691 212.652 309.891 212.042C309.221 211.822 301.061 209.282 291.111 206.202L307.041 189.182C310.751 198.852 313.801 206.802 314.091 207.622H314.101Z" fill="#0C375B"/>
<path d="M138.631 151.031C138.171 150.451 138.011 149.671 138.191 148.861C138.281 148.461 138.451 148.061 138.681 147.701C138.921 147.351 139.221 147.031 139.581 146.761C139.581 146.761 140.751 145.891 142.801 144.371C143.831 143.651 145.081 142.761 146.521 141.761C147.961 140.761 149.591 139.701 151.371 138.521C154.941 136.251 159.111 133.641 163.621 131.131C168.131 128.591 172.961 126.031 177.821 123.641C187.531 118.861 197.341 114.691 204.751 111.811C208.451 110.351 211.551 109.211 213.731 108.411C215.911 107.631 217.151 107.181 217.151 107.181C217.301 107.131 217.451 107.091 217.611 107.061L218.181 106.861C220.731 105.971 223.401 106.171 225.611 107.231C227.821 108.281 229.581 110.191 230.371 112.651C230.781 113.931 230.901 115.241 230.761 116.501L231.001 116.421C233.451 115.621 236.071 115.861 238.311 117.071C240.501 118.251 242.081 120.231 242.771 122.611C243.851 126.401 242.521 130.301 239.771 132.621C240.831 133.681 241.661 135.011 242.131 136.551C243.351 140.551 241.961 144.701 239.021 146.941C239.991 147.961 240.751 149.221 241.221 150.661C242.021 153.121 241.841 155.651 240.941 157.741C240.041 159.841 238.401 161.511 236.231 162.281C236.231 162.281 235.251 162.631 233.771 163.161C232.301 163.701 230.341 164.421 228.401 165.171C226.461 165.921 224.521 166.671 223.081 167.271C222.361 167.561 221.761 167.811 221.331 167.971C220.911 168.141 220.671 168.241 220.671 168.241C220.521 168.301 220.361 168.351 220.211 168.381C220.211 168.381 219.431 168.711 218.061 169.281C217.381 169.571 216.551 169.931 215.611 170.331C214.661 170.731 213.601 171.211 212.451 171.721C207.841 173.791 201.781 176.651 196.031 179.771C190.261 182.871 184.801 186.201 180.951 188.801C179.961 189.441 179.111 190.051 178.351 190.591C177.591 191.131 176.901 191.591 176.391 191.981C175.341 192.771 174.741 193.221 174.741 193.221C174.491 193.411 174.201 193.521 173.891 193.581C173.591 193.631 173.281 193.621 172.961 193.551C172.331 193.401 171.701 193.011 171.221 192.411L138.631 151.051V151.031Z" fill="white"/>
<path d="M244.781 135.741C244.471 134.681 244.021 133.681 243.461 132.761C245.691 129.781 246.631 125.771 245.641 121.801C244.781 118.721 242.721 116.151 239.851 114.601C237.901 113.551 235.751 113.051 233.581 113.131C233.491 112.661 233.381 112.191 233.231 111.721C232.231 108.511 229.951 106.031 227.041 104.651C224.141 103.271 220.611 103.001 217.251 104.191L216.861 104.321C216.641 104.371 216.431 104.431 216.221 104.511C216.221 104.511 214.961 104.961 212.771 105.751C210.581 106.551 207.461 107.701 203.731 109.171C196.271 112.071 186.391 116.271 176.591 121.091C171.691 123.511 166.811 126.091 162.251 128.661C157.691 131.201 153.461 133.841 149.851 136.141C148.051 137.341 146.401 138.421 144.941 139.431C143.481 140.451 142.221 141.351 141.171 142.081C139.091 143.631 137.901 144.511 137.901 144.511C137.541 144.781 137.201 145.081 136.891 145.401C136.581 145.731 136.311 146.081 136.071 146.451C135.591 147.191 135.241 147.981 135.071 148.801C134.721 150.421 135.071 151.971 136.011 153.111L169.431 193.811C170.411 195.011 171.701 195.771 172.961 196.071C173.591 196.221 174.221 196.241 174.801 196.141C175.091 196.091 175.371 196.001 175.641 195.891C175.921 195.781 176.181 195.631 176.431 195.441C176.431 195.441 177.021 195.001 178.041 194.241C178.541 193.851 179.211 193.411 179.951 192.881C180.701 192.361 181.521 191.761 182.491 191.131C186.261 188.591 191.611 185.321 197.281 182.271C202.931 179.201 208.911 176.371 213.451 174.331C215.721 173.301 217.651 172.491 218.991 171.911C220.341 171.351 221.111 171.021 221.111 171.021C221.331 170.961 221.541 170.891 221.751 170.801C221.751 170.801 221.991 170.701 222.401 170.531C222.821 170.361 223.421 170.121 224.131 169.831C225.561 169.251 227.481 168.501 229.411 167.751C231.341 167.011 233.281 166.291 234.731 165.761C236.191 165.241 237.171 164.891 237.171 164.891C239.991 163.891 242.121 161.721 243.311 159.011C244.501 156.301 244.771 153.021 243.751 149.821C243.461 148.911 243.081 148.051 242.621 147.251C245.041 144.231 246.011 139.931 244.781 135.731V135.741ZM239.501 137.361C240.591 140.831 238.921 144.451 235.781 145.521C235.781 145.521 234.661 145.901 233.541 146.291C232.421 146.681 231.301 147.071 231.301 147.071L231.281 147.091C234.331 146.251 237.591 148.171 238.691 151.471C239.831 154.931 238.311 158.541 235.301 159.611C235.301 159.611 234.311 159.971 232.821 160.501C231.341 161.041 229.371 161.771 227.411 162.521C225.451 163.281 223.491 164.041 222.041 164.631C221.311 164.921 220.711 165.171 220.281 165.341C219.861 165.511 219.621 165.611 219.621 165.611L219.661 165.541C219.661 165.541 218.861 165.871 217.471 166.461C216.771 166.751 215.931 167.111 214.971 167.531C214.011 167.951 212.921 168.411 211.751 168.951C207.041 171.051 200.861 173.971 194.961 177.151C189.051 180.321 183.451 183.731 179.481 186.401C178.471 187.061 177.591 187.691 176.801 188.241C176.021 188.801 175.311 189.261 174.781 189.681C173.691 190.491 173.071 190.961 173.071 190.961L141.291 148.971C141.291 148.971 142.441 148.111 144.461 146.611C145.481 145.901 146.711 145.031 148.121 144.031C149.541 143.051 151.151 142.001 152.901 140.831C156.421 138.591 160.551 136.011 165.011 133.521C169.471 131.011 174.251 128.481 179.061 126.101C188.681 121.371 198.421 117.231 205.771 114.371C209.451 112.921 212.531 111.791 214.691 111.001C216.851 110.221 218.091 109.781 218.091 109.781V109.811L219.111 109.461C222.621 108.231 226.411 110.091 227.541 113.541C228.671 117.001 226.831 120.701 223.471 121.891C223.471 121.891 225.561 121.151 227.661 120.451C229.761 119.741 231.871 119.061 231.871 119.061C235.301 117.951 238.961 119.931 240.001 123.411C241.041 126.901 239.211 130.521 235.931 131.591C235.931 131.591 234.871 131.941 233.811 132.291C232.751 132.651 231.691 133.001 231.691 133.001C234.941 131.981 238.431 133.931 239.511 137.351L239.501 137.361Z" fill="#0C375B"/>
<path d="M208.411 128.261C207.571 128.261 206.781 127.751 206.451 126.921C206.031 125.841 206.561 124.621 207.651 124.201L211.821 122.571C214.091 121.701 217.531 120.411 221.121 119.141C224.141 118.071 227.561 116.911 230.501 115.951C233.051 115.121 234.801 114.581 234.821 114.581C235.931 114.241 237.101 114.861 237.441 115.971C237.781 117.081 237.161 118.261 236.051 118.591C236.031 118.591 234.311 119.131 231.801 119.941C228.891 120.891 225.511 122.031 222.521 123.091C218.971 124.351 215.561 125.631 213.331 126.481L209.171 128.101C208.921 128.201 208.661 128.241 208.411 128.241V128.261Z" fill="#0C375B"/>
<path d="M214.171 142.691C213.331 142.691 212.541 142.181 212.211 141.351C211.791 140.271 212.321 139.051 213.401 138.631L217.371 137.081C220.601 135.851 223.571 134.751 226.231 133.811C229.101 132.791 232.351 131.691 235.151 130.781L239.221 129.491C240.321 129.141 241.511 129.751 241.861 130.861C242.211 131.961 241.601 133.151 240.491 133.501L236.431 134.791C233.671 135.691 230.461 136.781 227.621 137.791C225.001 138.711 222.061 139.801 218.871 141.021L214.911 142.561C214.661 142.661 214.401 142.701 214.151 142.701L214.171 142.691Z" fill="#0C375B"/>
<path d="M218.921 155.84C218.091 155.84 217.301 155.34 216.971 154.52C216.541 153.44 217.061 152.22 218.141 151.79C218.191 151.77 223.111 149.81 228.031 148.02C230.451 147.14 232.951 146.26 234.891 145.6L238.011 144.56C239.111 144.19 240.301 144.78 240.671 145.88C241.041 146.98 240.451 148.17 239.351 148.54L236.241 149.58C234.331 150.23 231.861 151.1 229.471 151.97C224.611 153.73 219.761 155.67 219.711 155.69C219.451 155.79 219.191 155.84 218.931 155.84H218.921Z" fill="#0C375B"/>
<path d="M141.981 138.271C141.981 138.271 141.851 138.351 141.601 138.511C141.361 138.661 141.011 138.891 140.551 139.191C140.101 139.481 139.551 139.841 138.901 140.271C138.241 140.701 137.521 141.181 136.721 141.721C135.921 142.261 135.031 142.861 134.061 143.521C133.121 144.181 132.101 144.891 131.011 145.651C128.811 147.161 126.441 148.921 123.821 150.811C113.421 158.441 100.171 169.121 87.5912 180.611C81.2912 186.341 75.1612 192.281 69.5612 198.001C66.7112 200.801 64.1012 203.691 61.5812 206.361C60.3212 207.701 59.1012 209.011 57.9212 210.281C56.7612 211.571 55.6612 212.841 54.6012 214.051C52.4812 216.471 50.5312 218.691 48.8112 220.661C47.1212 222.671 45.6912 224.451 44.4912 225.911C42.1112 228.831 40.7412 230.501 40.7412 230.501L95.5412 274.151C95.5412 274.151 96.6712 272.771 98.6412 270.361C99.6312 269.161 100.811 267.681 102.201 266.021C103.631 264.381 105.251 262.541 107.021 260.521C107.901 259.511 108.811 258.451 109.781 257.381C110.771 256.321 111.801 255.231 112.851 254.101C114.971 251.861 117.131 249.441 119.551 247.081C124.261 242.261 129.441 237.251 134.781 232.391C145.431 222.661 156.711 213.561 165.341 207.241C167.501 205.681 169.471 204.211 171.231 203.011C172.111 202.401 172.921 201.821 173.681 201.291C174.431 200.781 175.121 200.321 175.741 199.901C176.361 199.481 176.921 199.101 177.381 198.801C177.851 198.491 178.251 198.231 178.571 198.021C178.901 197.811 179.141 197.641 179.291 197.561C179.441 197.461 179.521 197.411 179.521 197.411L141.951 138.271H141.981Z" fill="#AC90ED"/>
<path d="M93.6511 277.351C93.4911 277.261 93.3411 277.151 93.1911 277.031C91.6011 275.731 91.3611 273.371 92.6611 271.781L95.7611 267.991C96.1311 267.551 96.5111 267.081 96.9211 266.571C97.6411 265.691 98.4511 264.691 99.3511 263.611C99.3711 263.591 99.3911 263.571 99.4111 263.541L104.241 258.041C104.561 257.671 104.891 257.301 105.221 256.921C105.811 256.251 106.411 255.561 107.031 254.871C107.051 254.851 107.071 254.831 107.081 254.811L110.151 251.531C110.761 250.881 111.361 250.241 111.971 249.581C113.541 247.901 115.151 246.161 116.931 244.421C121.921 239.331 127.081 234.351 132.291 229.611C142.071 220.681 153.321 211.421 163.151 204.211C163.821 203.731 164.451 203.271 165.061 202.821C166.501 201.781 167.851 200.791 169.121 199.921L171.561 198.211C171.561 198.211 171.591 198.181 171.611 198.171L173.671 196.781C173.931 196.601 174.181 196.431 174.411 196.281L140.841 143.431C140.221 143.831 139.551 144.291 138.801 144.791L136.161 146.571L133.131 148.681C131.511 149.801 129.771 151.061 127.931 152.401C127.301 152.861 126.661 153.331 125.991 153.811C114.501 162.241 101.411 173.011 90.0911 183.351C84.0211 188.871 78.0111 194.671 72.2111 200.591L72.1611 200.641C70.1111 202.661 68.1611 204.751 66.2811 206.761C65.6111 207.481 64.9411 208.201 64.2811 208.901L60.6611 212.781C59.9111 213.611 59.1911 214.441 58.4811 215.241C58.1111 215.661 57.7511 216.081 57.3811 216.491L51.6311 223.061C50.5211 224.381 49.5111 225.621 48.6211 226.711C48.1711 227.261 47.7511 227.771 47.3611 228.251L43.6211 232.831C42.3211 234.431 39.9711 234.661 38.3711 233.361C36.7711 232.061 36.5411 229.711 37.8411 228.111L41.5911 223.521C41.9911 223.041 42.4011 222.531 42.8411 221.991C43.7511 220.871 44.7911 219.601 45.9411 218.231C45.9611 218.211 45.9711 218.191 45.9911 218.171L51.7811 211.561C52.1511 211.151 52.5011 210.741 52.8711 210.321C53.6011 209.481 54.3511 208.621 55.1311 207.761C55.1511 207.741 55.1611 207.721 55.1811 207.711L58.8411 203.791C59.5011 203.091 60.1611 202.381 60.8211 201.671C62.7511 199.601 64.7411 197.461 66.9011 195.341C72.7911 189.331 78.9011 183.441 85.0611 177.831C96.5711 167.321 109.881 156.371 121.591 147.781C122.271 147.291 122.901 146.821 123.531 146.371C125.411 145.001 127.181 143.711 128.871 142.551L131.901 140.431C131.901 140.431 131.931 140.411 131.951 140.401L134.611 138.601C135.421 138.051 136.161 137.551 136.851 137.111L139.961 135.091C141.701 133.991 144.001 134.511 145.101 136.241L182.671 195.381C183.201 196.221 183.381 197.231 183.161 198.201C182.941 199.171 182.351 200.011 181.511 200.541L181.281 200.691C181.281 200.691 181.261 200.701 181.241 200.711C181.121 200.791 180.901 200.931 180.621 201.121L179.421 201.901C178.981 202.181 178.461 202.531 177.831 202.961L175.781 204.341L173.351 206.041C173.351 206.041 173.331 206.051 173.321 206.061C172.141 206.871 170.821 207.831 169.421 208.851C168.801 209.301 168.161 209.771 167.511 210.241C157.901 217.281 146.881 226.361 137.291 235.121C132.171 239.781 127.101 244.671 122.211 249.661C122.191 249.681 122.171 249.701 122.151 249.721C120.491 251.341 118.931 253.031 117.411 254.651C116.791 255.321 116.171 255.991 115.561 256.631L112.531 259.871C111.941 260.531 111.371 261.181 110.821 261.821C110.481 262.211 110.151 262.591 109.821 262.961L105.031 268.421C104.171 269.441 103.391 270.411 102.691 271.271C102.271 271.781 101.881 272.271 101.511 272.711L98.4211 276.491C97.2411 277.941 95.1911 278.271 93.6311 277.341L93.6511 277.351Z" fill="#AC90ED"/>
<path d="M71.591 247.77C71.591 247.77 71.501 247.71 71.451 247.68C70.711 247.13 70.5611 246.1 71.1011 245.36C71.3311 245.05 76.8711 237.6 89.0811 225.34C100.321 214.06 119.561 196.46 147.391 176.62C148.141 176.09 149.171 176.26 149.701 177.01C150.231 177.76 150.061 178.79 149.311 179.32C121.661 199.03 102.571 216.5 91.4211 227.69C79.3811 239.77 73.8111 247.26 73.7611 247.34C73.2511 248.03 72.3011 248.21 71.5811 247.78L71.591 247.77Z" fill="#0C375B"/>
<path d="M72.0314 212.561C71.4914 212.241 71.1514 211.621 71.2314 210.951C71.3314 210.041 72.1514 209.381 73.0614 209.481C82.1614 210.491 92.5514 214.531 103.931 221.481C112.361 226.621 118.061 231.401 118.301 231.601C119.001 232.191 119.091 233.231 118.501 233.941C117.911 234.641 116.871 234.731 116.161 234.141C115.931 233.951 93.2914 215.071 72.6914 212.781C72.4514 212.751 72.2214 212.671 72.0314 212.561V212.561Z" fill="#0C375B"/>
<path d="M120.901 229.482C120.641 229.322 120.411 229.092 120.271 228.802C120.151 228.562 108.081 204.802 89.0914 195.162C88.2814 194.752 87.9514 193.752 88.3614 192.932C88.7714 192.112 89.7714 191.792 90.5914 192.202C110.591 202.352 122.731 226.302 123.241 227.322C123.651 228.142 123.321 229.132 122.501 229.542C121.981 229.802 121.381 229.762 120.911 229.482H120.901Z" fill="#0C375B"/>
<path d="M245.551 393.992C246.671 402.882 239.191 410.362 230.301 409.242C224.241 408.482 219.351 403.582 218.591 397.522C217.471 388.632 224.951 381.152 233.841 382.272C239.901 383.032 244.791 387.932 245.551 393.992Z" fill="#0C375B"/>
<path d="M287.131 393.992C288.251 402.892 280.771 410.372 271.871 409.242C265.811 408.472 260.931 403.582 260.171 397.522C259.061 388.632 266.531 381.162 275.421 382.282C281.481 383.042 286.371 387.932 287.141 393.992H287.131Z" fill="#0C375B"/>
<path d="M328.711 394.001C329.821 402.891 322.351 410.361 313.461 409.241C307.401 408.481 302.511 403.591 301.741 397.531C300.621 388.631 308.111 381.151 317.001 382.281C323.061 383.051 327.941 387.951 328.701 394.001H328.711Z" fill="#0C375B"/>
</svg>
