<svg width="91" height="23" viewBox="0 0 91 23" fill="none" xmlns="http://www.w3.org/2000/svg">
<path d="M1.4375 10.7813C1.4375 9.6376 1.89185 8.5407 2.7006 7.73195C3.50935 6.9232 4.60625 6.46885 5.75 6.46885H9.34375C9.38867 6.46885 14.0516 6.40596 18.4809 2.68643C18.6908 2.50923 18.9474 2.39635 19.2199 2.36129C19.4924 2.32623 19.7692 2.37049 20.0172 2.48877C20.2666 2.60218 20.4776 2.78577 20.6244 3.01711C20.7711 3.24846 20.8474 3.51755 20.8437 3.79151V17.7712C20.8474 18.0452 20.7711 18.3142 20.6244 18.5456C20.4776 18.7769 20.2666 18.9605 20.0172 19.0739C19.8255 19.1621 19.6172 19.208 19.4062 19.2087C19.0682 19.2109 18.7403 19.0931 18.4809 18.8763C15.0758 16.0192 11.5449 15.3185 10.0625 15.1478V18.3013C10.0633 18.5377 10.0055 18.7706 9.89418 18.9791C9.78285 19.1877 9.6215 19.3654 9.42461 19.4962L8.43633 20.161C8.24174 20.2842 8.02156 20.3611 7.79264 20.386C7.56373 20.4109 7.33214 20.3832 7.11562 20.3048C6.90065 20.2213 6.70909 20.0869 6.55733 19.9133C6.40557 19.7396 6.29811 19.5318 6.24414 19.3075L5.175 15.0579C4.14129 14.915 3.19395 14.4037 2.50724 13.6179C1.82054 12.8322 1.44066 11.8249 1.4375 10.7813V10.7813ZM7.63672 18.9571L8.625 18.3013V15.0938H6.6664L7.63672 18.9571ZM5.75 13.6563H8.625V7.90635H5.75C4.9875 7.90635 4.25623 8.20925 3.71707 8.74842C3.1779 9.28758 2.875 10.0189 2.875 10.7813C2.875 11.5438 3.1779 12.2751 3.71707 12.8143C4.25623 13.3534 4.9875 13.6563 5.75 13.6563Z" fill="#006FD7"/>
<path d="M28.4574 12.0772L29.9489 17.2051H30.0057L31.4972 12.0772H33.7273L31.3267 19.35H28.6278L26.2273 12.0772H28.4574ZM41.0142 15.7136C41.0142 16.5233 40.8568 17.2063 40.5419 17.7626C40.227 18.3166 39.8021 18.7368 39.267 19.0233C38.732 19.3074 38.1354 19.4494 37.4773 19.4494C36.8144 19.4494 36.2154 19.3062 35.6804 19.0197C35.1477 18.7309 34.724 18.3095 34.4091 17.7555C34.0966 17.1992 33.9403 16.5185 33.9403 15.7136C33.9403 14.904 34.0966 14.2221 34.4091 13.6682C34.724 13.1118 35.1477 12.6916 35.6804 12.4075C36.2154 12.121 36.8144 11.9778 37.4773 11.9778C38.1354 11.9778 38.732 12.121 39.267 12.4075C39.8021 12.6916 40.227 13.1118 40.5419 13.6682C40.8568 14.2221 41.0142 14.904 41.0142 15.7136ZM38.983 15.7136C38.983 15.278 38.925 14.9111 38.8089 14.6128C38.6953 14.3121 38.526 14.0848 38.3011 13.9309C38.0786 13.7747 37.804 13.6966 37.4773 13.6966C37.1506 13.6966 36.8748 13.7747 36.6499 13.9309C36.4273 14.0848 36.258 14.3121 36.142 14.6128C36.0284 14.9111 35.9716 15.278 35.9716 15.7136C35.9716 16.1492 36.0284 16.5174 36.142 16.818C36.258 17.1163 36.4273 17.3436 36.6499 17.4998C36.8748 17.6537 37.1506 17.7307 37.4773 17.7307C37.804 17.7307 38.0786 17.6537 38.3011 17.4998C38.526 17.3436 38.6953 17.1163 38.8089 16.818C38.925 16.5174 38.983 16.1492 38.983 15.7136ZM41.9561 19.35V18.2562L45.3936 13.6682H41.9703V12.0772H47.9078V13.171L44.4703 17.7591H47.8936V19.35H41.9561ZM50.565 12.0772H52.7667L54.1871 15.0318H54.244L55.6644 12.0772H57.8661L55.1957 17.063V19.35H53.2354V17.063L50.565 12.0772ZM60.3031 13.6682V12.0772H66.6241V13.6682H64.4366V19.35H62.4906V13.6682H60.3031ZM74.0708 15.7136C74.0708 16.5233 73.9134 17.2063 73.5985 17.7626C73.2837 18.3166 72.8587 18.7368 72.3237 19.0233C71.7886 19.3074 71.1921 19.4494 70.5339 19.4494C69.871 19.4494 69.2721 19.3062 68.737 19.0197C68.2044 18.7309 67.7806 18.3095 67.4657 17.7555C67.1532 17.1992 66.997 16.5185 66.997 15.7136C66.997 14.904 67.1532 14.2221 67.4657 13.6682C67.7806 13.1118 68.2044 12.6916 68.737 12.4075C69.2721 12.121 69.871 11.9778 70.5339 11.9778C71.1921 11.9778 71.7886 12.121 72.3237 12.4075C72.8587 12.6916 73.2837 13.1118 73.5985 13.6682C73.9134 14.2221 74.0708 14.904 74.0708 15.7136ZM72.0396 15.7136C72.0396 15.278 71.9816 14.9111 71.8656 14.6128C71.752 14.3121 71.5827 14.0848 71.3578 13.9309C71.1352 13.7747 70.8606 13.6966 70.5339 13.6966C70.2072 13.6966 69.9314 13.7747 69.7065 13.9309C69.484 14.0848 69.3147 14.3121 69.1987 14.6128C69.085 14.9111 69.0282 15.278 69.0282 15.7136C69.0282 16.1492 69.085 16.5174 69.1987 16.818C69.3147 17.1163 69.484 17.3436 69.7065 17.4998C69.9314 17.6537 70.2072 17.7307 70.5339 17.7307C70.8606 17.7307 71.1352 17.6537 71.3578 17.4998C71.5827 17.3436 71.752 17.1163 71.8656 16.818C71.9816 16.5174 72.0396 16.1492 72.0396 15.7136ZM81.277 12.0772V19.35H79.6293L77.0014 15.529H76.9588V19.35H74.9844V12.0772H76.6605L79.2457 15.8841H79.3026V12.0772H81.277ZM89.2564 15.7136C89.2564 16.5233 89.099 17.2063 88.7841 17.7626C88.4692 18.3166 88.0443 18.7368 87.5092 19.0233C86.9742 19.3074 86.3776 19.4494 85.7195 19.4494C85.0566 19.4494 84.4576 19.3062 83.9226 19.0197C83.3899 18.7309 82.9661 18.3095 82.6513 17.7555C82.3388 17.1992 82.1825 16.5185 82.1825 15.7136C82.1825 14.904 82.3388 14.2221 82.6513 13.6682C82.9661 13.1118 83.3899 12.6916 83.9226 12.4075C84.4576 12.121 85.0566 11.9778 85.7195 11.9778C86.3776 11.9778 86.9742 12.121 87.5092 12.4075C88.0443 12.6916 88.4692 13.1118 88.7841 13.6682C89.099 14.2221 89.2564 14.904 89.2564 15.7136ZM87.2251 15.7136C87.2251 15.278 87.1671 14.9111 87.0511 14.6128C86.9375 14.3121 86.7682 14.0848 86.5433 13.9309C86.3208 13.7747 86.0462 13.6966 85.7195 13.6966C85.3928 13.6966 85.117 13.7747 84.892 13.9309C84.6695 14.0848 84.5002 14.3121 84.3842 14.6128C84.2706 14.9111 84.2138 15.278 84.2138 15.7136C84.2138 16.1492 84.2706 16.5174 84.3842 16.818C84.5002 17.1163 84.6695 17.3436 84.892 17.4998C85.117 17.6537 85.3928 17.7307 85.7195 17.7307C86.0462 17.7307 86.3208 17.6537 86.5433 17.4998C86.7682 17.3436 86.9375 17.1163 87.0511 16.818C87.1671 16.5174 87.2251 16.1492 87.2251 15.7136Z" fill="#006FD7"/>
<path d="M26.7926 3.45455H27.7386L29.9631 8.88778H30.0398L32.2642 3.45455H33.2102V10H32.4688V5.02699H32.4048L30.3594 10H29.6435L27.598 5.02699H27.5341V10H26.7926V3.45455ZM36.1418 10.1151C35.8307 10.1151 35.5484 10.0565 35.2948 9.93928C35.0413 9.81996 34.8399 9.64844 34.6908 9.42472C34.5416 9.19886 34.4671 8.92614 34.4671 8.60653C34.4671 8.32528 34.5225 8.0973 34.6333 7.92259C34.7441 7.74574 34.8921 7.60724 35.0775 7.5071C35.2629 7.40696 35.4674 7.33239 35.6911 7.28338C35.917 7.23224 36.1439 7.19176 36.3719 7.16193C36.6702 7.12358 36.912 7.09482 37.0974 7.07564C37.2849 7.05433 37.4213 7.01918 37.5065 6.97017C37.5938 6.92116 37.6375 6.83594 37.6375 6.71449V6.68892C37.6375 6.37358 37.5512 6.12855 37.3786 5.95384C37.2082 5.77912 36.9493 5.69176 36.602 5.69176C36.2419 5.69176 35.9596 5.7706 35.7551 5.92827C35.5505 6.08594 35.4067 6.25426 35.3236 6.43324L34.6077 6.17756C34.7355 5.87926 34.906 5.64702 35.1191 5.48082C35.3343 5.3125 35.5686 5.19531 35.8222 5.12926C36.0779 5.06108 36.3293 5.02699 36.5764 5.02699C36.7341 5.02699 36.9152 5.04616 37.1198 5.08452C37.3264 5.12074 37.5257 5.19638 37.7174 5.31143C37.9113 5.42649 38.0722 5.60014 38.2 5.83239C38.3279 6.06463 38.3918 6.37571 38.3918 6.76562V10H37.6375V9.33523H37.5992C37.548 9.44176 37.4628 9.55575 37.3435 9.6772C37.2242 9.79865 37.0654 9.90199 36.8673 9.98722C36.6691 10.0724 36.4273 10.1151 36.1418 10.1151ZM36.2568 9.4375C36.5551 9.4375 36.8066 9.37891 37.0111 9.26172C37.2178 9.14453 37.3733 8.99325 37.4777 8.80788C37.5843 8.62251 37.6375 8.42756 37.6375 8.22301V7.53267C37.6056 7.57102 37.5352 7.60618 37.4266 7.63814C37.32 7.66797 37.1965 7.6946 37.0558 7.71804C36.9173 7.73935 36.782 7.75852 36.6499 7.77557C36.52 7.79048 36.4145 7.80327 36.3335 7.81392C36.1375 7.83949 35.9543 7.88104 35.7838 7.93857C35.6155 7.99396 35.4791 8.07812 35.3747 8.19105C35.2725 8.30185 35.2213 8.45312 35.2213 8.64489C35.2213 8.90696 35.3183 9.10511 35.5122 9.23935C35.7082 9.37145 35.9564 9.4375 36.2568 9.4375ZM40.5227 7.04688V10H39.7685V5.09091H40.4972V5.85795H40.5611C40.6761 5.60866 40.8509 5.40838 41.0852 5.2571C41.3196 5.10369 41.6222 5.02699 41.9929 5.02699C42.3253 5.02699 42.6161 5.09517 42.8654 5.23153C43.1147 5.36577 43.3086 5.57031 43.4471 5.84517C43.5856 6.1179 43.6548 6.46307 43.6548 6.88068V10H42.9006V6.93182C42.9006 6.54616 42.8004 6.24574 42.6001 6.03054C42.3999 5.81321 42.125 5.70455 41.7756 5.70455C41.5348 5.70455 41.3196 5.75675 41.13 5.86115C40.9425 5.96555 40.7944 6.1179 40.6857 6.31818C40.5771 6.51847 40.5227 6.76136 40.5227 7.04688ZM48.1269 7.9929V5.09091H48.8811V10H48.1269V9.16903H48.0757C47.9607 9.41832 47.7817 9.63033 47.5388 9.80504C47.2959 9.97763 46.9891 10.0639 46.6183 10.0639C46.3115 10.0639 46.0388 9.9968 45.8002 9.86257C45.5615 9.72621 45.374 9.52166 45.2377 9.24893C45.1013 8.97408 45.0331 8.62784 45.0331 8.21023V5.09091H45.7874V8.15909C45.7874 8.51705 45.8875 8.80256 46.0878 9.01562C46.2902 9.22869 46.548 9.33523 46.8612 9.33523C47.0487 9.33523 47.2394 9.28729 47.4333 9.19141C47.6294 9.09553 47.7934 8.94851 47.9255 8.75036C48.0597 8.5522 48.1269 8.29972 48.1269 7.9929ZM51.7072 10.1151C51.3961 10.1151 51.1138 10.0565 50.8603 9.93928C50.6067 9.81996 50.4054 9.64844 50.2562 9.42472C50.1071 9.19886 50.0325 8.92614 50.0325 8.60653C50.0325 8.32528 50.0879 8.0973 50.1987 7.92259C50.3095 7.74574 50.4576 7.60724 50.6429 7.5071C50.8283 7.40696 51.0328 7.33239 51.2566 7.28338C51.4824 7.23224 51.7093 7.19176 51.9373 7.16193C52.2356 7.12358 52.4775 7.09482 52.6628 7.07564C52.8503 7.05433 52.9867 7.01918 53.0719 6.97017C53.1593 6.92116 53.2029 6.83594 53.2029 6.71449V6.68892C53.2029 6.37358 53.1167 6.12855 52.9441 5.95384C52.7736 5.77912 52.5147 5.69176 52.1674 5.69176C51.8074 5.69176 51.525 5.7706 51.3205 5.92827C51.1159 6.08594 50.9721 6.25426 50.889 6.43324L50.1731 6.17756C50.301 5.87926 50.4714 5.64702 50.6845 5.48082C50.8997 5.3125 51.1341 5.19531 51.3876 5.12926C51.6433 5.06108 51.8947 5.02699 52.1419 5.02699C52.2995 5.02699 52.4806 5.04616 52.6852 5.08452C52.8919 5.12074 53.0911 5.19638 53.2828 5.31143C53.4767 5.42649 53.6376 5.60014 53.7654 5.83239C53.8933 6.06463 53.9572 6.37571 53.9572 6.76562V10H53.2029V9.33523H53.1646C53.1135 9.44176 53.0282 9.55575 52.9089 9.6772C52.7896 9.79865 52.6309 9.90199 52.4327 9.98722C52.2346 10.0724 51.9927 10.1151 51.7072 10.1151ZM51.8223 9.4375C52.1206 9.4375 52.372 9.37891 52.5765 9.26172C52.7832 9.14453 52.9387 8.99325 53.0431 8.80788C53.1497 8.62251 53.2029 8.42756 53.2029 8.22301V7.53267C53.171 7.57102 53.1007 7.60618 52.992 7.63814C52.8855 7.66797 52.7619 7.6946 52.6213 7.71804C52.4828 7.73935 52.3475 7.75852 52.2154 7.77557C52.0854 7.79048 51.9799 7.80327 51.899 7.81392C51.7029 7.83949 51.5197 7.88104 51.3493 7.93857C51.1809 7.99396 51.0446 8.07812 50.9402 8.19105C50.8379 8.30185 50.7868 8.45312 50.7868 8.64489C50.7868 8.90696 50.8837 9.10511 51.0776 9.23935C51.2736 9.37145 51.5218 9.4375 51.8223 9.4375ZM56.0882 3.45455V10H55.3339V3.45455H56.0882Z" fill="#006FD7"/>
</svg>
