<svg width="1127" height="278" viewBox="0 0 1127 278" fill="none" xmlns="http://www.w3.org/2000/svg">
<path d="M68.6729 137.148C68.6729 126.587 72.8681 116.459 80.3355 108.992C87.803 101.524 97.931 97.3292 108.492 97.3292H141.674C142.089 97.3292 185.143 96.7485 226.04 62.4049C227.979 60.7688 230.348 59.7264 232.864 59.4028C235.38 59.0791 237.936 59.4878 240.225 60.5798C242.528 61.627 244.476 63.3221 245.832 65.4582C247.187 67.5943 247.891 70.0789 247.857 72.6084V201.688C247.891 204.217 247.187 206.702 245.832 208.838C244.476 210.974 242.528 212.669 240.225 213.716C238.456 214.53 236.532 214.954 234.584 214.96C231.463 214.981 228.435 213.893 226.04 211.891C194.6 185.511 161.998 179.041 148.31 177.464V206.582C148.318 208.765 147.784 210.915 146.756 212.841C145.728 214.767 144.239 216.407 142.421 217.615L133.295 223.754C131.499 224.891 129.466 225.601 127.352 225.831C125.238 226.061 123.1 225.805 121.101 225.081C119.116 224.31 117.347 223.069 115.946 221.466C114.545 219.862 113.553 217.943 113.054 215.873L103.182 176.635C93.6379 175.316 84.8907 170.594 78.5502 163.339C72.2096 156.084 68.7021 146.783 68.6729 137.148V137.148ZM125.912 212.638L135.037 206.582V176.967H116.953L125.912 212.638ZM108.492 163.694H135.037V110.602H108.492C101.451 110.602 94.6992 113.399 89.7209 118.377C84.7426 123.356 81.9458 130.108 81.9458 137.148C81.9458 144.188 84.7426 150.94 89.7209 155.919C94.6992 160.897 101.451 163.694 108.492 163.694Z" fill="#006FD7"/>
<path d="M316.924 180.012V162.385H386.961V180.012H362.723V242.967H341.161V180.012H316.924ZM469.47 202.676C469.47 211.647 467.726 219.214 464.237 225.379C460.749 231.517 456.04 236.173 450.112 239.347C444.184 242.494 437.573 244.068 430.281 244.068C422.937 244.068 416.3 242.481 410.372 239.307C404.47 236.107 399.774 231.438 396.286 225.3C392.823 219.136 391.092 211.594 391.092 202.676C391.092 193.705 392.823 186.15 396.286 180.012C399.774 173.848 404.47 169.192 410.372 166.044C416.3 162.87 422.937 161.283 430.281 161.283C437.573 161.283 444.184 162.87 450.112 166.044C456.04 169.192 460.749 173.848 464.237 180.012C467.726 186.15 469.47 193.705 469.47 202.676ZM446.964 202.676C446.964 197.849 446.322 193.783 445.036 190.478C443.777 187.147 441.902 184.629 439.41 182.924C436.944 181.192 433.901 180.327 430.281 180.327C426.661 180.327 423.605 181.192 421.113 182.924C418.648 184.629 416.772 187.147 415.487 190.478C414.228 193.783 413.598 197.849 413.598 202.676C413.598 207.502 414.228 211.581 415.487 214.912C416.772 218.218 418.648 220.736 421.113 222.467C423.605 224.172 426.661 225.025 430.281 225.025C433.901 225.025 436.944 224.172 439.41 222.467C441.902 220.736 443.777 218.218 445.036 214.912C446.322 211.581 446.964 207.502 446.964 202.676ZM549.315 162.385V242.967H531.058L501.941 200.63H501.469V242.967H479.592V162.385H498.164L526.808 204.564H527.438V162.385H549.315ZM637.726 202.676C637.726 211.647 635.982 219.214 632.493 225.379C629.004 231.517 624.296 236.173 618.368 239.347C612.44 242.494 605.829 244.068 598.537 244.068C591.192 244.068 584.556 242.481 578.628 239.307C572.726 236.107 568.03 231.438 564.542 225.3C561.079 219.136 559.348 211.594 559.348 202.676C559.348 193.705 561.079 186.15 564.542 180.012C568.03 173.848 572.726 169.192 578.628 166.044C584.556 162.87 591.192 161.283 598.537 161.283C605.829 161.283 612.44 162.87 618.368 166.044C624.296 169.192 629.004 173.848 632.493 180.012C635.982 186.15 637.726 193.705 637.726 202.676ZM615.22 202.676C615.22 197.849 614.577 193.783 613.292 190.478C612.033 187.147 610.157 184.629 607.665 182.924C605.2 181.192 602.157 180.327 598.537 180.327C594.917 180.327 591.861 181.192 589.369 182.924C586.904 184.629 585.028 187.147 583.743 190.478C582.484 193.783 581.854 197.849 581.854 202.676C581.854 207.502 582.484 211.581 583.743 214.912C585.028 218.218 586.904 220.736 589.369 222.467C591.861 224.172 594.917 225.025 598.537 225.025C602.157 225.025 605.2 224.172 607.665 222.467C610.157 220.736 612.033 218.218 613.292 214.912C614.577 211.581 615.22 207.502 615.22 202.676ZM666.617 162.385H691.011L706.75 195.121H707.38L723.118 162.385H747.513L717.924 217.627V242.967H696.205V217.627L666.617 162.385ZM798.752 162.385L815.278 219.201H815.907L832.433 162.385H857.143L830.544 242.967H800.641L774.043 162.385H798.752ZM937.882 202.676C937.882 211.647 936.137 219.214 932.649 225.379C929.16 231.517 924.451 236.173 918.523 239.347C912.595 242.494 905.985 244.068 898.693 244.068C891.348 244.068 884.711 242.481 878.783 239.307C872.881 236.107 868.186 231.438 864.697 225.3C861.235 219.136 859.503 211.594 859.503 202.676C859.503 193.705 861.235 186.15 864.697 180.012C868.186 173.848 872.881 169.192 878.783 166.044C884.711 162.87 891.348 161.283 898.693 161.283C905.985 161.283 912.595 162.87 918.523 166.044C924.451 169.192 929.16 173.848 932.649 180.012C936.137 186.15 937.882 193.705 937.882 202.676ZM915.376 202.676C915.376 197.849 914.733 193.783 913.448 190.478C912.188 187.147 910.313 184.629 907.821 182.924C905.355 181.192 902.312 180.327 898.693 180.327C895.073 180.327 892.017 181.192 889.525 182.924C887.059 184.629 885.184 187.147 883.898 190.478C882.639 193.783 882.01 197.849 882.01 202.676C882.01 207.502 882.639 211.581 883.898 214.912C885.184 218.218 887.059 220.736 889.525 222.467C892.017 224.172 895.073 225.025 898.693 225.025C902.312 225.025 905.355 224.172 907.821 222.467C910.313 220.736 912.188 218.218 913.448 214.912C914.733 211.581 915.376 207.502 915.376 202.676ZM948.318 242.967V230.848L986.406 180.012H948.476V162.385H1014.26V174.503L976.176 225.339H1014.11V242.967H948.318Z" fill="#006FD7"/>
<path d="M321.252 48.2636H329.987L350.526 98.4305H351.234L371.773 48.2636H380.508V108.7H373.661V62.7825H373.071L354.185 108.7H347.575L328.688 62.7825H328.098V108.7H321.252V48.2636ZM407.576 109.762C404.703 109.762 402.097 109.221 399.756 108.139C397.415 107.038 395.555 105.454 394.178 103.388C392.801 101.303 392.113 98.7846 392.113 95.8336C392.113 93.2367 392.624 91.1317 393.647 89.5185C394.67 87.8856 396.037 86.6068 397.749 85.6822C399.461 84.7575 401.349 84.069 403.415 83.6165C405.5 83.1443 407.595 82.7705 409.701 82.4951C412.455 82.141 414.688 81.8754 416.399 81.6983C418.131 81.5016 419.39 81.177 420.177 80.7245C420.983 80.272 421.386 79.4851 421.386 78.3637V78.1276C421.386 75.216 420.59 72.9536 418.996 71.3404C417.422 69.7271 415.032 68.9205 411.825 68.9205C408.5 68.9205 405.894 69.6485 404.005 71.1043C402.116 72.5601 400.789 74.1143 400.021 75.7669L393.411 73.4061C394.591 70.6518 396.165 68.5074 398.133 66.9729C400.12 65.4187 402.284 64.3367 404.625 63.7268C406.986 63.0972 409.307 62.7825 411.589 62.7825C413.045 62.7825 414.717 62.9595 416.606 63.3137C418.514 63.6481 420.354 64.3465 422.124 65.4089C423.914 66.4712 425.4 68.0746 426.58 70.219C427.761 72.3634 428.351 75.2357 428.351 78.8359V108.7H421.386V102.562H421.032C420.56 103.546 419.773 104.598 418.672 105.719C417.57 106.841 416.104 107.795 414.275 108.582C412.445 109.369 410.212 109.762 407.576 109.762ZM408.638 103.506C411.392 103.506 413.714 102.965 415.602 101.883C417.511 100.801 418.947 99.4043 419.911 97.6927C420.895 95.9812 421.386 94.1811 421.386 92.2924V85.9183C421.091 86.2724 420.442 86.597 419.439 86.8921C418.455 87.1675 417.314 87.4134 416.016 87.6298C414.737 87.8266 413.488 88.0036 412.268 88.161C411.068 88.2987 410.094 88.4168 409.346 88.5151C407.536 88.7512 405.845 89.1349 404.271 89.666C402.716 90.1775 401.457 90.9546 400.493 91.9973C399.549 93.0203 399.077 94.4171 399.077 96.1877C399.077 98.6075 399.972 100.437 401.762 101.677C403.572 102.896 405.864 103.506 408.638 103.506ZM448.027 81.4328V108.7H441.062V63.3727H447.79V70.4551H448.381C449.443 68.1533 451.056 66.304 453.22 64.9072C455.384 63.4907 458.178 62.7825 461.601 62.7825C464.67 62.7825 467.356 63.412 469.657 64.6711C471.959 65.9105 473.749 67.7992 475.028 70.337C476.307 72.8552 476.946 76.0423 476.946 79.8982V108.7H469.982V80.3704C469.982 76.8095 469.057 74.0356 467.208 72.0486C465.359 70.0419 462.821 69.0386 459.594 69.0386C457.371 69.0386 455.384 69.5206 453.633 70.4846C451.902 71.4486 450.535 72.8552 449.532 74.7045C448.528 76.5538 448.027 78.7965 448.027 81.4328ZM518.238 90.1677V63.3727H525.202V108.7H518.238V101.027H517.766C516.704 103.329 515.051 105.287 512.808 106.9C510.565 108.493 507.733 109.29 504.309 109.29C501.476 109.29 498.958 108.67 496.755 107.431C494.551 106.172 492.82 104.283 491.561 101.765C490.302 99.2273 489.672 96.0303 489.672 92.1744V63.3727H496.637V91.7022C496.637 95.0073 497.561 97.6436 499.411 99.6109C501.28 101.578 503.66 102.562 506.552 102.562C508.283 102.562 510.044 102.119 511.834 101.234C513.644 100.349 515.159 98.9912 516.379 97.1616C517.618 95.3319 518.238 93.0007 518.238 90.1677ZM551.297 109.762C548.424 109.762 545.818 109.221 543.476 108.139C541.135 107.038 539.276 105.454 537.899 103.388C536.522 101.303 535.833 98.7846 535.833 95.8336C535.833 93.2367 536.345 91.1317 537.368 89.5185C538.391 87.8856 539.758 86.6068 541.47 85.6822C543.181 84.7575 545.07 84.069 547.136 83.6165C549.221 83.1443 551.316 82.7705 553.421 82.4951C556.176 82.141 558.408 81.8754 560.12 81.6983C561.851 81.5016 563.11 81.177 563.897 80.7245C564.704 80.272 565.107 79.4851 565.107 78.3637V78.1276C565.107 75.216 564.31 72.9536 562.717 71.3404C561.143 69.7271 558.753 68.9205 555.546 68.9205C552.221 68.9205 549.615 69.6485 547.726 71.1043C545.837 72.5601 544.509 74.1143 543.742 75.7669L537.132 73.4061C538.312 70.6518 539.886 68.5074 541.853 66.9729C543.84 65.4187 546.004 64.3367 548.346 63.7268C550.706 63.0972 553.028 62.7825 555.31 62.7825C556.766 62.7825 558.438 62.9595 560.327 63.3137C562.235 63.6481 564.074 64.3465 565.845 65.4089C567.635 66.4712 569.121 68.0746 570.301 70.219C571.481 72.3634 572.072 75.2357 572.072 78.8359V108.7H565.107V102.562H564.753C564.281 103.546 563.494 104.598 562.392 105.719C561.291 106.841 559.825 107.795 557.995 108.582C556.166 109.369 553.933 109.762 551.297 109.762ZM552.359 103.506C555.113 103.506 557.435 102.965 559.323 101.883C561.232 100.801 562.668 99.4043 563.632 97.6927C564.615 95.9812 565.107 94.1811 565.107 92.2924V85.9183C564.812 86.2724 564.163 86.597 563.16 86.8921C562.176 87.1675 561.035 87.4134 559.736 87.6298C558.458 87.8266 557.208 88.0036 555.989 88.161C554.789 88.2987 553.815 88.4168 553.067 88.5151C551.257 88.7512 549.565 89.1349 547.991 89.666C546.437 90.1775 545.178 90.9546 544.214 91.9973C543.27 93.0203 542.798 94.4171 542.798 96.1877C542.798 98.6075 543.693 100.437 545.483 101.677C547.293 102.896 549.585 103.506 552.359 103.506ZM591.747 48.2636V108.7H584.783V48.2636H591.747Z" fill="#006FD7"/>
</svg>
