<svg width="521" height="528" viewBox="0 0 521 528" fill="none" xmlns="http://www.w3.org/2000/svg">
<rect width="521" height="528" fill="white"/>
<path d="M383.547 128.374L348.397 126.374C348.017 126.354 347.667 126.434 347.357 126.594C346.717 126.914 346.267 127.554 346.227 128.314C346.167 129.444 347.027 130.414 348.157 130.474L383.317 132.474C384.447 132.534 385.417 131.674 385.487 130.544C385.547 129.414 384.687 128.444 383.547 128.374Z" fill="#0C375B"/>
<path d="M338.417 90.7942C338.927 91.8042 340.157 92.2142 341.177 91.7042L372.617 75.8542C373.627 75.3442 374.037 74.1142 373.527 73.0942C373.017 72.0842 371.787 71.6742 370.767 72.1842L339.327 88.0342C338.317 88.5442 337.907 89.7742 338.417 90.7942Z" fill="#0C375B"/>
<path d="M315.747 61.6143L335.057 32.1743C335.677 31.2243 335.417 29.9543 334.467 29.3343C333.827 28.9143 333.047 28.9043 332.417 29.2243C332.107 29.3843 331.827 29.6143 331.627 29.9243L312.317 59.3743C311.697 60.3243 311.957 61.5943 312.907 62.2143C313.857 62.8343 315.127 62.5743 315.747 61.6243V61.6143Z" fill="#0C375B"/>
<path d="M211.607 386.174L225.047 395.594C225.757 396.094 226.697 396.094 227.407 395.594L239.667 386.994L251.927 395.594C252.637 396.094 253.577 396.094 254.287 395.594L266.547 386.994L278.807 395.594C279.517 396.094 280.457 396.094 281.167 395.594L293.427 386.994L305.687 395.594C306.397 396.094 307.337 396.094 308.047 395.594L320.307 386.994L332.567 395.594C333.277 396.094 334.217 396.094 334.927 395.594L348.367 386.174C349.297 385.524 349.517 384.244 348.867 383.314C348.467 382.744 347.827 382.444 347.187 382.444C346.777 382.444 346.367 382.564 346.007 382.814L333.747 391.414L321.487 382.814C320.777 382.314 319.837 382.314 319.127 382.814L306.867 391.414L294.607 382.814C293.897 382.314 292.957 382.314 292.257 382.814L279.997 391.414L267.737 382.814C267.027 382.314 266.087 382.314 265.377 382.814L253.117 391.414L240.857 382.814C240.147 382.314 239.207 382.314 238.497 382.814L226.237 391.414L213.977 382.814C213.047 382.164 211.767 382.384 211.117 383.314C210.467 384.244 210.687 385.524 211.617 386.174H211.607Z" fill="#AC90ED"/>
<path d="M463.547 366.574C464.267 366.644 464.997 366.304 465.567 365.614C466.137 364.924 466.527 363.944 466.577 362.884C466.577 362.884 466.597 362.454 466.637 361.644C466.657 361.234 466.677 360.734 466.707 360.154C466.727 359.564 466.737 358.884 466.747 358.124C466.797 355.084 466.747 350.714 466.167 345.484C465.597 340.254 464.517 334.164 462.667 327.874C461.747 324.734 460.667 321.534 459.407 318.384C458.147 315.234 456.727 312.104 455.177 309.084C452.097 303.024 448.487 297.404 444.837 292.474C441.187 287.534 437.477 283.324 434.197 279.864C430.907 276.424 428.037 273.754 425.997 271.924C424.977 271.014 424.167 270.304 423.607 269.834C423.047 269.364 422.757 269.104 422.757 269.104C422.617 268.984 422.467 268.874 422.307 268.774L421.767 268.314C419.327 266.274 416.397 265.324 413.767 265.434C411.127 265.534 408.777 266.694 407.317 268.764C406.557 269.834 406.097 271.044 405.907 272.304L405.677 272.144C403.357 270.474 400.547 269.784 397.917 270.214C395.347 270.634 393.267 272.064 392.037 274.144C391.047 275.804 390.697 277.664 390.807 279.474C390.927 281.284 391.527 283.054 392.547 284.564C391.227 285.244 390.077 286.264 389.217 287.574C388.097 289.284 387.587 291.214 387.587 293.064C387.587 294.924 388.097 296.694 389.077 298.154C387.877 298.814 386.807 299.764 385.937 300.954C384.447 303.004 383.807 305.364 383.867 307.504C383.937 309.644 384.707 311.564 386.217 312.854C386.217 312.854 386.907 313.434 387.907 314.324C388.907 315.214 390.217 316.434 391.457 317.674C392.707 318.914 393.897 320.184 394.757 321.154C395.187 321.634 395.537 322.034 395.787 322.324C396.027 322.614 396.167 322.774 396.167 322.774C396.257 322.874 396.347 322.974 396.457 323.044C396.457 323.044 396.567 323.174 396.777 323.424C396.987 323.674 397.277 324.044 397.657 324.514C398.397 325.464 399.447 326.814 400.577 328.464C401.707 330.114 402.917 332.064 404.047 334.164C405.157 336.274 406.197 338.524 407.017 340.804C407.837 343.074 408.477 345.354 408.917 347.524C409.347 349.684 409.587 351.724 409.717 353.494C409.837 355.264 409.817 356.764 409.797 357.814C409.797 358.344 409.757 358.764 409.747 359.044C409.737 359.324 409.467 368.074 409.467 368.074C409.407 369.084 414.777 368.174 416.297 368.324L463.557 366.574H463.547Z" fill="white"/>
<path d="M408.807 370.965C407.487 370.465 406.677 369.295 406.727 367.965C406.767 366.485 406.977 359.595 407.007 358.955C407.007 358.825 407.017 358.675 407.027 358.505C407.037 358.285 407.057 358.055 407.057 357.805V357.765C407.077 356.625 407.087 355.275 406.977 353.675C406.847 351.785 406.597 349.895 406.227 348.055C405.807 346.005 405.207 343.875 404.427 341.735C403.707 339.745 402.757 337.625 401.607 335.445C400.647 333.655 399.527 331.825 398.297 330.015C397.227 328.455 396.247 327.165 395.507 326.225L394.507 325.005C394.347 324.865 394.197 324.705 394.057 324.545L393.697 324.115L392.697 322.965C391.747 321.905 390.587 320.675 389.527 319.625C388.117 318.215 386.767 316.985 386.087 316.375C385.537 315.885 385.097 315.505 384.807 315.255L384.437 314.945C382.397 313.195 381.227 310.595 381.137 307.595C381.057 304.695 381.977 301.775 383.727 299.355C384.287 298.585 384.907 297.895 385.597 297.295C385.107 295.975 384.857 294.545 384.857 293.065C384.857 290.555 385.577 288.145 386.947 286.075C387.527 285.185 388.227 284.385 389.017 283.695C388.497 282.415 388.187 281.055 388.097 279.665C387.937 277.175 388.487 274.785 389.697 272.755C391.347 269.965 394.197 268.055 397.497 267.525C399.767 267.155 402.167 267.435 404.397 268.335C404.607 267.945 404.847 267.565 405.107 267.195C407.027 264.485 410.147 262.855 413.677 262.715C415.447 262.645 417.307 262.955 419.067 263.615C420.677 264.225 422.187 265.105 423.537 266.235L423.977 266.605C424.167 266.735 424.357 266.875 424.527 267.025L425.397 267.765C425.947 268.235 426.767 268.945 427.827 269.885C430.657 272.415 433.467 275.135 436.187 277.975C440.267 282.265 443.817 286.475 447.047 290.845C451.157 296.385 454.717 302.105 457.627 307.835C459.207 310.945 460.667 314.145 461.957 317.365C463.167 320.375 464.287 323.645 465.297 327.105C466.997 332.875 468.207 338.955 468.887 345.175C469.357 349.465 469.557 353.715 469.487 358.165V358.815C469.467 359.345 469.457 359.825 469.447 360.255L469.317 363.015C469.237 364.615 468.667 366.155 467.697 367.345C466.587 368.685 465.077 369.395 463.507 369.315L416.207 371.065L416.017 371.045C415.717 371.015 414.677 371.095 413.987 371.145C411.547 371.325 409.987 371.405 408.817 370.965H408.807ZM412.537 357.835C412.537 358.245 412.517 358.585 412.497 358.845C412.497 358.945 412.487 359.035 412.477 359.105V359.165C412.477 359.385 412.367 362.695 412.267 365.775C412.737 365.745 413.217 365.715 413.567 365.685C414.817 365.595 415.657 365.535 416.337 365.575L463.477 363.825C463.637 363.615 463.817 363.225 463.837 362.735L463.967 360.005C463.977 359.625 463.987 359.195 463.997 358.715V358.055C464.077 353.845 463.887 349.825 463.447 345.765C462.797 339.865 461.657 334.095 460.047 328.635C459.087 325.345 458.017 322.235 456.867 319.395C455.637 316.335 454.257 313.275 452.747 310.315C449.967 304.845 446.567 299.395 442.647 294.095C439.547 289.905 436.147 285.865 432.227 281.745C429.607 279.005 426.897 276.385 424.187 273.965C423.167 273.055 422.377 272.365 421.857 271.925L420.997 271.195C420.997 271.195 420.897 271.115 420.827 271.075L420.697 270.985L420.027 270.425C419.147 269.695 418.177 269.125 417.137 268.735C416.057 268.335 414.937 268.135 413.897 268.185C412.047 268.255 410.507 269.035 409.567 270.355C409.077 271.035 408.767 271.835 408.627 272.735L407.937 277.155L404.087 274.375C403.487 273.945 402.827 273.585 402.137 273.335C400.897 272.865 399.597 272.725 398.367 272.925C396.637 273.205 395.237 274.135 394.397 275.545C393.747 276.635 393.457 277.935 393.547 279.315C393.637 280.645 394.077 281.935 394.817 283.035L396.547 285.595L393.797 287.005C392.887 287.475 392.097 288.195 391.507 289.085C390.737 290.255 390.327 291.635 390.327 293.065C390.327 294.395 390.687 295.635 391.357 296.635L393.027 299.115L390.417 300.565C389.547 301.045 388.787 301.725 388.167 302.585C387.127 304.025 386.567 305.755 386.617 307.445C386.647 308.435 386.907 309.825 387.967 310.755C388.297 311.015 388.807 311.465 389.737 312.305C390.467 312.955 391.907 314.265 393.397 315.765C394.527 316.885 395.767 318.195 396.797 319.355L398.167 320.935L398.327 321.055L399.247 322.165L399.807 322.865C400.607 323.875 401.667 325.255 402.827 326.965C404.167 328.935 405.387 330.935 406.447 332.915C407.717 335.335 408.767 337.685 409.577 339.915C410.437 342.305 411.117 344.695 411.587 347.015C412.007 349.085 412.287 351.205 412.427 353.345C412.557 355.295 412.527 356.965 412.517 357.875L412.537 357.835Z" fill="#0C375B"/>
<path d="M411.147 371.795C410.137 371.795 409.337 371.705 408.637 371.435C407.117 370.865 406.167 369.495 406.237 367.945C406.277 366.475 406.487 359.575 406.517 358.945L406.537 358.535C406.557 358.275 406.567 358.055 406.567 357.815C406.587 356.625 406.597 355.285 406.487 353.715C406.357 351.855 406.107 349.995 405.747 348.165C405.337 346.125 404.737 344.025 403.977 341.915C403.267 339.955 402.327 337.865 401.187 335.685C400.237 333.915 399.137 332.105 397.907 330.305C396.867 328.775 395.877 327.485 395.137 326.545L394.147 325.325C394.027 325.225 393.857 325.055 393.697 324.865L392.337 323.295C391.387 322.235 390.237 321.025 389.187 319.975C387.787 318.575 386.437 317.345 385.757 316.745C385.217 316.265 384.767 315.875 384.487 315.635L384.127 315.325C381.977 313.485 380.747 310.745 380.647 307.615C380.567 304.605 381.517 301.575 383.337 299.075C383.847 298.375 384.407 297.735 385.027 297.155C384.597 295.865 384.367 294.495 384.367 293.075C384.367 290.475 385.117 287.955 386.537 285.805C387.077 284.985 387.717 284.235 388.427 283.565C387.967 282.325 387.687 281.025 387.597 279.705C387.427 277.115 388.007 274.625 389.267 272.505C390.997 269.585 393.967 267.595 397.417 267.035C399.657 266.665 401.977 266.905 404.177 267.715C404.337 267.435 404.517 267.165 404.697 266.905C406.707 264.075 409.977 262.365 413.657 262.215C415.487 262.145 417.417 262.465 419.247 263.145C420.907 263.765 422.467 264.675 423.867 265.845L424.307 266.215C424.477 266.325 424.667 266.475 424.857 266.635L425.737 267.385C426.287 267.855 427.107 268.575 428.167 269.515C431.007 272.055 433.827 274.785 436.557 277.635C440.657 281.945 444.227 286.175 447.467 290.555C451.587 296.115 455.157 301.855 458.087 307.615C459.667 310.715 461.137 313.935 462.437 317.185C463.657 320.215 464.787 323.515 465.797 326.965C467.507 332.775 468.717 338.885 469.407 345.125C469.877 349.435 470.077 353.705 470.007 358.175V358.825C469.987 359.385 469.977 359.855 469.967 360.285L469.837 363.045C469.757 364.755 469.137 366.395 468.107 367.665C466.897 369.125 465.227 369.915 463.507 369.825L416.247 371.575L415.987 371.555C415.727 371.525 414.507 371.625 414.047 371.655C412.927 371.735 411.987 371.795 411.177 371.795H411.147ZM399.477 267.855C398.837 267.855 398.197 267.905 397.577 268.005C394.417 268.515 391.707 270.335 390.127 272.995C388.967 274.945 388.437 277.235 388.587 279.615C388.677 280.955 388.967 282.255 389.477 283.495L389.607 283.825L389.337 284.055C388.577 284.715 387.917 285.485 387.357 286.325C386.047 288.315 385.357 290.635 385.357 293.045C385.357 294.465 385.597 295.825 386.067 297.105L386.187 297.425L385.937 297.655C385.277 298.235 384.677 298.905 384.147 299.635C382.457 301.955 381.567 304.775 381.647 307.565C381.737 310.415 382.847 312.895 384.777 314.545L385.147 314.855C385.437 315.105 385.887 315.495 386.437 315.985C387.127 316.605 388.487 317.845 389.907 319.255C390.967 320.305 392.127 321.535 393.097 322.615L394.477 324.205C394.607 324.355 394.737 324.495 394.877 324.625L395.927 325.905C396.687 326.875 397.687 328.175 398.747 329.725C399.997 331.545 401.117 333.385 402.077 335.195C403.247 337.415 404.197 339.545 404.917 341.545C405.697 343.705 406.307 345.855 406.727 347.935C407.097 349.805 407.357 351.715 407.487 353.615C407.597 355.225 407.587 356.595 407.567 357.745C407.567 358.045 407.557 358.275 407.537 358.505L407.517 358.945C407.497 359.575 407.287 366.465 407.237 367.945C407.187 369.065 407.877 370.045 408.987 370.465C410.057 370.865 411.577 370.795 413.947 370.615C415.037 370.535 415.757 370.495 416.057 370.515L416.247 370.535L463.487 368.785C464.957 368.865 466.297 368.215 467.307 366.995C468.207 365.895 468.747 364.455 468.817 362.965L468.947 360.205C468.967 359.785 468.967 359.325 468.977 358.825V358.125C469.057 353.695 468.867 349.465 468.397 345.195C467.717 339.015 466.517 332.955 464.827 327.205C463.827 323.785 462.707 320.515 461.497 317.515C460.207 314.295 458.757 311.105 457.187 308.025C454.277 302.315 450.737 296.615 446.647 291.105C443.437 286.755 439.897 282.555 435.817 278.275C433.107 275.445 430.307 272.735 427.487 270.215C426.437 269.275 425.617 268.565 425.067 268.095L424.197 267.345C424.037 267.205 423.867 267.075 423.687 266.955L423.217 266.565C421.907 265.475 420.447 264.615 418.887 264.035C417.187 263.395 415.387 263.105 413.697 263.165C410.327 263.295 407.347 264.855 405.517 267.435C405.277 267.775 405.047 268.145 404.847 268.525L404.637 268.915L404.217 268.745C402.687 268.125 401.077 267.805 399.487 267.805L399.477 267.855ZM411.757 366.305L411.777 365.765C411.867 362.675 411.977 359.365 411.987 359.145C411.987 359.005 411.987 358.915 412.007 358.805C412.017 358.565 412.037 358.235 412.037 357.835V357.805C412.047 356.915 412.077 355.255 411.947 353.335C411.797 351.215 411.517 349.105 411.117 347.075C410.647 344.775 409.977 342.405 409.127 340.045C408.327 337.835 407.287 335.505 406.027 333.115C404.977 331.155 403.767 329.175 402.427 327.215C401.257 325.495 400.207 324.135 399.427 323.145L397.797 321.245L396.427 319.665C395.397 318.515 394.167 317.215 393.047 316.105C391.557 314.615 390.127 313.305 389.397 312.665C388.467 311.835 387.967 311.395 387.647 311.135C386.437 310.065 386.147 308.545 386.107 307.455C386.057 305.655 386.637 303.825 387.747 302.285C388.427 301.355 389.237 300.635 390.167 300.115L392.297 298.935L390.937 296.915C390.207 295.835 389.827 294.495 389.827 293.065C389.827 291.535 390.267 290.065 391.087 288.805C391.727 287.835 392.587 287.055 393.567 286.555L395.817 285.405L394.397 283.315C393.607 282.145 393.137 280.765 393.037 279.345C392.947 277.865 393.267 276.465 393.957 275.295C394.867 273.755 396.397 272.745 398.277 272.435C399.587 272.225 400.977 272.375 402.297 272.865C403.027 273.135 403.717 273.505 404.357 273.975L407.547 276.275L408.107 272.665C408.257 271.695 408.607 270.825 409.137 270.075C410.167 268.615 411.847 267.775 413.857 267.695C414.967 267.655 416.157 267.855 417.297 268.275C418.387 268.685 419.407 269.285 420.327 270.055L421.087 270.665C421.147 270.705 421.207 270.755 421.257 270.785L422.157 271.555C422.687 272.005 423.477 272.695 424.497 273.605C427.217 276.045 429.937 278.665 432.567 281.415C436.497 285.545 439.917 289.605 443.027 293.815C446.967 299.135 450.377 304.615 453.177 310.105C454.687 313.055 456.077 316.125 457.317 319.225C458.467 322.095 459.547 325.215 460.507 328.515C462.127 334.005 463.277 339.795 463.927 345.725C464.377 349.795 464.557 353.845 464.497 358.085V358.935C464.477 359.345 464.467 359.715 464.457 360.045L464.327 362.775C464.307 363.285 464.127 363.795 463.867 364.145L463.727 364.335L416.347 366.085C415.657 366.045 414.857 366.095 413.597 366.195H413.397C413.067 366.235 412.677 366.255 412.277 366.285L411.737 366.315L411.757 366.305ZM398.507 320.535L398.707 320.705L400.197 322.515C400.927 323.445 402.037 324.885 403.237 326.645C404.597 328.635 405.827 330.655 406.887 332.645C408.167 335.085 409.227 337.455 410.047 339.705C410.917 342.115 411.597 344.525 412.077 346.875C412.497 348.945 412.777 351.095 412.927 353.265C413.057 355.225 413.027 356.915 413.017 357.815L412.517 357.835H413.017C413.017 358.255 412.997 358.615 412.977 358.875V359.125C412.957 359.385 412.857 362.335 412.777 365.245C412.977 365.235 413.167 365.215 413.337 365.205H413.527C414.827 365.095 415.657 365.035 416.357 365.085L463.177 363.345C463.247 363.185 463.317 362.965 463.327 362.725L463.457 359.995C463.467 359.675 463.477 359.305 463.477 358.915V358.065C463.557 353.865 463.377 349.865 462.927 345.835C462.277 339.965 461.147 334.225 459.547 328.795C458.587 325.525 457.527 322.435 456.387 319.595C455.157 316.525 453.777 313.485 452.277 310.555C449.507 305.115 446.127 299.675 442.217 294.405C439.127 290.225 435.737 286.205 431.837 282.105C429.227 279.375 426.527 276.765 423.827 274.355C422.807 273.455 422.027 272.765 421.507 272.325L420.647 271.595C420.647 271.595 420.577 271.545 420.537 271.515L420.397 271.425L419.687 270.835C418.847 270.135 417.927 269.595 416.947 269.225C415.927 268.845 414.867 268.665 413.897 268.705C412.207 268.775 410.807 269.465 409.957 270.665C409.517 271.285 409.227 272.015 409.097 272.825L408.287 278.055L403.777 274.795C403.207 274.385 402.597 274.055 401.947 273.815C400.787 273.375 399.577 273.245 398.437 273.435C396.857 273.695 395.577 274.535 394.817 275.815C394.227 276.815 393.947 278.015 394.027 279.295C394.107 280.545 394.527 281.745 395.217 282.775L397.267 285.795L394.017 287.465C393.187 287.895 392.457 288.555 391.907 289.375C391.187 290.465 390.807 291.745 390.807 293.085C390.807 294.315 391.137 295.455 391.747 296.375L393.717 299.305L390.627 301.015C389.827 301.455 389.127 302.085 388.537 302.895C387.557 304.245 387.037 305.865 387.087 307.445C387.117 308.345 387.347 309.575 388.267 310.395C388.577 310.645 389.097 311.095 390.047 311.945C390.777 312.595 392.227 313.915 393.727 315.425C394.857 316.545 396.107 317.865 397.147 319.035L398.487 320.575L398.507 320.535Z" fill="#0C375B"/>
<path d="M242.227 161.494H398.117C407.947 161.494 415.937 169.484 415.937 179.314V322.234C415.937 332.054 407.947 340.054 398.117 340.054H360.107L369.667 395.594L314.087 340.054H242.227C232.397 340.054 224.407 332.064 224.407 322.234V179.314C224.407 169.484 232.397 161.494 242.227 161.494Z" fill="#AC90ED"/>
<path d="M369.667 398.594C368.887 398.594 368.127 398.294 367.547 397.714L312.847 343.054H242.227C230.747 343.054 221.407 333.714 221.407 322.234V179.314C221.407 167.834 230.747 158.494 242.227 158.494H398.117C409.597 158.494 418.937 167.834 418.937 179.314V322.234C418.937 333.714 409.597 343.054 398.117 343.054H363.667L372.617 395.084C372.837 396.374 372.197 397.654 371.037 398.254C370.597 398.484 370.127 398.594 369.657 398.594H369.667ZM242.227 164.494C234.057 164.494 227.407 171.144 227.407 179.314V322.234C227.407 330.404 234.057 337.054 242.227 337.054H314.087C314.877 337.054 315.647 337.374 316.207 337.934L365.107 386.804L357.147 340.564C356.997 339.694 357.237 338.794 357.807 338.124C358.377 337.444 359.217 337.054 360.097 337.054H398.107C406.277 337.054 412.927 330.404 412.927 322.234V179.314C412.927 171.144 406.277 164.494 398.107 164.494H242.217H242.227Z" fill="#0C375B"/>
<path d="M446.846 309.166C434.536 299.726 424.997 296.346 410.367 292.986C406.267 292.236 401.657 294.346 400.707 300.116C399.827 305.446 402.487 308.586 406.507 309.266C416.777 311.356 422.987 313.196 431.797 319.836C422.447 331.366 419.486 348.126 428.596 358.436L446.857 309.166H446.846Z" fill="white"/>
<path d="M427.677 362.696C427.297 362.556 426.947 362.316 426.657 361.996C421.917 356.636 419.807 349.246 420.707 341.166C421.437 334.606 424.057 327.976 428.147 322.226C421.107 317.326 415.547 315.596 406.017 313.646C400.197 312.636 397.117 307.896 398.157 301.546C398.687 298.296 400.237 295.696 402.617 294.016C404.917 292.396 407.907 291.776 410.817 292.306C410.857 292.306 410.897 292.316 410.927 292.326C425.847 295.756 435.737 299.266 448.397 308.976C449.517 309.836 449.737 311.446 448.867 312.576C448.007 313.696 446.397 313.916 445.267 313.056C433.297 303.886 424.297 300.676 409.827 297.356C408.277 297.086 406.727 297.396 405.557 298.226C404.307 299.106 403.517 300.506 403.207 302.396C402.627 305.946 403.897 308.096 406.897 308.606C406.927 308.606 406.957 308.616 406.977 308.626C418.047 310.876 424.467 313.006 433.307 319.656C433.867 320.076 434.227 320.706 434.307 321.396C434.387 322.086 434.187 322.786 433.757 323.326C429.337 328.776 426.507 335.326 425.787 341.756C425.267 346.436 425.657 353.156 430.477 358.616C431.417 359.676 431.317 361.296 430.257 362.236C429.517 362.886 428.517 363.036 427.647 362.716L427.677 362.696Z" fill="#0C375B"/>
<path d="M428.587 363.365C428.227 363.365 427.857 363.305 427.507 363.165C427.047 362.995 426.627 362.705 426.297 362.325C421.467 356.865 419.307 349.325 420.227 341.115C420.947 334.605 423.447 328.135 427.467 322.355C420.677 317.705 415.277 316.045 405.927 314.145C399.827 313.085 396.587 308.115 397.677 301.475C398.237 298.095 399.847 295.375 402.347 293.615C404.757 291.915 407.877 291.265 410.917 291.825C410.957 291.825 411.017 291.845 411.077 291.855C426.047 295.295 435.987 298.825 448.717 308.585C449.367 309.085 449.787 309.805 449.887 310.615C449.997 311.425 449.777 312.235 449.277 312.885C448.247 314.225 446.327 314.485 444.977 313.455C433.067 304.335 424.127 301.155 409.727 297.845C408.347 297.605 406.917 297.885 405.857 298.635C404.717 299.435 403.997 300.725 403.707 302.475C403.167 305.755 404.277 307.645 406.987 308.105L407.097 308.125C418.227 310.395 424.697 312.535 433.607 319.245C434.267 319.745 434.707 320.495 434.807 321.325C434.907 322.145 434.667 322.985 434.147 323.625C429.787 329.005 426.997 335.455 426.287 341.795C425.777 346.375 426.157 352.945 430.857 358.265C431.977 359.535 431.857 361.475 430.587 362.595C430.017 363.095 429.287 363.365 428.557 363.365H428.587ZM427.857 362.235C428.577 362.505 429.387 362.355 429.957 361.845C430.807 361.095 430.887 359.785 430.137 358.925C425.187 353.335 424.787 346.465 425.317 341.685C426.047 335.165 428.907 328.525 433.397 322.995C433.747 322.565 433.917 321.995 433.847 321.445C433.777 320.895 433.487 320.385 433.037 320.045C424.277 313.455 417.897 311.345 406.917 309.105C403.577 308.535 402.117 306.125 402.747 302.305C403.077 300.285 403.937 298.775 405.307 297.815C406.587 296.915 408.277 296.575 409.947 296.865C424.507 300.215 433.547 303.425 445.607 312.665C446.507 313.355 447.807 313.185 448.507 312.285C448.847 311.845 448.987 311.305 448.917 310.755C448.847 310.205 448.567 309.725 448.127 309.385C435.547 299.735 425.697 296.235 410.847 292.825C407.977 292.295 405.127 292.895 402.937 294.435C400.667 296.035 399.197 298.525 398.677 301.635C397.687 307.675 400.607 312.195 406.127 313.155C415.817 315.125 421.327 316.845 428.457 321.815L428.867 322.105L428.577 322.515C424.547 328.175 421.937 334.815 421.227 341.215C420.347 349.145 422.407 356.405 427.057 361.655C427.287 361.915 427.557 362.105 427.877 362.215L427.857 362.235Z" fill="#0C375B"/>
<path d="M473.397 363.274C473.397 363.274 473.397 363.424 473.397 363.714C473.397 363.994 473.387 364.404 473.377 364.944C473.367 365.464 473.347 366.114 473.337 366.864C473.327 367.634 473.287 368.474 473.257 369.424C473.217 370.374 473.177 371.414 473.137 372.564C473.077 373.684 473.007 374.904 472.937 376.194C472.817 378.804 472.577 381.674 472.357 384.824C471.387 397.404 469.347 413.904 466.287 430.284C464.777 438.474 463.007 446.624 461.147 454.224C460.287 458.044 459.237 461.694 458.317 465.164C457.847 466.904 457.397 468.584 456.947 470.224C456.477 471.854 455.987 473.414 455.537 474.924C454.617 477.934 453.777 480.694 453.027 483.134C452.227 485.574 451.487 487.684 450.897 489.424C449.697 492.904 449.017 494.904 449.017 494.904L384.497 471.894C384.497 471.894 385.057 470.244 386.047 467.364C386.537 465.924 387.157 464.184 387.817 462.164C388.437 460.124 389.137 457.834 389.897 455.324C390.277 454.064 390.687 452.764 391.077 451.414C391.447 450.044 391.827 448.624 392.217 447.174C392.987 444.254 393.877 441.214 394.597 437.994C396.167 431.594 397.657 424.704 398.937 417.774C401.527 403.904 403.267 389.844 404.067 379.424C404.247 376.824 404.447 374.424 404.537 372.354C404.597 371.314 404.647 370.334 404.697 369.434C404.737 368.554 404.767 367.734 404.797 367.004C404.827 366.264 404.857 365.614 404.857 365.074C404.867 364.524 404.877 364.064 404.887 363.684C404.897 363.304 404.907 363.014 404.907 362.854C404.907 362.674 404.907 362.584 404.907 362.584L473.397 363.284V363.274Z" fill="#AC90ED"/>
<path d="M382.807 475.134C382.967 475.214 383.137 475.294 383.307 475.344C385.217 475.994 387.287 474.974 387.937 473.074L389.487 468.544C389.667 468.014 389.857 467.454 390.067 466.854C390.427 465.804 390.847 464.614 391.277 463.304C391.277 463.274 391.297 463.254 391.307 463.224L393.387 456.384C393.527 455.924 393.667 455.464 393.807 454.994C394.057 454.164 394.327 453.314 394.577 452.434C394.577 452.414 394.597 452.384 394.597 452.354L395.737 448.114C395.957 447.274 396.187 446.444 396.417 445.594C397.007 443.424 397.617 441.184 398.147 438.814C399.807 432.054 401.277 425.194 402.527 418.424C404.907 405.694 406.787 391.574 407.697 379.694C407.757 378.894 407.817 378.134 407.867 377.394C407.997 375.664 408.117 374.024 408.187 372.524L408.347 369.624C408.347 369.624 408.347 369.584 408.347 369.564L408.437 367.134C408.447 366.824 408.457 366.524 408.467 366.254L469.677 366.874C469.667 367.604 469.637 368.394 469.597 369.264L469.477 372.374L469.287 375.974C469.197 377.904 469.037 379.994 468.877 382.214C468.817 382.974 468.757 383.754 468.707 384.544C467.637 398.424 465.447 414.864 462.687 429.594C461.227 437.484 459.517 445.474 457.587 453.334C457.587 453.354 457.577 453.374 457.567 453.404C456.947 456.154 456.217 458.844 455.517 461.444C455.267 462.374 455.017 463.294 454.767 464.214L453.417 469.224C453.107 470.274 452.797 471.304 452.487 472.304C452.327 472.834 452.167 473.354 452.017 473.864L449.527 482.024C448.997 483.624 448.497 485.104 448.047 486.404C447.827 487.054 447.607 487.674 447.417 488.244L445.547 493.704C444.897 495.614 445.907 497.684 447.817 498.344C449.717 498.994 451.797 497.984 452.447 496.074L454.327 490.594C454.527 490.014 454.737 489.414 454.947 488.764C455.407 487.434 455.927 485.914 456.477 484.254C456.477 484.224 456.487 484.204 456.497 484.184L458.997 475.974C459.147 475.454 459.307 474.944 459.467 474.434C459.787 473.394 460.107 472.324 460.427 471.234C460.427 471.214 460.437 471.194 460.447 471.164L461.817 466.114C462.057 465.194 462.307 464.294 462.557 463.374C463.277 460.704 464.027 457.944 464.677 455.064C466.637 447.074 468.377 438.954 469.857 430.944C472.647 415.974 474.877 399.264 475.967 385.104C476.027 384.294 476.087 383.524 476.137 382.764C476.307 380.494 476.457 378.354 476.557 376.354L476.757 372.744C476.757 372.744 476.757 372.704 476.757 372.684L476.877 369.544C476.917 368.584 476.947 367.724 476.967 366.914L477.037 363.294C477.057 361.284 475.437 359.634 473.427 359.614L404.937 358.914C403.967 358.914 403.037 359.284 402.347 359.964C401.657 360.644 401.267 361.564 401.257 362.534V362.804C401.257 362.804 401.257 362.834 401.257 362.844C401.257 362.984 401.257 363.234 401.237 363.574L401.207 364.974C401.207 365.484 401.177 366.094 401.147 366.844L401.057 369.254L400.897 372.144C400.897 372.144 400.897 372.164 400.897 372.184C400.837 373.584 400.717 375.174 400.597 376.854C400.547 377.604 400.487 378.374 400.427 379.164C399.537 390.774 397.687 404.614 395.347 417.094C394.117 423.744 392.677 430.474 391.047 437.114C391.047 437.144 391.037 437.164 391.027 437.194C390.537 439.414 389.947 441.584 389.377 443.674C389.137 444.534 388.907 445.394 388.687 446.234L387.567 450.424C387.327 451.254 387.077 452.064 386.837 452.854C386.687 453.334 386.547 453.804 386.407 454.274L384.347 461.074C383.937 462.314 383.537 463.464 383.187 464.484C382.977 465.104 382.777 465.674 382.597 466.214L381.057 470.724C380.467 472.454 381.247 474.324 382.827 475.144L382.807 475.134Z" fill="#AC90ED"/>
<path d="M418.757 478.194C418.757 478.194 418.857 478.244 418.907 478.264C419.737 478.594 420.677 478.184 421.017 477.354C421.157 477.004 424.487 468.564 428.367 452.094C431.937 436.944 436.637 411.884 438.757 378.534C438.817 377.644 438.137 376.864 437.237 376.814C436.337 376.754 435.577 377.434 435.517 378.334C433.407 411.464 428.747 436.324 425.207 451.354C421.377 467.584 418.027 476.074 417.997 476.154C417.687 476.934 418.027 477.814 418.757 478.194V478.194Z" fill="#0C375B"/>
<path d="M447.777 459.673C448.327 459.963 449.007 459.913 449.527 459.513C450.227 458.953 450.347 457.943 449.797 457.233C444.267 450.193 435.557 443.653 423.917 437.783C415.297 433.433 408.387 431.163 408.097 431.073C407.247 430.793 406.327 431.263 406.057 432.113C405.777 432.963 406.237 433.883 407.097 434.153C407.367 434.243 434.727 443.313 447.257 459.243C447.407 459.433 447.587 459.573 447.787 459.683L447.777 459.673Z" fill="#0C375B"/>
<path d="M408.517 427.823C408.787 427.963 409.087 428.023 409.417 427.993C409.677 427.973 435.637 425.733 453.437 436.543C454.197 437.003 455.197 436.763 455.667 435.993C456.127 435.233 455.887 434.233 455.127 433.763C436.387 422.383 410.227 424.653 409.127 424.763C408.237 424.843 407.577 425.633 407.667 426.523C407.717 427.093 408.067 427.573 408.537 427.813L408.517 427.823Z" fill="#0C375B"/>
<path d="M77.2565 246.884C76.5365 246.814 75.8765 246.354 75.4465 245.564C75.0165 244.774 74.8164 243.744 74.9664 242.694C74.9664 242.694 75.0265 242.264 75.1365 241.464C75.1965 241.064 75.2664 240.564 75.3464 239.984C75.4264 239.404 75.5565 238.734 75.6765 237.984C76.1965 234.994 77.0564 230.704 78.5964 225.664C80.1364 220.634 82.3165 214.844 85.2965 209.014C86.7865 206.104 88.4365 203.154 90.2665 200.294C92.0865 197.434 94.0665 194.624 96.1465 191.934C100.296 186.544 104.886 181.704 109.386 177.534C113.886 173.364 118.317 169.904 122.177 167.114C126.047 164.344 129.367 162.254 131.707 160.844C132.877 160.144 133.807 159.594 134.437 159.234C135.067 158.874 135.407 158.674 135.407 158.674C135.567 158.584 135.737 158.504 135.907 158.434L136.527 158.084C139.307 156.534 142.357 156.144 144.927 156.734C147.507 157.324 149.596 158.904 150.646 161.194C151.196 162.394 151.416 163.664 151.376 164.934L151.626 164.814C154.216 163.604 157.106 163.444 159.616 164.354C162.066 165.234 163.847 167.034 164.667 169.304C165.327 171.114 165.336 173.014 164.886 174.774C164.436 176.534 163.516 178.154 162.236 179.454C163.406 180.364 164.347 181.584 164.947 183.024C165.737 184.914 165.877 186.904 165.537 188.714C165.187 190.534 164.366 192.184 163.126 193.444C164.176 194.314 165.057 195.444 165.697 196.784C166.777 199.074 166.976 201.514 166.516 203.604C166.056 205.694 164.936 207.434 163.216 208.424C163.216 208.424 162.427 208.864 161.277 209.554C160.127 210.244 158.617 211.194 157.167 212.184C155.707 213.174 154.307 214.204 153.287 214.984C152.777 215.384 152.357 215.714 152.057 215.944C151.767 216.184 151.606 216.314 151.606 216.314C151.506 216.404 151.386 216.474 151.266 216.524C151.266 216.524 151.136 216.634 150.876 216.834C150.626 217.044 150.267 217.354 149.807 217.744C148.897 218.534 147.627 219.674 146.207 221.084C144.797 222.494 143.236 224.184 141.746 226.044C140.266 227.904 138.826 229.934 137.596 232.014C136.366 234.094 135.316 236.214 134.476 238.264C133.646 240.304 133.036 242.264 132.586 243.984C132.146 245.704 131.877 247.174 131.707 248.214C131.607 248.734 131.577 249.154 131.527 249.434C131.487 249.714 130.126 258.364 130.126 258.364C130.006 259.374 124.886 257.474 123.376 257.344L77.2665 246.854L77.2565 246.884Z" fill="white"/>
<path d="M125.106 260.574C124.436 260.394 123.426 260.124 123.136 260.094L122.947 260.074L76.7865 249.574C75.2365 249.364 73.8765 248.384 73.0365 246.864C72.3065 245.514 72.0265 243.904 72.2465 242.314L72.6265 239.574C72.6865 239.144 72.7765 238.664 72.8665 238.144L72.9765 237.504C73.7365 233.124 74.7165 228.984 75.9765 224.854C77.7965 218.864 80.1165 213.114 82.8565 207.764C84.4865 204.564 86.2065 201.554 87.9465 198.814C89.8065 195.894 91.8364 193.014 93.9664 190.254C97.8964 185.164 102.456 180.204 107.516 175.524C111.496 171.824 115.777 168.354 120.577 164.884C123.777 162.594 127.047 160.444 130.297 158.484C131.507 157.754 132.447 157.204 133.077 156.844L134.077 156.274C134.277 156.164 134.487 156.054 134.697 155.964L135.197 155.684C136.737 154.824 138.377 154.244 140.077 153.944C141.927 153.624 143.817 153.664 145.537 154.064C148.977 154.854 151.746 157.044 153.126 160.054C153.316 160.464 153.476 160.874 153.606 161.304C155.956 160.834 158.377 161.004 160.537 161.784C163.687 162.924 166.126 165.324 167.236 168.374C168.046 170.594 168.147 173.044 167.527 175.464C167.177 176.814 166.616 178.094 165.876 179.254C166.516 180.074 167.056 180.994 167.466 181.974C168.426 184.264 168.686 186.774 168.216 189.234C167.936 190.684 167.427 192.044 166.707 193.254C167.267 193.974 167.747 194.764 168.157 195.624C169.437 198.324 169.797 201.364 169.177 204.194C168.527 207.124 166.897 209.464 164.567 210.804L164.146 211.044C163.816 211.234 163.307 211.534 162.687 211.904C161.907 212.374 160.347 213.334 158.697 214.464C157.457 215.304 156.087 216.294 154.957 217.164L153.756 218.104L153.317 218.464C153.147 218.604 152.967 218.724 152.787 218.834L151.577 219.854C150.677 220.644 149.466 221.724 148.126 223.064C146.586 224.604 145.146 226.194 143.866 227.784C142.336 229.714 141.007 231.624 139.937 233.444C138.777 235.404 137.786 237.384 136.996 239.324C136.296 241.054 135.696 242.864 135.216 244.704C134.816 246.254 134.576 247.584 134.376 248.714V248.754C134.326 249.004 134.296 249.224 134.266 249.444C134.246 249.614 134.227 249.764 134.207 249.884C134.107 250.514 133.037 257.324 132.807 258.784C132.617 260.104 131.597 261.104 130.207 261.354C128.977 261.564 127.456 261.204 125.086 260.574H125.106ZM129.927 243.324C130.467 241.254 131.137 239.224 131.927 237.264C132.817 235.064 133.926 232.844 135.216 230.664C136.426 228.624 137.886 226.514 139.586 224.374C140.996 222.624 142.566 220.884 144.256 219.194C145.716 217.734 147.016 216.574 147.986 215.724L148.667 215.144L149.777 214.224L149.957 214.134L151.596 212.834C152.826 211.894 154.296 210.834 155.606 209.944C157.356 208.754 159.016 207.734 159.846 207.224C160.926 206.574 161.506 206.224 161.876 206.034C163.086 205.314 163.607 204.004 163.817 203.034C164.177 201.384 163.957 199.584 163.197 197.974C162.737 197.014 162.116 196.204 161.356 195.574L159.057 193.674L161.157 191.554C162.007 190.694 162.577 189.544 162.827 188.244C163.097 186.834 162.947 185.404 162.407 184.114C161.997 183.124 161.347 182.274 160.537 181.644L158.096 179.744L160.277 177.554C161.217 176.614 161.886 175.424 162.216 174.134C162.556 172.794 162.507 171.464 162.077 170.274C161.517 168.734 160.307 167.564 158.667 166.964C157.497 166.544 156.196 166.434 154.886 166.664C154.166 166.794 153.457 167.014 152.777 167.334L148.476 169.354L148.626 164.884C148.656 163.984 148.496 163.134 148.146 162.374C147.466 160.894 146.107 159.854 144.297 159.434C143.277 159.194 142.136 159.174 141.006 159.374C139.916 159.564 138.856 159.944 137.856 160.504L137.096 160.924L136.947 160.984C136.877 161.014 136.806 161.044 136.756 161.074L135.777 161.634C135.177 161.974 134.276 162.504 133.106 163.204C129.986 165.084 126.846 167.154 123.756 169.364C119.136 172.684 115.046 176.024 111.226 179.564C106.386 184.044 102.037 188.774 98.2865 193.634C96.2565 196.264 94.3265 199.004 92.5465 201.784C90.8965 204.374 89.2666 207.224 87.7066 210.274C85.1166 215.344 82.9165 220.794 81.1865 226.474C79.9965 230.384 79.0665 234.304 78.3465 238.454L78.2365 239.104C78.1565 239.574 78.0765 240.004 78.0265 240.374L77.6465 243.084C77.5765 243.564 77.6765 243.984 77.7965 244.224L123.797 254.684C124.467 254.764 125.286 254.984 126.496 255.304C126.836 255.394 127.306 255.514 127.766 255.634C128.246 252.584 128.767 249.314 128.797 249.094V249.034C128.817 248.964 128.826 248.874 128.836 248.774C128.866 248.524 128.916 248.174 128.986 247.774C129.146 246.874 129.427 245.234 129.917 243.334L129.927 243.324Z" fill="#0C375B"/>
<path d="M129.466 261.914C128.306 261.914 126.916 261.574 124.976 261.054C124.486 260.924 123.346 260.614 123.086 260.594L122.896 260.574L76.6765 250.064C75.0165 249.834 73.5164 248.754 72.5964 247.104C71.8064 245.654 71.5164 243.934 71.7464 242.244L72.1264 239.504C72.1864 239.064 72.2764 238.584 72.3664 238.064L72.4764 237.424C73.2364 233.024 74.2264 228.864 75.4864 224.714C77.3164 218.714 79.6465 212.934 82.4065 207.534C84.0365 204.334 85.7665 201.314 87.5265 198.544C89.3965 195.604 91.4365 192.714 93.5765 189.954C97.5265 184.834 102.106 179.864 107.176 175.164C111.166 171.464 115.456 167.964 120.286 164.494C123.506 162.194 126.786 160.034 130.036 158.074C131.256 157.344 132.197 156.784 132.827 156.434L133.827 155.864C134.047 155.744 134.266 155.634 134.496 155.534L134.957 155.274C136.547 154.384 138.246 153.784 139.996 153.484C141.916 153.154 143.876 153.194 145.656 153.604C149.246 154.434 152.136 156.714 153.586 159.874C153.716 160.164 153.837 160.454 153.947 160.764C156.247 160.374 158.577 160.574 160.707 161.344C163.997 162.534 166.547 165.044 167.707 168.234C168.547 170.554 168.656 173.114 168.016 175.614C167.686 176.904 167.166 178.124 166.486 179.254C167.066 180.044 167.557 180.894 167.937 181.804C168.927 184.184 169.196 186.794 168.716 189.354C168.446 190.754 167.977 192.054 167.317 193.244C167.817 193.924 168.256 194.664 168.616 195.434C169.936 198.234 170.316 201.394 169.676 204.334C168.996 207.404 167.277 209.864 164.827 211.264L164.406 211.504C164.086 211.694 163.577 211.984 162.957 212.364C161.987 212.954 160.506 213.874 158.986 214.904C157.746 215.744 156.396 216.724 155.276 217.584L153.646 218.874C153.466 219.024 153.267 219.164 153.067 219.284L151.916 220.254C150.966 221.094 149.806 222.124 148.496 223.434C146.966 224.964 145.546 226.534 144.276 228.114C142.756 230.034 141.446 231.914 140.386 233.714C139.246 235.644 138.266 237.604 137.476 239.534C136.776 241.254 136.186 243.044 135.726 244.854C135.326 246.384 135.086 247.704 134.896 248.824C134.846 249.104 134.816 249.324 134.786 249.534L134.726 249.994C134.666 250.364 134.266 252.894 133.906 255.204L133.327 258.904C133.107 260.434 131.917 261.604 130.317 261.884C130.047 261.934 129.766 261.954 129.476 261.954L129.466 261.914ZM125.236 260.084C127.536 260.694 129.016 261.054 130.136 260.854C131.326 260.644 132.167 259.824 132.327 258.704L132.906 255.004C133.266 252.694 133.666 250.174 133.726 249.804L133.786 249.364C133.816 249.144 133.846 248.904 133.896 248.644C134.096 247.474 134.336 246.134 134.746 244.564C135.226 242.714 135.826 240.884 136.546 239.124C137.356 237.154 138.356 235.144 139.516 233.174C140.596 231.344 141.936 229.414 143.486 227.464C144.776 225.854 146.226 224.254 147.776 222.704C149.096 221.384 150.276 220.324 151.246 219.474L152.466 218.454C152.686 218.314 152.846 218.204 152.996 218.074L154.646 216.774C155.786 215.904 157.156 214.914 158.406 214.054C159.946 213.004 161.436 212.074 162.416 211.484C163.046 211.104 163.556 210.804 163.886 210.614L164.306 210.374C166.506 209.114 168.066 206.874 168.676 204.094C169.266 201.374 168.927 198.434 167.697 195.844C167.307 195.024 166.836 194.264 166.306 193.564L166.096 193.294L166.276 193.004C166.976 191.844 167.456 190.544 167.726 189.154C168.176 186.794 167.926 184.374 167.006 182.184C166.616 181.254 166.106 180.374 165.486 179.584L165.266 179.304L165.457 179.004C166.177 177.884 166.716 176.654 167.046 175.354C167.636 173.044 167.546 170.694 166.766 168.564C165.706 165.654 163.376 163.364 160.366 162.274C158.276 161.514 155.967 161.354 153.707 161.814L153.266 161.904L153.126 161.474C152.996 161.064 152.846 160.664 152.666 160.284C151.346 157.414 148.706 155.334 145.416 154.574C143.756 154.194 141.936 154.154 140.156 154.464C138.516 154.754 136.927 155.314 135.437 156.144L134.937 156.424C134.697 156.534 134.507 156.634 134.317 156.734L133.327 157.304C132.707 157.664 131.766 158.214 130.556 158.934C127.326 160.884 124.066 163.024 120.876 165.314C116.076 168.764 111.826 172.234 107.856 175.904C102.816 180.564 98.2764 185.504 94.3664 190.574C92.2464 193.314 90.2264 196.184 88.3764 199.094C86.6264 201.834 84.9265 204.824 83.3065 207.994C80.5765 213.334 78.2665 219.064 76.4565 225.004C75.1965 229.114 74.2264 233.234 73.4764 237.594L73.3664 238.234C73.2764 238.744 73.1965 239.214 73.1365 239.644L72.7565 242.374C72.5465 243.854 72.8064 245.364 73.4864 246.614C74.2564 248.004 75.4564 248.874 76.8664 249.074L123.067 259.584H123.187C123.477 259.614 124.186 259.794 125.246 260.084H125.236ZM128.187 256.224L127.656 256.094C127.216 255.984 126.777 255.864 126.447 255.784C125.177 255.444 124.396 255.244 123.756 255.164L77.4764 244.634L77.3764 244.424C77.1864 244.024 77.1065 243.494 77.1765 242.994L77.5565 240.294C77.6065 239.934 77.6865 239.514 77.7565 239.064L77.8764 238.354C78.5964 234.184 79.5264 230.244 80.7264 226.314C82.4664 220.614 84.6765 215.134 87.2765 210.034C88.8365 206.984 90.4665 204.104 92.1365 201.494C93.9165 198.694 95.8565 195.944 97.8965 193.304C101.656 188.424 106.026 183.674 110.886 179.174C114.716 175.624 118.836 172.274 123.466 168.934C126.566 166.724 129.726 164.644 132.846 162.754C134.026 162.044 134.926 161.514 135.526 161.174L136.506 160.614C136.586 160.574 136.676 160.524 136.766 160.494L136.896 160.434L137.606 160.034C138.656 159.444 139.776 159.054 140.916 158.854C142.116 158.644 143.326 158.664 144.406 158.914C146.366 159.364 147.846 160.504 148.596 162.134C148.976 162.964 149.156 163.884 149.126 164.874L149.006 168.524L152.567 166.854C153.287 166.514 154.036 166.284 154.806 166.144C156.196 165.904 157.586 166.014 158.836 166.464C160.626 167.114 161.936 168.394 162.546 170.074C163.016 171.354 163.067 172.784 162.697 174.224C162.337 175.604 161.616 176.874 160.626 177.874L158.846 179.664L160.846 181.214C161.726 181.894 162.426 182.814 162.866 183.884C163.446 185.264 163.607 186.794 163.317 188.304C163.047 189.714 162.426 190.944 161.506 191.874L159.796 193.614L161.676 195.174C162.496 195.844 163.156 196.714 163.646 197.754C164.456 199.474 164.686 201.384 164.306 203.134C164.066 204.204 163.506 205.644 162.136 206.464C161.756 206.674 161.176 207.014 160.106 207.654C158.616 208.564 157.156 209.494 155.886 210.354C154.586 211.234 153.136 212.284 151.896 213.234L148.306 216.094C147.356 216.924 146.066 218.074 144.606 219.534C142.936 221.204 141.376 222.934 139.976 224.674C138.296 226.794 136.836 228.884 135.646 230.904C134.366 233.074 133.266 235.274 132.386 237.444C131.606 239.364 130.946 241.374 130.406 243.444C129.926 245.284 129.646 246.904 129.496 247.784C129.416 248.234 129.366 248.574 129.336 248.814C129.326 248.914 129.316 249.014 129.296 249.094C129.256 249.364 128.746 252.634 128.256 255.684L128.166 256.224H128.187ZM78.1965 243.764L123.926 254.164C124.576 254.244 125.386 254.454 126.636 254.784C126.866 254.844 127.116 254.914 127.366 254.974C127.816 252.094 128.276 249.194 128.306 248.984C128.326 248.854 128.336 248.774 128.346 248.684C128.376 248.414 128.426 248.064 128.506 247.654C128.666 246.714 128.957 245.054 129.447 243.184C129.997 241.084 130.676 239.024 131.466 237.064C132.366 234.844 133.486 232.604 134.796 230.394C136.016 228.334 137.497 226.194 139.207 224.044C140.627 222.274 142.216 220.524 143.906 218.824C145.386 217.344 146.696 216.184 147.656 215.334L149.687 213.704L151.286 212.444C152.546 211.484 154.017 210.424 155.327 209.534C156.607 208.664 158.076 207.714 159.596 206.804C160.686 206.144 161.276 205.794 161.646 205.604C162.686 204.984 163.136 203.814 163.336 202.934C163.676 201.394 163.466 199.714 162.756 198.194C162.326 197.294 161.756 196.544 161.046 195.964L158.327 193.714L160.806 191.204C161.586 190.414 162.116 189.364 162.346 188.144C162.596 186.834 162.457 185.504 161.957 184.304C161.577 183.394 160.986 182.604 160.246 182.034L157.356 179.784L159.937 177.194C160.807 176.314 161.436 175.204 161.746 173.994C162.066 172.754 162.016 171.524 161.626 170.434C161.116 169.034 160.016 167.964 158.516 167.424C157.426 167.034 156.206 166.934 154.996 167.144C154.316 167.264 153.656 167.474 153.016 167.774L147.976 170.144L148.146 164.854C148.176 164.024 148.027 163.264 147.707 162.574C147.097 161.234 145.847 160.294 144.197 159.914C143.247 159.694 142.176 159.674 141.106 159.864C140.076 160.044 139.066 160.404 138.106 160.934L137.156 161.444C137.086 161.474 137.046 161.494 137.006 161.514L136.036 162.064C135.436 162.404 134.536 162.934 133.366 163.634C130.266 165.504 127.136 167.564 124.056 169.764C119.456 173.074 115.377 176.394 111.577 179.924C106.757 184.384 102.427 189.094 98.6965 193.924C96.6765 196.534 94.7564 199.264 92.9864 202.044C91.3364 204.624 89.7165 207.474 88.1765 210.494C85.5965 215.544 83.4065 220.964 81.6865 226.614C80.5065 230.494 79.5764 234.394 78.8664 238.534L78.7565 239.184C78.6665 239.684 78.5965 240.094 78.5465 240.444L78.1665 243.144C78.1265 243.394 78.1565 243.614 78.1965 243.784V243.764Z" fill="#0C375B"/>
<path d="M263.366 72.7642C215.406 45.2542 154.216 61.8442 126.716 109.804C99.2064 157.764 115.796 218.944 163.756 246.454C170.286 250.204 177.066 253.124 183.966 255.264L188.656 313.834L220.926 259.454C252.936 257.064 283.236 239.354 300.416 209.404C327.916 161.444 311.336 100.264 263.376 72.7543L263.366 72.7642Z" fill="white"/>
<path d="M188.657 316.484C188.457 316.484 188.257 316.464 188.057 316.414C186.937 316.154 186.117 315.203 186.017 314.053L181.477 257.244C174.887 255.074 168.487 252.214 162.447 248.754C138.637 235.104 121.567 212.994 114.387 186.504C107.207 160.014 110.767 132.314 124.427 108.504C142.697 76.6435 176.887 56.8535 213.657 56.8535C231.487 56.8535 249.127 61.5635 264.677 70.4835C313.827 98.6635 330.887 161.584 302.697 210.734C285.937 239.954 256.027 259.034 222.497 261.984L190.927 315.194C190.447 316.004 189.577 316.484 188.657 316.484V316.484ZM213.657 62.1235C178.777 62.1235 146.337 80.9035 129.007 111.124C116.057 133.714 112.677 159.984 119.487 185.114C126.297 210.244 142.487 231.214 165.077 244.164C171.307 247.734 177.927 250.624 184.757 252.744C185.787 253.064 186.517 253.984 186.607 255.054L190.627 305.344L218.657 258.104C219.097 257.364 219.867 256.884 220.727 256.814C253.077 254.404 282.007 236.184 298.117 208.084C324.857 161.464 308.677 101.774 262.047 75.0335C247.297 66.5735 230.557 62.1035 213.647 62.1035L213.657 62.1235Z" fill="#0C375B"/>
<path d="M188.657 317.484C188.377 317.484 188.097 317.454 187.827 317.384C186.277 317.024 185.147 315.714 185.027 314.124L180.537 257.974C174.107 255.804 167.857 252.994 161.947 249.604C137.907 235.814 120.677 213.494 113.427 186.744C106.177 159.994 109.777 132.024 123.557 107.984C142.007 75.8142 176.527 55.8242 213.657 55.8242C231.657 55.8242 249.477 60.5842 265.177 69.5942C314.807 98.0542 332.027 161.584 303.567 211.214C286.777 240.494 256.717 259.794 223.097 262.924L191.787 315.694C191.137 316.794 189.937 317.474 188.657 317.474V317.484ZM213.657 57.8442C177.247 57.8442 143.387 77.4442 125.297 108.994C111.777 132.574 108.247 160.004 115.357 186.234C122.467 212.464 139.367 234.354 162.947 247.884C168.927 251.314 175.267 254.144 181.797 256.294L182.427 256.504L182.477 257.164L187.017 313.974C187.077 314.694 187.577 315.274 188.277 315.444C188.977 315.614 189.697 315.284 190.057 314.684L221.887 261.034L222.397 260.994C255.577 258.074 285.267 239.104 301.817 210.234C329.727 161.564 312.837 99.2542 264.167 71.3442C248.767 62.5142 231.287 57.8442 213.637 57.8442H213.657ZM189.877 308.574L185.607 255.144C185.557 254.474 185.107 253.904 184.457 253.704C177.557 251.564 170.867 248.644 164.577 245.034C141.757 231.954 125.407 210.764 118.517 185.374C111.637 159.984 115.047 133.444 128.137 110.624C145.647 80.0842 178.417 61.1242 213.657 61.1242C230.737 61.1242 247.647 65.6442 262.547 74.1942C309.647 101.204 325.997 161.504 298.987 208.604C282.707 236.994 253.477 255.394 220.797 257.834C220.267 257.874 219.787 258.174 219.507 258.634L189.867 308.574H189.877ZM213.657 63.1242C179.137 63.1242 147.027 81.7042 129.877 111.624C117.057 133.974 113.707 159.984 120.457 184.854C127.197 209.724 143.227 230.484 165.577 243.304C171.747 246.844 178.297 249.694 185.057 251.794C186.487 252.234 187.487 253.484 187.607 254.984L191.377 302.144L217.797 257.614C218.407 256.594 219.467 255.934 220.657 255.844C252.677 253.454 281.307 235.424 297.257 207.614C323.717 161.464 307.707 102.394 261.557 75.9342C246.957 67.5542 230.387 63.1342 213.657 63.1342V63.1242Z" fill="#0C375B"/>
<path d="M201.107 366.805H165.957C164.827 366.805 163.907 365.885 163.907 364.755V329.605C163.907 328.475 164.827 327.555 165.957 327.555H201.107C202.237 327.555 203.157 328.475 203.157 329.605V364.755C203.157 365.885 202.237 366.805 201.107 366.805ZM168.007 362.695H199.057V331.645H168.007V362.695Z" fill="#0C375B"/>
<path d="M183.377 356.314C182.467 356.314 181.617 355.904 181.057 355.194L171.987 343.714C170.977 342.434 171.197 340.574 172.477 339.564C173.757 338.554 175.617 338.774 176.627 340.054L183.297 348.504L202.157 323.094C203.137 321.784 204.987 321.504 206.297 322.484C207.607 323.454 207.887 325.314 206.907 326.624L185.747 355.134C185.197 355.874 184.337 356.314 183.417 356.324H183.377V356.314Z" fill="#AC90ED"/>
<path d="M249.687 420.524H264.347V405.864C264.347 404.734 265.267 403.814 266.397 403.814C267.527 403.814 268.447 404.734 268.447 405.864V420.524H283.107C284.237 420.524 285.157 421.444 285.157 422.574C285.157 423.704 284.237 424.624 283.107 424.624H268.447V439.284C268.447 440.414 267.527 441.334 266.397 441.334C265.267 441.334 264.347 440.414 264.347 439.284V424.624H249.687C248.557 424.624 247.637 423.704 247.637 422.574C247.637 421.444 248.557 420.524 249.687 420.524Z" fill="#0C375B"/>
<path d="M57.4467 274.893C60.0467 263.333 62.7366 253.803 64.7766 247.073C65.7966 243.713 66.6666 241.043 67.2766 239.213C67.9066 237.353 68.2466 236.363 68.2466 236.363L132.977 258.753C132.977 258.753 132.727 259.483 132.267 260.843C131.807 262.233 131.127 264.303 130.307 267.013C128.667 272.423 126.427 280.333 124.257 289.993C122.067 299.643 119.957 311.023 118.447 323.223C117.697 329.323 117.097 335.623 116.697 342.003C116.297 348.383 116.117 354.843 116.157 361.263C116.197 367.683 116.467 374.053 116.987 380.253C117.507 386.453 118.267 392.483 119.227 398.223C120.187 403.973 121.357 409.433 122.657 414.523C123.947 419.623 125.417 424.313 126.897 428.583C127.617 430.733 128.417 432.723 129.127 434.653C129.517 435.603 129.887 436.523 130.257 437.413C130.437 437.863 130.617 438.303 130.797 438.743C130.987 439.173 131.177 439.593 131.357 440.003C131.727 440.833 132.077 441.633 132.417 442.413C132.757 443.183 133.127 443.913 133.457 444.623C133.787 445.333 134.117 446.013 134.417 446.653C134.747 447.293 135.057 447.893 135.347 448.473C137.697 453.083 139.217 455.603 139.217 455.603L79.9266 489.903C79.9266 489.903 79.7966 489.673 79.5266 489.223C79.2666 488.773 78.8666 488.113 78.3966 487.223C77.4366 485.453 75.9666 482.883 74.2966 479.523C73.8666 478.683 73.4267 477.803 72.9567 476.883C72.5167 475.943 72.0466 474.973 71.5666 473.953C71.0866 472.933 70.5667 471.873 70.0767 470.763C69.5867 469.653 69.0766 468.493 68.5466 467.303C68.2866 466.703 68.0166 466.103 67.7466 465.493C67.4966 464.873 67.2366 464.243 66.9766 463.603C66.4566 462.323 65.9266 461.013 65.3766 459.663C64.3566 456.943 63.2366 454.103 62.2266 451.093C60.1466 445.093 58.1067 438.543 56.3267 431.563C54.5367 424.583 52.9666 417.193 51.6866 409.533C50.4066 401.883 49.4166 393.963 48.7466 385.943C48.0766 377.923 47.7366 369.803 47.6766 361.723C47.6266 353.643 47.8566 345.603 48.3466 337.753C48.8366 329.893 49.5766 322.213 50.4866 314.823C52.3166 300.043 54.8466 286.453 57.4666 274.903L57.4467 274.893Z" fill="#AC90ED"/>
<path d="M79.2567 493.494C80.0867 493.654 80.9767 493.514 81.7667 493.054C83.5067 492.034 84.0968 489.804 83.0768 488.064L82.5267 487.124C82.2767 486.704 81.9667 486.174 81.6067 485.494C81.3567 485.044 81.0867 484.544 80.7867 483.994C79.8967 482.374 78.7868 480.354 77.5568 477.894L76.2267 475.264L74.8567 472.374C74.7067 472.054 74.5467 471.704 74.3767 471.364C74.0467 470.674 73.7067 469.974 73.3967 469.254L71.1067 464.054L68.7667 458.324C68.5467 457.734 68.3167 457.134 68.0867 456.524C67.2767 454.394 66.4367 452.184 65.6767 449.914C63.3967 443.344 61.4367 436.864 59.8567 430.644C58.0467 423.574 56.5067 416.264 55.2767 408.914C54.0067 401.354 53.0267 393.514 52.3667 385.624C51.7267 377.914 51.3668 369.864 51.3168 361.684C51.2668 353.784 51.4867 345.804 51.9767 337.964C52.4467 330.504 53.1567 322.864 54.0967 315.254C55.7267 302.044 58.0567 288.734 61.0067 275.694C63.1067 266.364 65.5567 257.094 68.2767 248.124C69.0167 245.694 69.7767 243.304 70.5367 241.004L128.377 261.014C127.857 262.614 127.347 264.234 126.827 265.944C124.537 273.494 122.477 281.304 120.707 289.184C118.197 300.244 116.227 311.544 114.837 322.764C114.047 329.144 113.457 335.544 113.067 341.764C112.657 348.214 112.477 354.774 112.517 361.274C112.557 367.894 112.847 374.384 113.357 380.544C113.877 386.774 114.647 392.914 115.637 398.814C116.577 404.454 117.757 410.034 119.137 415.414C120.307 420.044 121.727 424.744 123.457 429.744C123.977 431.294 124.517 432.734 125.047 434.124C125.277 434.724 125.497 435.314 125.717 435.894C125.727 435.934 125.747 435.974 125.767 436.014L127.427 440.094C127.427 440.094 127.457 440.164 127.467 440.194L129.077 443.854C129.317 444.384 129.547 444.874 129.787 445.354C129.917 445.614 130.037 445.874 130.157 446.134L131.127 448.184C131.127 448.184 131.157 448.254 131.177 448.284L132.107 450.104C134.487 454.774 136.037 457.354 136.097 457.464C137.137 459.194 139.377 459.744 141.107 458.704C142.827 457.664 143.387 455.424 142.347 453.694C142.337 453.674 140.857 451.204 138.607 446.794L137.697 445.024L136.757 443.044C136.637 442.784 136.497 442.494 136.357 442.214C136.157 441.794 135.947 441.354 135.747 440.904L134.157 437.304L132.537 433.324C132.317 432.744 132.097 432.144 131.867 431.554C131.357 430.224 130.837 428.844 130.367 427.434C130.367 427.424 130.367 427.404 130.347 427.394C128.677 422.574 127.317 418.074 126.197 413.634C124.867 408.444 123.737 403.064 122.827 397.624C121.867 391.914 121.127 385.974 120.627 379.944C120.127 373.964 119.847 367.674 119.807 361.234C119.767 354.904 119.947 348.504 120.337 342.224C120.717 336.144 121.307 329.894 122.067 323.654C123.427 312.684 125.357 301.624 127.817 290.784C129.547 283.074 131.567 275.434 133.797 268.064C134.437 265.944 135.077 263.954 135.727 261.994L136.427 259.924C137.067 258.024 136.057 255.964 134.167 255.304L69.4368 232.914C68.5168 232.594 67.5167 232.654 66.6367 233.084C65.7667 233.514 65.0967 234.274 64.7867 235.184L63.8268 238.034C62.9668 240.604 62.1167 243.284 61.2867 246.004C58.5167 255.144 56.0267 264.594 53.8867 274.084C50.8867 287.354 48.5167 300.904 46.8467 314.354C45.8867 322.114 45.1668 329.894 44.6868 337.504C44.1868 345.514 43.9567 353.664 44.0067 361.724C44.0667 370.084 44.4267 378.324 45.0867 386.224C45.7667 394.324 46.7668 402.354 48.0668 410.114C49.3268 417.664 50.9167 425.184 52.7767 432.444C54.4067 438.864 56.4167 445.534 58.7567 452.274C59.5567 454.644 60.4167 456.914 61.2567 459.114C61.4867 459.724 61.7168 460.334 61.9468 460.934C61.9568 460.964 61.9667 460.994 61.9867 461.024L64.3667 466.854C64.3667 466.854 64.3867 466.904 64.4067 466.934L66.7267 472.214C67.0867 473.024 67.4467 473.764 67.7867 474.484C67.9467 474.824 68.1067 475.154 68.2567 475.484L69.6567 478.434C69.6567 478.434 69.6868 478.494 69.6968 478.524L71.0367 481.164C72.3167 483.734 73.4667 485.824 74.3967 487.504C74.6867 488.034 74.9468 488.514 75.1868 488.944C75.6068 489.734 75.9767 490.354 76.2367 490.804L76.7767 491.734C77.3267 492.684 78.2567 493.294 79.2567 493.484V493.494Z" fill="#AC90ED"/>
<path d="M101.557 463.544C101.877 463.604 102.207 463.574 102.527 463.424C103.337 463.054 103.697 462.094 103.327 461.274C103.217 461.024 91.877 435.854 86.087 398.524C82.697 376.624 81.8471 354.884 83.5771 333.914C85.7371 307.724 91.937 282.654 101.997 259.404C102.357 258.584 101.977 257.624 101.157 257.274C100.337 256.924 99.377 257.294 99.027 258.114C88.817 281.704 82.527 307.144 80.337 333.714C78.597 354.954 79.457 376.964 82.897 399.124C88.757 436.864 100.257 462.364 100.377 462.624C100.607 463.124 101.057 463.454 101.557 463.544Z" fill="#0C375B"/>
<path d="M108.877 358.292C109.477 358.432 110.127 358.222 110.527 357.692C111.067 356.982 110.937 355.962 110.227 355.422C103.117 349.992 93.0468 345.822 80.3068 343.042C70.8768 340.982 63.6168 340.502 63.3068 340.492C62.4168 340.432 61.6467 341.112 61.5867 342.012C61.5267 342.902 62.2067 343.672 63.0967 343.732C63.3867 343.752 92.1367 345.712 108.247 358.002C108.437 358.152 108.647 358.242 108.867 358.292H108.877Z" fill="#0C375B"/>
<path d="M62.9165 337.243C63.2065 337.313 63.5266 337.303 63.8266 337.193C64.0766 337.103 88.6564 328.463 108.586 334.493C109.436 334.753 110.346 334.263 110.606 333.413C110.866 332.553 110.377 331.653 109.527 331.393C88.5365 325.053 63.7765 333.773 62.7365 334.153C61.8865 334.453 61.4565 335.383 61.7565 336.223C61.9465 336.763 62.3965 337.133 62.9165 337.253V337.243Z" fill="#0C375B"/>
<path d="M103.976 195.396C117.826 188.406 127.826 186.856 142.826 186.266C146.986 186.296 151.136 189.216 150.996 195.066C150.866 200.466 147.676 203.066 143.596 202.986C133.116 203.136 126.666 203.796 116.786 208.676C123.836 221.736 123.636 238.766 112.766 247.196L103.966 195.386L103.976 195.396Z" fill="white"/>
<path d="M113.217 249.735C113.617 249.665 114.007 249.495 114.347 249.235C119.997 244.855 123.447 237.975 124.057 229.875C124.557 223.295 123.217 216.295 120.257 209.885C128.077 206.375 133.867 205.705 143.597 205.565C149.507 205.655 153.407 201.565 153.557 195.135C153.637 191.845 152.607 189.005 150.567 186.905C148.607 184.885 145.787 183.715 142.827 183.705C142.787 183.705 142.747 183.705 142.707 183.705C127.407 184.305 117.037 185.925 102.797 193.105C101.537 193.745 101.027 195.285 101.667 196.555C102.307 197.825 103.847 198.325 105.117 197.685C118.577 190.895 128.017 189.415 142.857 188.835C144.427 188.855 145.897 189.455 146.887 190.485C147.947 191.585 148.467 193.105 148.427 195.015C148.347 198.615 146.687 200.485 143.647 200.435C143.617 200.435 143.587 200.435 143.567 200.435C132.277 200.595 125.567 201.495 115.647 206.385C115.027 206.695 114.547 207.245 114.337 207.905C114.127 208.565 114.197 209.295 114.527 209.905C117.857 216.085 119.427 223.035 118.937 229.485C118.577 234.175 116.947 240.715 111.197 245.175C110.077 246.045 109.877 247.655 110.747 248.775C111.347 249.555 112.307 249.885 113.217 249.725V249.735Z" fill="#0C375B"/>
<path d="M112.776 250.265C111.836 250.265 110.946 249.835 110.356 249.085C109.316 247.745 109.566 245.815 110.896 244.785C116.506 240.435 118.097 234.045 118.447 229.445C118.927 223.085 117.386 216.235 114.096 210.135C113.706 209.405 113.626 208.535 113.876 207.745C114.126 206.955 114.697 206.295 115.437 205.925C125.437 200.985 132.197 200.085 143.567 199.925H143.667C143.667 199.925 143.747 199.925 143.787 199.925C146.467 199.925 147.857 198.265 147.937 194.995C147.977 193.225 147.507 191.825 146.537 190.825C145.637 189.895 144.296 189.355 142.856 189.335C128.126 189.915 118.746 191.375 105.356 198.135C103.846 198.895 101.996 198.285 101.236 196.775C100.476 195.265 101.086 193.415 102.586 192.655C116.916 185.425 127.337 183.795 142.707 183.195C142.757 183.195 142.806 183.195 142.856 183.195C145.936 183.215 148.887 184.435 150.937 186.555C153.067 188.745 154.147 191.715 154.067 195.145C153.907 201.795 149.877 206.065 143.787 206.065C143.727 206.065 143.656 206.065 143.596 206.065C134.076 206.205 128.457 206.835 120.927 210.135C123.807 216.555 125.057 223.385 124.557 229.915C123.937 238.155 120.417 245.155 114.657 249.635C114.257 249.945 113.797 250.145 113.307 250.235C113.127 250.265 112.956 250.285 112.776 250.285V250.265ZM143.646 200.925C132.366 201.085 125.706 201.975 115.876 206.825C115.376 207.075 114.997 207.515 114.827 208.045C114.657 208.575 114.706 209.165 114.976 209.655C118.356 215.915 119.937 222.975 119.447 229.515C119.087 234.315 117.406 240.985 111.516 245.565C110.616 246.265 110.457 247.565 111.157 248.465C111.627 249.065 112.386 249.365 113.146 249.235C113.476 249.175 113.787 249.045 114.057 248.835C119.597 244.535 122.977 237.785 123.577 229.835C124.067 223.405 122.737 216.395 119.827 210.095L119.616 209.635L120.077 209.425C127.997 205.865 133.746 205.205 143.616 205.055C143.676 205.055 143.727 205.055 143.787 205.055C149.307 205.055 152.946 201.175 153.086 195.115C153.156 191.965 152.176 189.245 150.246 187.245C148.376 185.325 145.686 184.205 142.866 184.195C127.546 184.795 117.227 186.405 103.067 193.545C102.047 194.055 101.647 195.305 102.157 196.325C102.667 197.345 103.917 197.745 104.927 197.235C118.487 190.395 127.966 188.915 142.866 188.325C144.596 188.345 146.197 189.005 147.277 190.125C148.437 191.325 149.007 192.965 148.957 195.015C148.867 198.885 147.007 201.015 143.667 200.915L143.646 200.925Z" fill="#0C375B"/>
<path d="M96.517 168.184C95.697 168.184 95.0071 167.544 94.9571 166.724C93.4571 143.354 98.8471 120.214 110.547 99.8044C126.407 72.1444 152.087 52.3144 182.867 43.9744C213.637 35.6344 245.817 39.7744 273.477 55.6344C297.637 69.4844 316.277 91.4644 325.957 117.524C326.257 118.334 325.847 119.234 325.037 119.534C324.227 119.834 323.327 119.424 323.027 118.614C313.597 93.2444 295.447 71.8344 271.917 58.3444C244.987 42.8944 213.647 38.8644 183.677 46.9944C153.707 55.1144 128.697 74.4244 113.257 101.364C101.867 121.234 96.6071 143.764 98.0671 166.524C98.1271 167.384 97.467 168.134 96.607 168.184C96.577 168.184 96.537 168.184 96.507 168.184H96.517Z" fill="#0C375B"/>
<path d="M96.517 169.685C94.907 169.685 93.567 168.425 93.457 166.815C91.937 143.145 97.3969 119.715 109.247 99.0553C125.307 71.0453 151.307 50.9753 182.467 42.5253C213.627 34.0753 246.217 38.2653 274.217 54.3353C298.677 68.3653 317.547 90.6153 327.357 117.005C327.647 117.775 327.607 118.605 327.267 119.345C326.927 120.085 326.317 120.655 325.547 120.945C324.787 121.235 323.947 121.205 323.207 120.855C322.467 120.515 321.897 119.905 321.607 119.135C312.297 94.0853 294.377 72.9653 271.157 59.6453C244.567 44.3953 213.637 40.4153 184.057 48.4353C154.477 56.4553 129.787 75.5153 114.547 102.105C103.297 121.715 98.117 143.955 99.557 166.425C99.607 167.235 99.347 168.025 98.807 168.645C98.267 169.265 97.517 169.625 96.697 169.685C96.627 169.685 96.5569 169.685 96.4969 169.685H96.517ZM214.287 41.2653C203.937 41.2653 193.517 42.6453 183.257 45.4253C152.867 53.6653 127.507 73.2453 111.847 100.555C100.297 120.705 94.967 143.555 96.447 166.625L96.507 166.685H96.527C95.097 143.565 100.417 120.735 111.957 100.615C127.597 73.3353 152.937 53.7753 183.287 45.5453C213.647 37.3153 245.387 41.3953 272.667 57.0453C296.497 70.7053 314.877 92.3853 324.437 118.095L324.557 118.055C314.987 92.3253 296.587 70.6253 272.737 56.9453C254.647 46.5753 234.597 41.2753 214.297 41.2753L214.287 41.2653Z" fill="#0C375B"/>
<path d="M185.467 160.074C185.467 167.584 179.387 173.664 171.877 173.664C164.367 173.664 158.287 167.584 158.287 160.074C158.287 152.564 164.377 146.484 171.877 146.484C179.377 146.484 185.467 152.574 185.467 160.074Z" fill="#0C375B"/>
<path d="M227.047 160.074C227.047 167.584 220.957 173.664 213.457 173.664C205.957 173.664 199.867 167.584 199.867 160.074C199.867 152.564 205.957 146.484 213.457 146.484C220.957 146.484 227.047 152.574 227.047 160.074Z" fill="#0C375B"/>
<path d="M268.636 160.074C268.636 167.584 262.547 173.664 255.047 173.664C247.547 173.664 241.457 167.584 241.457 160.074C241.457 152.564 247.547 146.484 255.047 146.484C262.547 146.484 268.636 152.574 268.636 160.074Z" fill="#0C375B"/>
<path d="M295.067 249.003C296.187 257.893 288.707 265.373 279.817 264.253C273.757 263.493 268.867 258.593 268.107 252.533C266.987 243.643 274.467 236.163 283.357 237.283C289.417 238.043 294.307 242.943 295.067 249.003V249.003Z" fill="#0C375B"/>
<path d="M336.657 248.993C337.777 257.893 330.297 265.373 321.397 264.243C315.337 263.473 310.457 258.583 309.697 252.523C308.587 243.633 316.057 236.163 324.947 237.283C331.007 238.043 335.897 242.933 336.667 248.993H336.657Z" fill="#0C375B"/>
<path d="M378.237 249.013C379.347 257.903 371.877 265.373 362.987 264.253C356.927 263.493 352.037 258.603 351.267 252.543C350.147 243.643 357.637 236.163 366.527 237.293C372.587 238.063 377.467 242.963 378.227 249.013H378.237Z" fill="#0C375B"/>
</svg>
