<svg width="316" height="316" viewBox="0 0 316 316" fill="none" xmlns="http://www.w3.org/2000/svg">
<circle cx="158" cy="158" r="158" fill="#EDF9FC"/>
<rect x="93.9056" y="131.915" width="127.071" height="54.4057" fill="white"/>
<path d="M158.01 64.8396C141.83 64.8384 125.929 69.051 111.872 77.0628C97.8146 85.0745 86.0864 96.6091 77.8418 110.531C69.5972 124.453 65.1205 140.282 64.8524 156.459C64.5843 172.637 68.5341 188.606 76.3129 202.793L68.6986 229.577C67.9825 232.042 67.937 234.653 68.5669 237.141C69.1968 239.629 70.4792 241.904 72.2818 243.731C74.0843 245.542 76.3435 246.832 78.8196 247.463C81.2958 248.093 83.8965 248.042 86.3459 247.314L113.22 239.7C125.674 246.526 139.524 250.414 153.711 251.068C167.898 251.721 182.047 249.122 195.076 243.47C208.105 237.817 219.669 229.261 228.884 218.455C238.1 207.648 244.723 194.878 248.247 181.12C251.771 167.362 252.103 152.981 249.217 139.075C246.332 125.169 240.305 112.107 231.598 100.887C222.891 89.6665 211.734 80.5857 198.98 74.3381C186.226 68.0905 172.212 64.8416 158.01 64.8396V64.8396ZM115.012 168.753C112.885 168.753 110.807 168.122 109.039 166.941C107.272 165.76 105.894 164.081 105.08 162.117C104.267 160.152 104.054 157.991 104.468 155.906C104.883 153.821 105.907 151.905 107.41 150.402C108.914 148.898 110.829 147.875 112.914 147.46C115 147.045 117.161 147.258 119.125 148.072C121.089 148.885 122.768 150.263 123.949 152.031C125.131 153.799 125.761 155.877 125.761 158.003C125.761 160.854 124.629 163.588 122.613 165.604C120.597 167.62 117.862 168.753 115.012 168.753ZM158.01 168.753C155.884 168.753 153.806 168.122 152.038 166.941C150.27 165.76 148.892 164.081 148.079 162.117C147.265 160.152 147.052 157.991 147.467 155.906C147.882 153.821 148.905 151.905 150.409 150.402C151.912 148.898 153.828 147.875 155.913 147.46C157.998 147.045 160.159 147.258 162.124 148.072C164.088 148.885 165.767 150.263 166.948 152.031C168.129 153.799 168.76 155.877 168.76 158.003C168.76 160.854 167.627 163.588 165.611 165.604C163.595 167.62 160.861 168.753 158.01 168.753ZM201.008 168.753C198.882 168.753 196.804 168.122 195.036 166.941C193.268 165.76 191.891 164.081 191.077 162.117C190.263 160.152 190.051 157.991 190.465 155.906C190.88 153.821 191.904 151.905 193.407 150.402C194.911 148.898 196.826 147.875 198.911 147.46C200.996 147.045 203.158 147.258 205.122 148.072C207.086 148.885 208.765 150.263 209.946 152.031C211.128 153.799 211.758 155.877 211.758 158.003C211.758 160.854 210.625 163.588 208.61 165.604C206.594 167.62 203.859 168.753 201.008 168.753Z" fill="#006FD7"/>
</svg>
