<svg width="316" height="316" viewBox="0 0 316 316" fill="none" xmlns="http://www.w3.org/2000/svg">
<mask id="mask0_3_10" style="mask-type:alpha" maskUnits="userSpaceOnUse" x="0" y="0" width="316" height="316">
<circle cx="158" cy="158" r="158" fill="#D9D9D9"/>
</mask>
<g mask="url(#mask0_3_10)">
<path d="M331.249 -15.2448H-15.2709V331.275H331.249V-15.2448Z" fill="#EDF9FC"/>
</g>
<rect x="133.558" y="215.962" width="45.4623" height="49.1887" transform="rotate(-139.965 133.558 215.962)" fill="#EDF9FC"/>
<path d="M130.03 125.394C130.014 127.557 130.126 129.72 130.366 131.87L67.4498 217.666C65.5443 220.261 64.6323 223.453 64.8793 226.663C65.1262 229.873 66.5157 232.888 68.7956 235.161L80.8237 247.189C83.0969 249.469 86.112 250.859 89.322 251.106C92.532 251.353 95.7242 250.441 98.3192 248.535L184.115 185.619C186.265 185.859 188.428 185.971 190.591 185.955C202.953 185.956 215.018 182.17 225.162 175.105C225.561 174.82 225.894 174.452 226.137 174.026C226.379 173.6 226.526 173.126 226.566 172.637C226.606 172.148 226.539 171.657 226.369 171.196C226.199 170.736 225.93 170.319 225.582 169.974L146.011 90.4027C145.666 90.0546 145.249 89.7861 144.789 89.6162C144.328 89.4463 143.837 89.3791 143.348 89.4191C142.859 89.4592 142.385 89.6056 141.959 89.8482C141.533 90.0907 141.165 90.4235 140.88 90.8233C133.815 100.967 130.029 113.032 130.03 125.394V125.394ZM144.918 180.656L128.095 197.479C126.809 198.722 125.09 199.417 123.301 199.417C121.512 199.417 119.793 198.722 118.506 197.479C117.243 196.203 116.534 194.48 116.534 192.684C116.534 190.889 117.243 189.166 118.506 187.89L135.329 171.067C136.636 169.994 138.296 169.446 139.986 169.529C141.675 169.612 143.273 170.32 144.469 171.516C145.665 172.712 146.373 174.31 146.456 175.999C146.539 177.689 145.991 179.349 144.918 180.656V180.656ZM251.069 122.029C251.812 135.521 248.022 148.874 240.302 159.964C240.018 160.364 239.65 160.697 239.224 160.939C238.797 161.182 238.323 161.328 237.834 161.368C237.346 161.408 236.854 161.341 236.394 161.171C235.934 161.001 235.517 160.733 235.171 160.385L155.6 80.8138C155.252 80.4684 154.984 80.0511 154.814 79.591C154.644 79.131 154.577 78.6393 154.617 78.1505C154.657 77.6617 154.803 77.1876 155.046 76.7614C155.288 76.3351 155.621 75.9671 156.021 75.6829C164.868 69.5295 175.197 65.8483 185.942 65.0191C196.686 64.19 207.458 66.243 217.144 70.9662C226.831 75.6894 235.081 82.9118 241.045 91.8881C247.008 100.864 250.469 111.269 251.069 122.029V122.029Z" fill="#006FD7"/>
</svg>
