<svg width="521" height="528" viewBox="0 0 521 528" fill="none" xmlns="http://www.w3.org/2000/svg">
<rect width="521" height="528" fill="white"/>
<path d="M337.406 272.631H352.816V257.221C352.816 256.031 353.786 255.061 354.976 255.061C356.166 255.061 357.136 256.031 357.136 257.221V272.631H372.546C373.736 272.631 374.706 273.601 374.706 274.791C374.706 275.981 373.736 276.951 372.546 276.951H357.136V292.361C357.136 293.551 356.166 294.521 354.976 294.521C353.786 294.521 352.816 293.551 352.816 292.361V276.951H337.406C336.216 276.951 335.246 275.981 335.246 274.791C335.246 273.601 336.216 272.631 337.406 272.631Z" fill="#0C375B"/>
<path d="M125.786 322.242C163.486 287.872 221.906 290.562 256.286 328.262C290.656 365.962 287.966 424.382 250.266 458.762C225.696 481.172 192.316 487.822 162.526 479.292L136.706 506.802L141.766 470.482C133.766 465.852 126.326 459.932 119.766 452.742C85.3962 415.042 88.0863 356.622 125.786 322.242V322.242Z" fill="white"/>
<path d="M135.766 508.751C134.916 508.341 134.436 507.441 134.556 506.511L139.416 471.611C131.546 466.891 124.396 461.031 118.156 454.191C101.146 435.531 92.416 411.371 93.576 386.141C94.736 360.921 105.656 337.661 124.316 320.641C141.766 304.731 164.376 295.961 187.976 295.961C200.996 295.961 213.636 298.571 225.546 303.711C237.866 309.031 248.736 316.801 257.856 326.801C274.866 345.461 283.596 369.631 282.436 394.851C281.276 420.071 270.356 443.331 251.696 460.351C234.246 476.261 211.636 485.021 188.036 485.021C179.626 485.021 171.276 483.911 163.176 481.711L138.256 508.271C137.836 508.721 137.266 508.951 136.686 508.951C136.366 508.951 136.056 508.881 135.756 508.741L135.766 508.751ZM163.116 477.221C171.216 479.541 179.606 480.711 188.056 480.711C210.576 480.711 232.146 472.351 248.806 457.161C266.616 440.931 277.026 418.731 278.136 394.651C279.246 370.581 270.916 347.511 254.676 329.711C245.976 320.171 235.596 312.751 223.846 307.671C212.486 302.761 200.416 300.281 187.986 300.281C165.466 300.281 143.886 308.641 127.236 323.831C109.426 340.061 99.006 362.261 97.896 386.331C96.786 410.401 105.116 433.461 121.346 451.271C127.616 458.141 134.846 463.971 142.836 468.601C143.596 469.041 144.016 469.901 143.896 470.761L139.776 500.361L160.946 477.801C161.356 477.361 161.936 477.121 162.516 477.121C162.716 477.121 162.916 477.151 163.106 477.201L163.116 477.221Z" fill="#0C375B"/>
<path d="M335.836 430.58C335.836 435.79 340.056 440.01 345.266 440.01C350.476 440.01 354.696 435.79 354.696 430.58C354.696 425.37 350.476 421.15 345.266 421.15C340.056 421.15 335.836 425.37 335.836 430.58Z" fill="#0C375B"/>
<path d="M310.786 430.58C310.786 435.79 315.006 440.01 320.216 440.01C325.426 440.01 329.646 435.79 329.646 430.58C329.646 425.37 325.426 421.15 320.216 421.15C315.006 421.15 310.786 425.37 310.786 430.58Z" fill="#0C375B"/>
<path d="M285.726 430.58C285.726 435.79 289.946 440.01 295.156 440.01C300.366 440.01 304.586 435.79 304.586 430.58C304.586 425.37 300.366 421.15 295.156 421.15C289.946 421.15 285.726 425.37 285.726 430.58Z" fill="#0C375B"/>
<path d="M135.766 508.751C134.916 508.341 134.436 507.441 134.556 506.511L139.416 471.611C131.546 466.891 124.396 461.031 118.156 454.191C101.146 435.531 92.416 411.371 93.576 386.141C94.736 360.921 105.656 337.661 124.316 320.641C141.766 304.731 164.376 295.961 187.976 295.961C200.996 295.961 213.636 298.571 225.546 303.711C237.866 309.031 248.736 316.801 257.856 326.801C274.866 345.461 283.596 369.631 282.436 394.851C281.276 420.071 270.356 443.331 251.696 460.351C234.246 476.261 211.636 485.021 188.036 485.021C179.626 485.021 171.276 483.911 163.176 481.711L138.256 508.271C137.836 508.721 137.266 508.951 136.686 508.951C136.366 508.951 136.056 508.881 135.756 508.741L135.766 508.751ZM163.116 477.221C171.216 479.541 179.606 480.711 188.056 480.711C210.576 480.711 232.146 472.351 248.806 457.161C266.616 440.931 277.026 418.731 278.136 394.651C279.246 370.581 270.916 347.511 254.676 329.711C245.976 320.171 235.596 312.751 223.846 307.671C212.486 302.761 200.416 300.281 187.986 300.281C165.466 300.281 143.886 308.641 127.236 323.831C109.426 340.061 99.006 362.261 97.896 386.331C96.786 410.401 105.116 433.461 121.346 451.271C127.616 458.141 134.846 463.971 142.836 468.601C143.596 469.041 144.016 469.901 143.896 470.761L139.776 500.361L160.946 477.801C161.356 477.361 161.936 477.121 162.516 477.121C162.716 477.121 162.916 477.151 163.106 477.201L163.116 477.221Z" fill="#0C375B"/>
<path d="M136.706 510.461C136.166 510.461 135.616 510.341 135.126 510.101C133.686 509.411 132.866 507.881 133.086 506.301L137.806 472.381C130.136 467.671 123.166 461.901 117.066 455.211C99.7859 436.261 90.9159 411.711 92.1059 386.081C93.2959 360.451 104.376 336.831 123.336 319.541C141.066 303.371 164.036 294.471 188.006 294.471C201.236 294.471 214.076 297.121 226.166 302.341C238.686 307.751 249.736 315.641 258.996 325.801C276.276 344.751 285.146 369.301 283.966 394.931C282.786 420.561 271.696 444.181 252.746 461.471C235.016 477.631 212.056 486.531 188.076 486.531C179.846 486.531 171.646 485.481 163.696 483.401L139.386 509.301C138.696 510.031 137.726 510.451 136.716 510.451L136.706 510.461ZM187.996 297.471C164.766 297.471 142.516 306.091 125.346 321.761C106.986 338.501 96.2359 361.391 95.0959 386.221C93.9459 411.041 102.536 434.831 119.286 453.191C125.416 459.911 132.456 465.681 140.206 470.331L141.056 470.841L136.056 506.721C136.016 507.001 136.166 507.281 136.426 507.401C136.666 507.521 136.996 507.461 137.186 507.261L162.726 480.051L163.596 480.291C171.566 482.451 179.796 483.541 188.056 483.541C211.276 483.541 233.526 474.921 250.706 459.261C269.066 442.521 279.806 419.631 280.956 394.801C282.106 369.981 273.516 346.191 256.766 327.831C247.796 317.991 237.096 310.341 224.966 305.101C213.246 300.041 200.806 297.481 187.996 297.481V297.471ZM137.646 504.841L142.416 470.571C142.456 470.311 142.326 470.041 142.096 469.911C133.976 465.211 126.626 459.281 120.256 452.301C103.756 434.201 95.2859 410.751 96.4159 386.281C97.5459 361.811 108.136 339.241 126.236 322.741C143.166 307.301 165.106 298.801 188.006 298.801C200.646 298.801 212.906 301.331 224.456 306.321C236.406 311.481 246.956 319.021 255.806 328.721C272.316 346.821 280.776 370.271 279.646 394.741C278.516 419.211 267.926 441.781 249.826 458.281C232.896 473.721 210.956 482.221 188.066 482.221C179.486 482.221 170.956 481.021 162.716 478.671C162.476 478.601 162.226 478.671 162.056 478.851L137.656 504.851L137.646 504.841ZM187.996 301.791C165.846 301.791 144.626 310.011 128.256 324.951C110.746 340.921 100.496 362.741 99.4059 386.421C98.3159 410.101 106.506 432.771 122.466 450.281C128.636 457.041 135.736 462.771 143.596 467.321C144.886 468.071 145.586 469.511 145.386 470.991L141.916 495.911L159.856 476.791C160.776 475.811 162.226 475.401 163.536 475.781C171.506 478.061 179.756 479.221 188.066 479.221C210.206 479.221 231.426 471.001 247.806 456.061C265.316 440.091 275.556 418.271 276.656 394.591C277.746 370.921 269.556 348.241 253.586 330.731C245.026 321.341 234.826 314.051 223.266 309.061C212.096 304.231 200.226 301.791 188.006 301.791H187.996Z" fill="#0C375B"/>
<path d="M198.906 269.991H275.596C287.946 269.991 297.986 261.031 297.986 250.021V196.561C297.986 194.441 296.266 192.721 294.146 192.721C292.026 192.721 290.316 194.441 290.316 196.561V250.021C290.316 256.801 283.716 262.321 275.596 262.321H198.906C190.786 262.321 184.186 256.801 184.186 250.021V196.561C184.186 194.441 182.466 192.721 180.346 192.721C178.226 192.721 176.506 194.441 176.506 196.561V250.021C176.506 261.031 186.546 269.991 198.896 269.991H198.906Z" fill="#0C375B"/>
<path d="M135.546 225.409C138.886 225.409 142.246 224.849 145.536 223.739C148.786 222.649 200.116 211.289 228.166 211.289C236.106 211.289 239.966 212.219 241.816 212.999C241.846 213.009 241.866 213.019 241.896 213.029C261.696 220.709 281.166 224.609 299.766 224.609C326.826 224.609 344.916 216.429 352.636 212.939L353.506 212.549C363.996 207.839 371.926 198.589 376.456 185.789C380.776 173.579 381.906 158.449 379.726 142.029C377.506 125.279 371.876 107.629 363.446 90.9895C352.956 70.2895 339.026 52.5595 323.146 39.7195C307.576 27.1295 290.956 20.1895 276.326 20.1895C269.856 20.1895 263.786 21.5095 258.286 24.1195C257.426 24.5195 256.566 24.9795 255.656 25.4995C255.176 25.5995 254.736 25.8395 254.376 26.1795L253.996 26.5395C251.566 28.3395 239.646 38.7895 226.956 52.6895C214.336 66.5095 197.456 87.5895 188.606 109.529C177.586 130.139 144.906 153.219 129.176 164.319C124.996 167.279 121.966 169.409 120.446 170.709C108.336 181.009 103.786 194.429 108.266 206.599C112.406 217.849 123.366 225.399 135.546 225.399V225.409Z" fill="#AC90ED"/>
<path d="M105.726 207.54C110.256 219.84 122.236 228.11 135.546 228.11C139.176 228.11 142.826 227.5 146.396 226.3C148.006 225.77 161.516 222.66 178.386 219.68C193.076 217.09 213.636 213.99 228.166 214C236.046 214 239.436 214.94 240.756 215.5C240.806 215.52 240.856 215.54 240.906 215.56C261.026 223.37 280.816 227.32 299.756 227.32C327.396 227.32 345.856 218.97 353.736 215.41C354.046 215.27 354.326 215.14 354.596 215.02C365.776 210 374.206 200.21 378.986 186.7C383.446 174.09 384.616 158.53 382.386 141.69C380.126 124.65 374.406 106.7 365.836 89.78C355.186 68.74 341.006 50.71 324.836 37.63C316.946 31.25 308.846 26.28 300.746 22.86C292.336 19.3 284.116 17.5 276.326 17.5C269.456 17.5 262.996 18.91 257.146 21.68C256.316 22.07 255.486 22.5 254.626 22.99C253.856 23.23 253.126 23.65 252.526 24.23C252.526 24.23 252.416 24.34 252.206 24.54C249.046 26.98 237.516 37.14 224.976 50.88C216.846 59.79 209.626 68.71 203.536 77.4C195.986 88.16 190.146 98.59 186.176 108.39C175.386 128.4 143.156 151.16 127.636 162.12C123.396 165.12 120.326 167.28 118.706 168.66C111.936 174.42 107.416 180.93 105.266 188.02C103.286 194.55 103.446 201.3 105.746 207.54H105.726ZM122.186 172.77C129.366 166.67 176.976 137.17 191.046 110.68C207.736 69.14 253.846 29.8 255.716 28.63C256.046 28.31 256.226 28.14 256.226 28.14L256.286 28.26C257.296 27.65 258.346 27.07 259.426 26.56C264.666 24.08 270.356 22.89 276.306 22.89C304.936 22.89 339.766 50.25 361.016 92.21C386.686 142.9 383.096 196.3 352.376 210.09C351.176 210.63 321.486 221.92 299.736 221.92C283.836 221.92 264.776 219.03 242.846 210.52C239.626 209.16 234.466 208.6 228.146 208.6C199.946 208.6 148.716 219.82 144.656 221.18C141.546 222.22 138.476 222.71 135.526 222.71C112.856 222.71 96.7961 194.36 122.166 172.77H122.186Z" fill="#0C375B"/>
<path d="M135.546 228.61C122.026 228.61 109.856 220.21 105.256 207.71C102.926 201.36 102.756 194.5 104.766 187.87C106.946 180.69 111.526 174.09 118.356 168.28C119.986 166.9 123.026 164.75 127.236 161.77C142.786 150.79 174.966 128.06 185.696 108.15C189.656 98.36 195.516 87.9 203.086 77.11C209.196 68.4 216.426 59.46 224.566 50.54C236.826 37.1 248.446 26.78 251.856 24.14L252.136 23.87C252.776 23.27 253.546 22.8 254.386 22.53C255.246 22.04 256.066 21.62 256.896 21.23C262.816 18.42 269.346 17 276.286 17C284.156 17 292.446 18.82 300.916 22.4C309.046 25.84 317.196 30.83 325.126 37.24C341.356 50.36 355.576 68.45 366.266 89.55C374.856 106.52 380.596 124.52 382.866 141.62C385.116 158.54 383.926 174.18 379.446 186.87C374.626 200.51 366.096 210.4 354.786 215.48L353.926 215.87C346.016 219.45 327.486 227.83 299.736 227.83C280.746 227.83 260.886 223.86 240.706 216.03L240.566 215.98C239.256 215.42 235.936 214.51 228.136 214.51H228.126C213.646 214.51 193.116 217.6 178.446 220.19C161.596 223.17 148.126 226.26 146.526 226.79C142.916 228.01 139.206 228.62 135.526 228.62L135.546 228.61ZM106.196 207.37C110.646 219.48 122.446 227.61 135.546 227.61C139.126 227.61 142.716 227.01 146.236 225.83C147.856 225.29 161.396 222.18 178.296 219.19C193.006 216.59 213.596 213.5 228.146 213.5H228.156C236.126 213.5 239.586 214.46 240.946 215.04L241.066 215.09C261.136 222.88 280.876 226.83 299.746 226.83C327.286 226.83 345.676 218.51 353.526 214.96L354.386 214.57C365.436 209.61 373.776 199.91 378.506 186.54C382.936 174 384.106 158.52 381.876 141.76C379.626 124.77 373.916 106.88 365.376 90.01C354.756 69.04 340.616 51.06 324.506 38.02C316.646 31.67 308.586 26.72 300.536 23.32C284.836 16.68 269.686 16.28 257.326 22.14C256.506 22.53 255.696 22.95 254.836 23.43L254.736 23.47C254.026 23.69 253.366 24.08 252.826 24.59L252.506 24.9C249.076 27.56 237.516 37.83 225.296 51.22C217.186 60.11 209.976 69.02 203.896 77.69C196.366 88.42 190.546 98.81 186.596 108.58C175.726 128.74 143.416 151.56 127.886 162.53C123.616 165.55 120.586 167.69 118.996 169.04C112.306 174.73 107.836 181.17 105.706 188.16C103.756 194.58 103.916 201.22 106.176 207.36L106.196 207.37ZM135.546 223.22C124.276 223.22 114.146 216.24 110.326 205.85C106.176 194.58 110.496 182.07 121.866 172.39C123.316 171.16 126.306 169.05 130.446 166.13C146.336 154.91 179.406 131.55 190.616 110.45C207.426 68.61 253.236 29.99 255.386 28.26L256.386 27.3L256.506 27.55C257.446 27 258.336 26.53 259.226 26.1C264.426 23.64 270.186 22.39 276.326 22.39C305.706 22.39 340.716 51 361.476 91.98C378.116 124.84 383.056 160.51 374.376 185.06C370.056 197.27 362.526 206.09 352.596 210.55C352.336 210.67 322.156 222.42 299.756 222.42C281.436 222.42 262.236 218.57 242.686 210.99C239.716 209.73 234.836 209.1 228.166 209.1C199.246 209.1 148.256 220.52 144.846 221.66C141.776 222.69 138.656 223.21 135.556 223.21L135.546 223.22ZM122.506 173.16C111.296 182.69 107.206 194.49 111.256 205.51C114.936 215.51 124.696 222.22 135.546 222.22C138.536 222.22 141.556 221.72 144.516 220.72C147.936 219.57 199.126 208.11 228.156 208.11C234.956 208.11 239.966 208.77 243.046 210.07C262.466 217.61 281.546 221.43 299.746 221.43C321.966 221.43 351.916 209.76 352.176 209.64C361.846 205.3 369.196 196.68 373.426 184.73C382.026 160.43 377.096 125.06 360.576 92.44C339.986 51.79 305.336 23.4 276.316 23.4C270.326 23.4 264.716 24.62 259.646 27.02C258.636 27.5 257.626 28.04 256.546 28.7L255.986 29.06C255.566 29.32 208.576 68.4 191.516 110.88C180.176 132.24 146.976 155.69 131.016 166.96C126.896 169.87 123.926 171.97 122.506 173.17V173.16Z" fill="#0C375B"/>
<path d="M336.246 205.6C341.106 205.6 345.626 204.62 349.706 202.69C357.646 198.94 363.686 191.57 367.176 181.4C374.796 159.19 369.876 126.29 354.336 95.53C344.626 76.31 331.916 59.85 317.566 47.91C303.876 36.52 289.596 30.25 277.356 30.25C272.496 30.25 267.976 31.23 263.896 33.15C255.956 36.9 249.916 44.27 246.426 54.44C238.806 76.65 243.726 109.55 259.266 140.31C268.976 159.53 281.696 176 296.036 187.93C309.726 199.32 324.006 205.59 336.246 205.59V205.6Z" fill="#AC90ED"/>
<path d="M256.856 141.54C277.196 181.8 309.936 208.3 336.246 208.3C341.416 208.3 346.326 207.28 350.856 205.14C378.446 192.09 381.076 142.48 356.736 94.3203C336.406 54.0603 303.666 27.5703 277.356 27.5703C272.186 27.5703 267.276 28.5903 262.746 30.7303C235.156 43.7803 232.526 93.3903 256.856 141.55V141.54ZM248.976 55.3303C252.276 45.7303 257.676 39.0903 265.046 35.6003C268.756 33.8403 272.896 32.9603 277.346 32.9603C288.956 32.9603 302.616 39.0103 315.826 49.9903C322.636 55.6503 329.146 62.4603 335.186 70.2203C341.466 78.2903 347.096 87.2203 351.906 96.7503C367.136 126.88 371.996 158.98 364.606 180.53C361.306 190.14 355.906 196.77 348.536 200.26C344.826 202.02 340.686 202.9 336.236 202.9C327.766 202.9 307.826 194.24 297.756 185.87C290.946 180.21 284.436 173.4 278.396 165.64C272.116 157.57 266.486 148.65 261.666 139.11C246.436 108.98 241.576 76.8803 248.966 55.3303H248.976Z" fill="#0C375B"/>
<path d="M336.246 208.8C309.176 208.8 276.346 181.23 256.406 141.77C240.486 110.27 235.506 76.4203 243.396 53.4203C247.176 42.4103 253.786 34.4103 262.526 30.2803C267.036 28.1503 272.026 27.0703 277.356 27.0703C304.426 27.0703 337.246 54.6303 357.186 94.1003C373.106 125.6 378.096 159.45 370.206 182.45C366.426 193.46 359.816 201.46 351.076 205.6C346.576 207.73 341.586 208.81 336.246 208.81V208.8ZM277.356 28.0703C272.176 28.0703 267.326 29.1203 262.956 31.1903C254.466 35.2003 248.036 43.0103 244.346 53.7503C236.536 76.5003 241.506 110.05 257.306 141.32C277.076 180.46 309.546 207.8 336.246 207.8C341.426 207.8 346.276 206.75 350.646 204.68C359.136 200.67 365.566 192.86 369.256 182.11C377.066 159.36 372.096 125.81 356.296 94.5403C336.526 55.4003 304.066 28.0603 277.366 28.0603L277.356 28.0703ZM336.246 203.41C327.416 203.41 307.466 194.6 297.446 186.26C290.606 180.58 284.066 173.74 278.006 165.96C271.696 157.86 266.056 148.9 261.226 139.34C245.946 109.09 241.066 76.8503 248.506 55.1803L248.976 55.3403L248.506 55.1803C251.846 45.4403 257.346 38.7103 264.836 35.1603C268.616 33.3703 272.826 32.4703 277.356 32.4703C289.076 32.4703 302.856 38.5603 316.156 49.6203C322.986 55.3103 329.526 62.1403 335.596 69.9203C341.886 78.0003 347.536 86.9603 352.376 96.5303C367.666 126.78 372.536 159.03 365.106 180.69C361.766 190.43 356.266 197.17 348.776 200.71C344.996 202.5 340.786 203.4 336.256 203.4L336.246 203.41ZM277.356 33.4703C272.976 33.4703 268.906 34.3403 265.266 36.0703C258.026 39.5003 252.706 46.0403 249.446 55.5103C242.096 76.9303 246.946 108.89 262.116 138.9C266.916 148.4 272.526 157.3 278.786 165.35C284.806 173.08 291.296 179.86 298.076 185.5C307.776 193.56 327.746 202.42 336.236 202.42C340.616 202.42 344.686 201.55 348.326 199.82C355.566 196.4 360.886 189.85 364.136 180.38C371.486 158.96 366.626 127.01 351.456 96.9903C346.646 87.4703 341.036 78.5703 334.786 70.5403C328.766 62.8103 322.276 56.0303 315.496 50.3903C302.376 39.4803 288.826 33.4703 277.336 33.4703H277.356Z" fill="#0C375B"/>
<path d="M122.016 185.97L213.036 119.43L215.016 128.79L122.016 185.97Z" fill="white"/>
<path d="M279.956 172.421C272.546 163.451 265.696 153.071 259.876 141.541C253.776 129.461 249.366 117.291 246.626 105.621C265.046 101.311 279.506 97.171 281.806 96.391C316.256 84.701 344.796 123.531 307.166 153.691C303.686 156.491 293.016 163.301 279.966 172.421H279.956Z" fill="white"/>
<path d="M277.876 173.16C270.106 163.75 263.236 153.2 257.466 141.78C251.406 129.8 246.876 117.51 243.996 105.26C243.836 104.56 243.946 103.83 244.326 103.22C244.706 102.61 245.306 102.18 246.006 102.01C265.016 97.5701 279.056 93.4901 280.936 92.8501C285.376 91.3401 289.876 90.5801 294.306 90.5801C301.546 90.5801 308.386 92.6201 314.086 96.4801C319.706 100.28 323.816 105.56 325.996 111.74C328.346 118.45 328.226 125.77 325.636 132.93C322.786 140.81 317.136 148.17 308.856 154.81C306.876 156.4 302.886 159.09 297.376 162.81C292.946 165.79 287.436 169.51 281.516 173.65C281.046 173.98 280.506 174.14 279.976 174.14C279.196 174.14 278.426 173.8 277.896 173.16H277.876ZM282.676 97.9601C280.206 98.8101 266.676 102.65 249.886 106.64C252.686 117.6 256.856 128.59 262.276 139.34C267.476 149.62 273.586 159.18 280.466 167.79C285.636 164.2 290.416 160.98 294.346 158.33C299.546 154.82 303.656 152.05 305.466 150.6C312.966 144.59 318.036 138.03 320.546 131.09C322.706 125.11 322.826 119.04 320.886 113.52C317.196 103.02 306.516 95.9701 294.296 95.9701C290.466 95.9701 286.546 96.6401 282.666 97.9501L282.676 97.9601Z" fill="#0C375B"/>
<path d="M279.966 174.64C279.006 174.64 278.106 174.22 277.496 173.48C269.696 164.04 262.806 153.45 257.026 142.01C250.956 130 246.406 117.67 243.516 105.38C243.326 104.56 243.466 103.68 243.906 102.96C244.356 102.24 245.056 101.73 245.896 101.53C264.856 97.1001 278.906 93.0201 280.786 92.3801C285.276 90.8501 289.826 90.0801 294.316 90.0801C301.656 90.0801 308.586 92.1501 314.376 96.0601C320.086 99.9201 324.266 105.29 326.476 111.57C328.866 118.39 328.746 125.83 326.116 133.1C323.226 141.07 317.536 148.51 309.176 155.2C307.186 156.79 303.236 159.46 297.776 163.15L297.666 163.23C293.256 166.2 287.776 169.9 281.806 174.06C281.266 174.44 280.636 174.64 279.976 174.64H279.966ZM278.266 172.84C278.976 173.69 280.306 173.88 281.216 173.24C287.186 169.07 292.676 165.37 297.086 162.4L297.196 162.32C302.646 158.65 306.576 155.99 308.536 154.42C316.746 147.84 322.336 140.56 325.156 132.76C327.706 125.71 327.836 118.5 325.516 111.9C323.376 105.82 319.326 100.63 313.806 96.8901C308.186 93.0901 301.446 91.0801 294.306 91.0801C289.926 91.0801 285.486 91.8401 281.096 93.3301C279.206 93.9701 265.106 98.0701 246.116 102.5C245.546 102.64 245.056 102.98 244.746 103.48C244.436 103.97 244.346 104.58 244.476 105.14C247.356 117.35 251.876 129.6 257.906 141.55C263.656 152.93 270.496 163.45 278.256 172.84H278.266ZM280.376 168.47L280.086 168.11C273.186 159.48 267.046 149.88 261.846 139.57C256.406 128.8 252.226 117.76 249.416 106.77L249.286 106.28L249.786 106.16C266.846 102.1 280.126 98.3101 282.526 97.4901C286.466 96.1601 290.426 95.4801 294.316 95.4801C306.746 95.4801 317.616 102.67 321.376 113.37C323.356 119 323.236 125.19 321.036 131.27C318.496 138.29 313.366 144.93 305.796 151C303.976 152.46 299.876 155.23 294.686 158.73L294.236 159.03C290.456 161.58 285.766 164.75 280.766 168.21L280.386 168.48L280.376 168.47ZM250.506 107.01C253.296 117.77 257.406 128.57 262.736 139.12C267.836 149.22 273.836 158.63 280.576 167.12C285.436 163.76 289.996 160.68 293.676 158.2L294.076 157.93C299.286 154.41 303.376 151.66 305.166 150.22C312.586 144.27 317.616 137.78 320.096 130.93C322.216 125.06 322.336 119.1 320.436 113.7C316.816 103.4 306.326 96.4801 294.316 96.4801C290.536 96.4801 286.676 97.1401 282.846 98.4401C280.446 99.2601 267.366 103 250.506 107.02V107.01Z" fill="#0C375B"/>
<path d="M293.486 124.581C296.906 133.331 303.896 138.811 309.116 136.821C314.336 134.821 315.796 126.101 312.386 117.351C308.966 108.591 301.966 103.111 296.756 105.111C291.536 107.111 290.076 115.831 293.496 124.591L293.486 124.581Z" fill="#0C375B"/>
<path d="M306.886 137.721C301.846 137.721 296.036 132.491 293.026 124.761C290.776 118.991 290.516 113.091 292.336 108.971C293.276 106.841 294.746 105.341 296.576 104.641C302.036 102.541 309.336 108.171 312.856 117.171C315.106 122.941 315.356 128.851 313.536 132.971C312.596 135.101 311.126 136.601 309.296 137.301C308.526 137.601 307.716 137.741 306.886 137.741V137.721ZM293.956 124.401C297.266 132.891 303.986 138.251 308.936 136.351C310.506 135.751 311.786 134.431 312.616 132.551C314.306 128.731 314.036 122.971 311.916 117.521C308.596 109.031 301.876 103.671 296.926 105.561C295.356 106.161 294.076 107.481 293.246 109.361C291.556 113.181 291.826 118.941 293.956 124.391V124.401Z" fill="#0C375B"/>
<path d="M168.866 328.58C168.106 328.56 167.386 328.11 166.876 327.32C166.376 326.52 166.086 325.45 166.176 324.34C166.176 324.34 166.206 323.89 166.266 323.04C166.296 322.62 166.336 322.09 166.386 321.48C166.436 320.86 166.516 320.15 166.596 319.36C166.936 316.18 167.546 311.629 168.816 306.239C170.086 300.859 171.976 294.64 174.706 288.32C176.066 285.16 177.596 281.96 179.316 278.83C181.036 275.7 182.916 272.62 184.906 269.66C188.896 263.73 193.376 258.329 197.816 253.649C202.246 248.959 206.656 245.03 210.526 241.85C214.396 238.68 217.736 236.26 220.096 234.61C221.276 233.79 222.216 233.16 222.856 232.74C223.496 232.31 223.836 232.09 223.836 232.09C223.996 231.98 224.166 231.89 224.346 231.8L224.976 231.39C227.786 229.58 230.966 228.96 233.696 229.4C236.436 229.85 238.736 231.36 239.996 233.69C240.656 234.91 240.976 236.23 241.016 237.57L241.276 237.43C243.916 235.98 246.926 235.62 249.616 236.4C252.246 237.16 254.236 238.92 255.256 241.25C256.076 243.11 256.206 245.1 255.856 246.97C255.496 248.84 254.656 250.61 253.396 252.05C254.686 252.92 255.756 254.14 256.486 255.61C257.446 257.54 257.726 259.61 257.496 261.54C257.256 263.47 256.496 265.26 255.286 266.66C256.446 267.5 257.446 268.629 258.206 269.989C259.496 272.319 259.866 274.87 259.536 277.09C259.196 279.32 258.146 281.219 256.406 282.369C256.406 282.369 255.616 282.89 254.456 283.69C253.296 284.5 251.786 285.599 250.326 286.739C248.866 287.879 247.466 289.05 246.446 289.94C245.936 290.39 245.516 290.77 245.226 291.03C244.936 291.3 244.776 291.45 244.776 291.45C244.676 291.55 244.556 291.63 244.436 291.7C244.436 291.7 244.306 291.82 244.046 292.06C243.806 292.29 243.446 292.64 242.986 293.09C242.086 293.98 240.826 295.26 239.446 296.84C238.056 298.42 236.536 300.29 235.096 302.34C233.666 304.4 232.296 306.62 231.156 308.88C230.006 311.15 229.046 313.449 228.316 315.649C227.586 317.849 227.076 319.95 226.726 321.78C226.376 323.61 226.206 325.18 226.086 326.28C226.016 326.83 226.016 327.27 225.986 327.57C225.966 327.87 225.956 328.03 225.956 328.03C225.896 329.1 224.586 329.95 222.996 329.92L168.896 328.58H168.866Z" fill="white"/>
<path d="M262.436 273.921C262.576 275.141 262.556 276.351 262.376 277.531C261.896 280.651 260.336 283.221 257.986 284.781C257.936 284.811 257.186 285.311 256.086 286.071C255.306 286.621 253.736 287.731 252.086 289.021C250.846 289.981 249.476 291.111 248.326 292.121L246.726 293.561C246.556 293.721 246.376 293.871 246.186 293.991L244.986 295.141C244.086 296.031 242.896 297.251 241.586 298.741C240.076 300.461 238.676 302.231 237.436 304.001C235.966 306.121 234.706 308.201 233.706 310.191C232.626 312.331 231.726 314.471 231.026 316.571C230.416 318.431 229.906 320.371 229.526 322.331C229.206 323.981 229.046 325.391 228.926 326.581V326.621C228.886 326.881 228.876 327.121 228.866 327.351C228.856 327.521 228.846 327.671 228.836 327.811L228.806 328.221C228.636 330.841 226.056 332.851 222.916 332.791L168.796 331.451C167.066 331.411 165.476 330.461 164.456 328.861C163.596 327.501 163.186 325.781 163.306 324.121L163.516 321.251C163.556 320.781 163.606 320.271 163.666 319.731L163.736 319.061C164.226 314.401 164.976 309.991 166.016 305.571C167.526 299.161 169.556 292.971 172.066 287.171C173.566 283.701 175.156 280.421 176.796 277.441C178.546 274.251 180.476 271.091 182.526 268.051C186.296 262.441 190.736 256.931 195.726 251.671C199.646 247.521 203.896 243.591 208.696 239.631C211.916 237.001 215.196 234.521 218.456 232.251C219.666 231.411 220.616 230.771 221.276 230.331L222.256 229.681C222.476 229.541 222.686 229.411 222.906 229.301L223.406 228.971C226.676 226.861 230.596 225.981 234.156 226.561C237.816 227.161 240.866 229.261 242.526 232.321C242.746 232.741 242.946 233.161 243.116 233.601C245.546 232.951 248.086 232.951 250.426 233.631C253.796 234.611 256.526 236.961 257.896 240.091C258.896 242.351 259.166 244.941 258.686 247.501C258.416 248.951 257.916 250.331 257.206 251.601C257.936 252.421 258.566 253.341 259.056 254.341C260.206 256.661 260.656 259.311 260.336 261.901C260.146 263.441 259.696 264.901 259.026 266.221C259.666 266.941 260.226 267.741 260.706 268.611C261.626 270.271 262.206 272.061 262.416 273.931L262.436 273.921ZM242.906 289.261L243.306 288.891L244.526 287.801C245.276 287.151 246.756 285.871 248.556 284.471C250.316 283.101 251.976 281.921 252.816 281.331C253.956 280.541 254.746 280.021 254.836 279.961C256.076 279.131 256.536 277.701 256.696 276.651C256.796 275.981 256.806 275.281 256.726 274.571C256.596 273.451 256.256 272.381 255.696 271.391C255.156 270.411 254.446 269.611 253.606 269.001L251.066 267.161L253.116 264.791C253.946 263.831 254.476 262.591 254.646 261.191C254.826 259.721 254.576 258.201 253.916 256.891C253.416 255.891 252.676 255.031 251.786 254.431L249.096 252.611L251.236 250.161C252.156 249.111 252.776 247.821 253.036 246.431C253.296 245.021 253.166 243.621 252.626 242.401C251.936 240.821 250.576 239.671 248.826 239.161C246.866 238.591 244.616 238.871 242.666 239.951L238.306 242.351L238.156 237.661C238.126 236.711 237.896 235.831 237.476 235.061C236.666 233.551 235.156 232.551 233.246 232.241C231.076 231.881 228.636 232.451 226.546 233.801L225.786 234.291L225.636 234.361C225.566 234.401 225.486 234.441 225.426 234.481L224.466 235.121C223.836 235.541 222.926 236.161 221.756 236.961C218.626 239.141 215.466 241.531 212.366 244.061C207.756 247.861 203.686 251.641 199.926 255.611C195.146 260.641 190.906 265.911 187.316 271.251C185.356 274.151 183.526 277.161 181.856 280.201C180.296 283.031 178.786 286.131 177.366 289.441C174.996 294.941 173.066 300.811 171.636 306.881C170.656 311.061 169.946 315.241 169.476 319.651L169.406 320.341C169.356 320.841 169.306 321.291 169.266 321.711L169.056 324.551C169.026 324.981 169.116 325.411 169.276 325.721L223.046 327.051C223.046 327.051 223.106 327.051 223.126 327.051V327.031C223.146 326.761 223.166 326.401 223.216 325.971C223.316 325.021 223.506 323.271 223.886 321.251C224.316 319.041 224.876 316.861 225.576 314.761C226.366 312.391 227.376 309.991 228.586 307.601C229.706 305.381 231.106 303.061 232.736 300.721C234.106 298.761 235.636 296.831 237.286 294.951C238.716 293.321 239.996 292.021 240.956 291.061L242.726 289.371L242.906 289.271V289.261Z" fill="#0C375B"/>
<path d="M223.046 333.3C223.046 333.3 222.956 333.3 222.906 333.3L168.786 331.96C166.886 331.91 165.156 330.88 164.036 329.14C163.126 327.7 162.676 325.86 162.806 324.09L163.016 321.22C163.056 320.74 163.106 320.23 163.166 319.68L163.236 319.01C163.736 314.34 164.486 309.9 165.526 305.46C167.036 299.03 169.086 292.81 171.606 286.97C173.106 283.49 174.706 280.2 176.356 277.19C178.126 273.97 180.056 270.8 182.106 267.76C185.886 262.14 190.346 256.61 195.366 251.31C199.296 247.16 203.546 243.21 208.376 239.23C211.586 236.6 214.886 234.11 218.166 231.83C219.376 230.99 220.326 230.34 220.996 229.91L221.966 229.26C222.196 229.11 222.426 228.97 222.666 228.85L223.126 228.55C226.506 226.37 230.546 225.47 234.226 226.07C238.046 226.69 241.226 228.88 242.956 232.09C243.116 232.39 243.266 232.7 243.406 233.02C245.816 232.45 248.276 232.5 250.556 233.16C254.076 234.18 256.916 236.63 258.346 239.9C259.386 242.27 259.676 244.93 259.176 247.6C258.916 248.98 258.456 250.3 257.816 251.54C258.486 252.33 259.056 253.2 259.516 254.12C260.716 256.54 261.176 259.25 260.846 261.97C260.666 263.45 260.256 264.86 259.636 266.15C260.206 266.82 260.716 267.57 261.166 268.37C262.116 270.09 262.716 271.94 262.936 273.87C263.086 275.13 263.066 276.39 262.876 277.61C262.376 280.87 260.746 283.56 258.276 285.2C258.176 285.26 257.436 285.75 256.386 286.48C255.606 287.02 254.046 288.13 252.406 289.41C251.196 290.36 249.826 291.48 248.666 292.5L247.076 293.94C246.886 294.11 246.696 294.27 246.486 294.41L245.346 295.51C244.476 296.38 243.296 297.58 241.976 299.08C240.476 300.78 239.096 302.54 237.856 304.29C236.396 306.4 235.156 308.46 234.166 310.42C233.096 312.54 232.206 314.66 231.516 316.73C230.906 318.57 230.406 320.49 230.036 322.43C229.726 324.04 229.576 325.39 229.436 326.64C229.406 326.92 229.386 327.13 229.376 327.33L229.306 328.27C229.126 331.11 226.386 333.3 223.046 333.3V333.3ZM231.966 226.88C229.136 226.88 226.216 227.75 223.686 229.39L223.186 229.72C222.936 229.85 222.736 229.97 222.536 230.1L221.566 230.75C220.906 231.18 219.966 231.83 218.756 232.66C215.496 234.93 212.226 237.4 209.036 240.01C204.246 243.96 200.016 247.89 196.116 252.01C191.136 257.26 186.706 262.75 182.966 268.33C180.926 271.34 179.006 274.49 177.256 277.68C175.616 280.67 174.026 283.93 172.546 287.37C170.046 293.15 168.016 299.32 166.526 305.69C165.486 310.09 164.746 314.48 164.256 319.12L164.186 319.79C164.126 320.33 164.076 320.83 164.036 321.3L163.826 324.17C163.706 325.73 164.096 327.35 164.896 328.61C165.826 330.07 167.266 330.93 168.826 330.96L222.946 332.3C225.776 332.36 228.176 330.55 228.326 328.2L228.386 327.33C228.406 327.05 228.416 326.82 228.446 326.57C228.576 325.32 228.746 323.88 229.056 322.24C229.436 320.26 229.946 318.3 230.566 316.41C231.276 314.3 232.186 312.13 233.276 309.97C234.286 307.97 235.556 305.87 237.046 303.72C238.306 301.93 239.716 300.15 241.236 298.42C242.566 296.9 243.766 295.68 244.656 294.8L245.866 293.64C246.096 293.47 246.256 293.35 246.406 293.2L248.006 291.75C249.186 290.72 250.566 289.58 251.796 288.62C253.456 287.32 255.036 286.2 255.816 285.66C256.886 284.92 257.626 284.43 257.716 284.37C259.956 282.89 261.436 280.43 261.886 277.46C262.056 276.33 262.076 275.16 261.936 273.98C261.726 272.18 261.166 270.45 260.286 268.85C259.816 268.01 259.276 267.24 258.666 266.55L258.436 266.29L258.596 265.99C259.246 264.72 259.676 263.32 259.856 261.84C260.166 259.32 259.736 256.81 258.616 254.56C258.146 253.61 257.546 252.72 256.836 251.93L256.596 251.67L256.766 251.36C257.446 250.13 257.926 248.8 258.186 247.41C258.646 244.94 258.386 242.48 257.426 240.3C256.116 237.31 253.506 235.06 250.276 234.12C248.036 233.47 245.606 233.46 243.236 234.09L242.806 234.21L242.646 233.79C242.486 233.37 242.296 232.96 242.076 232.56C240.496 229.63 237.576 227.62 234.066 227.05C233.376 226.94 232.666 226.88 231.946 226.88H231.966ZM223.046 327.54L168.976 326.2L168.836 325.95C168.626 325.56 168.516 325.02 168.556 324.51L168.766 321.67C168.806 321.25 168.846 320.79 168.906 320.29L168.976 319.6C169.446 315.19 170.156 310.99 171.146 306.77C172.576 300.67 174.516 294.77 176.906 289.24C178.336 285.92 179.856 282.79 181.426 279.96C183.106 276.9 184.946 273.88 186.906 270.97C190.516 265.6 194.776 260.32 199.566 255.27C203.326 251.29 207.416 247.5 212.046 243.68C215.156 241.14 218.326 238.74 221.466 236.56C222.636 235.75 223.546 235.13 224.186 234.71L225.146 234.07C225.226 234.02 225.316 233.96 225.416 233.92L225.556 233.85L226.266 233.38C228.456 231.96 231.026 231.37 233.316 231.75C235.386 232.09 237.016 233.18 237.906 234.83C238.366 235.67 238.616 236.62 238.646 237.65L238.776 241.52L242.426 239.51C244.496 238.37 246.886 238.07 248.966 238.68C250.866 239.23 252.336 240.48 253.086 242.2C253.656 243.51 253.816 245 253.526 246.52C253.246 247.99 252.586 249.36 251.606 250.48L249.846 252.5L252.066 254.01C253.026 254.67 253.826 255.58 254.356 256.66C255.046 258.05 255.326 259.68 255.136 261.25C254.956 262.74 254.386 264.07 253.496 265.11L251.796 267.07L253.896 268.59C254.796 269.24 255.546 270.1 256.136 271.15C256.716 272.2 257.086 273.34 257.226 274.52C257.316 275.27 257.306 276.02 257.196 276.74C257.026 277.89 256.516 279.46 255.116 280.39C255.016 280.45 254.236 280.97 253.106 281.75C252.286 282.32 250.646 283.49 248.876 284.87C247.066 286.28 245.586 287.55 244.866 288.18L243.036 289.77L241.306 291.42C240.286 292.44 239.056 293.7 237.666 295.28C236.026 297.14 234.506 299.07 233.146 301C231.526 303.33 230.146 305.62 229.036 307.82C227.836 310.19 226.836 312.58 226.056 314.91C225.366 316.98 224.806 319.14 224.386 321.34C224.006 323.35 223.816 325.08 223.716 326.01C223.666 326.43 223.646 326.78 223.626 327.04L223.596 327.48L223.036 327.54H223.046ZM169.616 325.21L222.666 326.53C222.676 326.35 222.696 326.13 222.726 325.9C222.826 324.96 223.016 323.2 223.406 321.15C223.836 318.92 224.406 316.71 225.106 314.6C225.896 312.22 226.926 309.78 228.146 307.37C229.276 305.13 230.686 302.79 232.326 300.43C233.706 298.46 235.246 296.51 236.916 294.62C238.326 293.02 239.576 291.74 240.606 290.7L242.976 288.53L244.196 287.44C244.926 286.8 246.426 285.51 248.256 284.09C250.046 282.69 251.706 281.52 252.536 280.94C253.686 280.14 254.486 279.62 254.576 279.56C255.666 278.84 256.066 277.55 256.206 276.6C256.306 275.97 256.306 275.32 256.236 274.65C256.116 273.6 255.786 272.59 255.266 271.65C254.756 270.73 254.096 269.98 253.316 269.42L250.336 267.26L252.746 264.48C253.506 263.59 253.996 262.44 254.156 261.15C254.326 259.78 254.086 258.35 253.476 257.13C253.016 256.2 252.336 255.42 251.516 254.86L248.356 252.72L250.866 249.84C251.726 248.85 252.306 247.65 252.556 246.35C252.806 245.03 252.676 243.74 252.186 242.62C251.556 241.17 250.316 240.12 248.706 239.66C246.866 239.13 244.766 239.4 242.926 240.41L237.846 243.2L237.666 237.7C237.636 236.82 237.426 236.02 237.046 235.32C236.306 233.95 234.936 233.04 233.176 232.76C231.126 232.43 228.816 232.97 226.836 234.25L225.876 234.85C225.816 234.88 225.766 234.91 225.716 234.94L224.756 235.58C224.126 236 223.216 236.61 222.056 237.42C218.936 239.59 215.796 241.97 212.706 244.49C208.106 248.28 204.046 252.05 200.316 256C195.556 261.01 191.336 266.25 187.756 271.57C185.816 274.45 183.986 277.45 182.316 280.48C180.766 283.29 179.266 286.38 177.846 289.68C175.476 295.16 173.566 301 172.136 307.04C171.156 311.22 170.446 315.37 169.986 319.75L169.916 320.44C169.866 320.93 169.816 321.39 169.776 321.79L169.566 324.63C169.546 324.85 169.566 325.07 169.626 325.27L169.616 325.21Z" fill="#0C375B"/>
<path d="M248.466 236.28C248.566 237.15 248.126 238.03 247.306 238.45L246.026 239.1C245.286 239.48 244.136 240.09 242.756 240.85C239.736 242.5 236.216 244.62 233.096 246.68C230.026 248.7 226.676 251.1 223.906 253.28C222.776 254.17 221.736 255 220.996 255.63L219.876 256.56C218.956 257.32 217.596 257.2 216.836 256.29C216.076 255.37 216.196 254.01 217.106 253.25L218.216 252.32C218.996 251.67 220.066 250.8 221.236 249.89C224.096 247.64 227.556 245.16 230.726 243.08C233.936 240.97 237.566 238.78 240.676 237.08C242.096 236.3 243.286 235.67 244.056 235.28L245.346 234.62C246.406 234.08 247.706 234.5 248.246 235.56C248.366 235.79 248.436 236.04 248.466 236.29V236.28Z" fill="#0C375B"/>
<path d="M255.456 250.64C255.556 251.51 255.116 252.39 254.296 252.81L253.076 253.43C252.376 253.8 251.416 254.3 250.296 254.92C247.606 256.4 244.506 258.27 241.776 260.07C239.076 261.84 236.146 263.95 233.706 265.86C232.656 266.69 231.776 267.39 231.166 267.9L230.186 268.72C229.266 269.48 227.906 269.36 227.146 268.44C226.386 267.52 226.506 266.16 227.426 265.4L228.396 264.59C229.036 264.05 229.946 263.31 231.036 262.46C233.556 260.48 236.606 258.29 239.396 256.46C242.216 254.61 245.426 252.67 248.206 251.14C249.366 250.49 250.346 249.98 251.066 249.6L252.316 248.96C253.376 248.42 254.676 248.84 255.216 249.9C255.336 250.13 255.406 250.38 255.436 250.63L255.456 250.64Z" fill="#0C375B"/>
<path d="M257.016 266.1C257.116 266.94 256.716 267.79 255.936 268.23C255.926 268.23 254.796 268.87 253.166 269.86C251.236 271.03 249.076 272.44 247.236 273.72C245.366 275.02 243.316 276.56 241.626 277.92C240.156 279.1 239.216 279.92 239.206 279.93C238.306 280.71 236.946 280.62 236.156 279.72C235.376 278.82 235.466 277.46 236.366 276.67C236.406 276.64 237.386 275.78 238.916 274.56C240.686 273.14 242.816 271.54 244.766 270.18C246.676 268.85 248.916 267.39 250.926 266.17C252.626 265.14 253.766 264.5 253.816 264.47C254.856 263.88 256.166 264.25 256.756 265.29C256.906 265.55 256.986 265.82 257.016 266.1V266.1Z" fill="#0C375B"/>
<path d="M162.026 306.119C162.026 306.119 161.976 306.269 161.876 306.559C161.786 306.829 161.646 307.239 161.466 307.779C161.296 308.299 161.086 308.949 160.836 309.699C160.586 310.469 160.316 311.319 160.026 312.259C159.726 313.209 159.406 314.269 159.046 315.409C158.716 316.539 158.356 317.769 157.966 319.079C157.176 321.709 156.406 324.629 155.526 327.839C152.086 340.649 148.336 357.719 145.636 375.029C144.276 383.679 143.176 392.369 142.356 400.559C141.876 404.639 141.636 408.629 141.336 412.399C141.196 414.279 141.056 416.119 140.926 417.889C140.826 419.669 140.766 421.389 140.686 423.039C140.546 426.349 140.416 429.379 140.296 432.059C140.236 434.749 140.236 437.109 140.206 439.039C140.176 442.909 140.156 445.129 140.156 445.129L212.156 444.889C212.156 444.889 212.176 443.059 212.206 439.859C212.226 438.259 212.226 436.319 212.266 434.089C212.366 431.849 212.476 429.329 212.596 426.579C212.656 425.199 212.706 423.769 212.786 422.289C212.896 420.809 213.016 419.269 213.136 417.689C213.396 414.529 213.576 411.199 213.996 407.749C214.676 400.859 215.606 393.509 216.766 386.179C219.046 371.529 222.246 356.979 225.096 346.369C225.826 343.739 226.456 341.289 227.096 339.189C227.406 338.139 227.696 337.149 227.966 336.239C228.236 335.349 228.496 334.529 228.726 333.799C228.956 333.059 229.156 332.399 229.336 331.859C229.516 331.309 229.666 330.849 229.796 330.469C229.916 330.089 230.016 329.799 230.066 329.639C230.126 329.469 230.156 329.379 230.156 329.379L162.016 306.119H162.026Z" fill="#AC90ED"/>
<path d="M140.166 449.15C139.106 449.15 138.086 448.73 137.326 447.97C136.576 447.21 136.156 446.18 136.166 445.11L136.236 437.03C136.246 435.52 136.266 433.83 136.306 431.98L136.766 421.34C136.816 420.15 136.866 418.92 136.946 417.67L137.366 412.1C137.446 411.1 137.516 410.1 137.596 409.09C137.816 406.19 138.036 403.19 138.406 400.09C139.256 391.53 140.366 382.86 141.706 374.4C144.176 358.56 147.816 341.21 151.676 326.8L152.356 324.32C152.976 322.05 153.556 319.91 154.156 317.92L156.246 310.97C156.536 310.03 156.796 309.19 157.046 308.43L158.246 304.81C158.956 302.72 161.236 301.61 163.326 302.32L231.466 325.58C232.476 325.92 233.296 326.65 233.766 327.61C234.236 328.56 234.306 329.67 233.956 330.67L233.866 330.94C233.816 331.09 233.726 331.35 233.616 331.69L233.146 333.11C232.976 333.63 232.776 334.25 232.566 334.96L230.956 340.32C230.526 341.74 230.086 343.35 229.626 345.04C229.416 345.82 229.196 346.62 228.976 347.43C225.806 359.25 222.796 373.6 220.746 386.79C219.636 393.82 218.716 401 218.006 408.14C217.716 410.58 217.536 412.92 217.376 415.18C217.306 416.14 217.236 417.08 217.156 418.01L216.806 422.59C216.766 423.42 216.726 424.31 216.686 425.18L216.286 434.27C216.256 435.59 216.246 436.88 216.246 438.04C216.246 438.71 216.246 439.33 216.226 439.91L216.176 444.93C216.156 447.12 214.376 448.88 212.186 448.89L140.186 449.13H140.176L140.166 449.15ZM164.556 311.21C164.336 311.87 164.126 312.58 163.876 313.35L162.876 316.6L161.816 320.21C161.236 322.13 160.666 324.22 160.066 326.44L159.386 328.92C155.596 343.04 152.026 360.08 149.596 375.66C148.286 383.98 147.186 392.49 146.346 400.97C145.996 403.97 145.776 406.88 145.566 409.7C145.486 410.73 145.416 411.74 145.336 412.73L144.926 418.2C144.866 419.34 144.806 420.53 144.756 421.69L144.296 432.25C144.256 433.97 144.246 435.63 144.236 437.1L144.196 441.13L208.206 440.92V439.84C208.226 439.26 208.226 438.65 208.236 438C208.236 436.8 208.256 435.47 208.286 434.02L208.686 424.86C208.726 423.95 208.766 423.02 208.816 422.07L209.176 417.39C209.256 416.46 209.316 415.54 209.386 414.61C209.556 412.25 209.736 409.82 210.046 407.28C210.756 400.07 211.706 392.74 212.836 385.57C214.936 372.12 217.996 357.45 221.256 345.34C221.486 344.51 221.696 343.72 221.906 342.96C222.386 341.21 222.836 339.55 223.286 338.05L224.916 332.63C224.996 332.38 225.066 332.13 225.136 331.9L164.556 311.22V311.21Z" fill="#AC90ED"/>
<path d="M176.006 439.169C175.946 439.169 175.896 439.179 175.836 439.189C174.896 439.229 174.106 438.489 174.066 437.549C174.046 437.149 173.696 427.619 175.616 409.939C177.376 393.679 181.486 367.189 191.046 333.379C191.306 332.469 192.246 331.949 193.156 332.199C194.066 332.459 194.586 333.399 194.336 334.309C184.836 367.889 180.766 394.169 179.016 410.299C177.126 427.729 177.476 437.319 177.486 437.409C177.526 438.289 176.876 439.049 176.026 439.169H176.006Z" fill="#0C375B"/>
<path d="M153.716 410.659C153.076 410.749 152.406 410.469 152.036 409.879C151.526 409.089 151.766 408.029 152.566 407.529C160.516 402.489 171.436 399.049 185.026 397.299C195.096 396.009 202.736 396.169 203.056 396.179C203.996 396.199 204.746 396.979 204.716 397.919C204.696 398.859 203.916 399.609 202.976 399.579C202.666 399.579 172.376 398.989 154.386 410.399C154.176 410.529 153.946 410.619 153.706 410.649L153.716 410.659Z" fill="#0C375B"/>
<path d="M203.766 392.81C203.456 392.85 203.126 392.81 202.816 392.67C202.566 392.55 177.616 381.26 156.186 385.75C155.266 385.94 154.366 385.35 154.166 384.43C153.976 383.51 154.566 382.61 155.486 382.41C178.046 377.69 203.176 389.09 204.236 389.57C205.096 389.96 205.466 390.98 205.076 391.83C204.826 392.38 204.316 392.73 203.766 392.81V392.81Z" fill="#0C375B"/>
<path d="M335.346 313.47C335.346 313.47 332.026 318.18 326.976 318.42C323.936 318.56 321.126 317.09 318.616 314.05C315.496 310.26 313.536 309.53 312.426 309.58C310.806 309.66 309.336 311.63 308.096 313.47C308.066 313.52 304.776 318.18 299.726 318.42C296.686 318.56 293.876 317.09 291.366 314.05C289.496 311.77 287.616 310.63 285.796 310.67C282.986 310.73 280.836 313.5 280.786 313.56C280.076 314.51 278.726 314.71 277.776 314C276.816 313.29 276.616 311.94 277.326 310.98C277.466 310.8 280.716 306.48 285.666 306.36C288.896 306.28 291.936 307.95 294.706 311.31C296.276 313.22 297.876 314.16 299.456 314.12C301.806 314.05 303.956 311.83 304.546 311.04C305.966 308.94 308.336 305.45 312.236 305.27C315.316 305.12 318.496 307.1 321.956 311.31C323.526 313.22 325.126 314.16 326.706 314.12C329.056 314.05 331.206 311.83 331.796 311.04C333.216 308.94 335.586 305.45 339.486 305.27C342.566 305.12 345.746 307.1 349.206 311.31C350.776 313.22 352.376 314.16 353.946 314.12C356.296 314.05 358.446 311.83 359.036 311.04C360.456 308.94 362.826 305.45 366.726 305.27C369.806 305.12 372.986 307.1 376.446 311.31C376.776 311.71 376.936 312.2 376.936 312.68C376.936 313.3 376.666 313.92 376.146 314.35C375.226 315.11 373.866 314.98 373.106 314.05C369.986 310.26 368.026 309.53 366.916 309.58C365.296 309.66 363.826 311.63 362.586 313.47C362.556 313.52 359.276 318.18 354.216 318.42C351.176 318.56 348.366 317.09 345.856 314.05C342.736 310.26 340.776 309.53 339.666 309.58C338.046 309.66 336.576 311.63 335.336 313.48L335.346 313.47Z" fill="#0C375B"/>
<path d="M386.076 22.971C385.136 22.231 383.786 22.401 383.046 23.341L360.206 52.471C359.476 53.411 359.636 54.771 360.576 55.501C360.676 55.581 360.786 55.651 360.896 55.711C361.806 56.191 362.956 55.971 363.606 55.131L386.446 26.001C387.176 25.061 387.016 23.711 386.076 22.971V22.971Z" fill="#0C375B"/>
<path d="M430.516 133.522C430.686 132.342 429.866 131.252 428.686 131.082L392.036 125.872C390.856 125.702 389.766 126.522 389.596 127.702C389.466 128.622 389.936 129.492 390.716 129.912C390.926 130.032 391.166 130.112 391.426 130.142L428.076 135.352C429.256 135.522 430.346 134.702 430.516 133.522Z" fill="#0C375B"/>
<path d="M423.106 72.2901C422.666 71.1801 421.406 70.6501 420.296 71.0901L385.956 84.9001C384.846 85.3501 384.316 86.6001 384.756 87.7101C384.956 88.2001 385.306 88.5801 385.746 88.8101C386.286 89.1001 386.956 89.1601 387.566 88.9101L421.916 75.1001C423.016 74.6601 423.556 73.4001 423.116 72.2901H423.106Z" fill="#0C375B"/>
</svg>
